<svg xmlns="http://www.w3.org/2000/svg" width="38.518" height="38.607" viewBox="0 0 38.518 38.607">
  <g id="undraw_people_search_wctu" transform="translate(728.203 -31.153)">
    <path id="Path_492" data-name="Path 492" d="M230.717,82.859l-12.078-12.18a1.256,1.256,0,0,0-.89-.368H216.9a10.885,10.885,0,1,0-1.885,1.885v.852a1.256,1.256,0,0,0,.368.89l12.078,12.18a1.25,1.25,0,0,0,1.775,0l1.48-1.478A1.263,1.263,0,0,0,230.717,82.859ZM208.308,70.311a6.7,6.7,0,1,1,4.741-1.961,6.7,6.7,0,0,1-4.741,1.961Z" transform="translate(-909.673 -51.814) rotate(9)" fill="#5eb3f1"/>
  </g>
</svg>
