<svg xmlns="http://www.w3.org/2000/svg" width="9.467" height="18.741" viewBox="0 0 9.467 18.741">
  <path id="facebook" d="M126.984,9.981h2.054v8.457a.3.3,0,0,0,.3.3h3.483a.3.3,0,0,0,.3-.3V10.021h2.362a.3.3,0,0,0,.3-.268l.359-3.114a.3.3,0,0,0-.3-.337h-2.72V4.351c0-.588.317-.887.942-.887h1.779a.3.3,0,0,0,.3-.3V.3a.3.3,0,0,0-.3-.3H133.4c-.017,0-.056,0-.112,0a4.7,4.7,0,0,0-3.071,1.158,3.221,3.221,0,0,0-1.071,2.863V6.3h-2.157a.3.3,0,0,0-.3.3V9.679A.3.3,0,0,0,126.984,9.981Z" transform="translate(-126.682)" fill="#fff"/>
</svg>
