<svg id="search" xmlns="http://www.w3.org/2000/svg" width="18.5" height="18.5" viewBox="0 0 18.5 18.5">
  <path id="Path_197" data-name="Path 197" d="M4.1,144.452l-.644,2.4-2.354.05a9.266,9.266,0,0,1-.068-8.637h0l2.1.384.918,2.083a5.52,5.52,0,0,0,.052,3.717Z" transform="translate(0 -133.272)" fill="#fbbb00"/>
  <path id="Path_198" data-name="Path 198" d="M270.513,208.176a9.246,9.246,0,0,1-3.3,8.941h0l-2.639-.135-.374-2.332a5.513,5.513,0,0,0,2.372-2.815h-4.946v-3.659h8.885Z" transform="translate(-252.175 -200.654)" fill="#518ef8"/>
  <path id="Path_199" data-name="Path 199" d="M44.447,314.692h0a9.253,9.253,0,0,1-13.938-2.83l3-2.454a5.5,5.5,0,0,0,7.927,2.817Z" transform="translate(-29.407 -298.229)" fill="#28b446"/>
  <path id="Path_200" data-name="Path 200" d="M42.744,2.13l-3,2.453a5.5,5.5,0,0,0-8.109,2.88L28.625,5h0A9.252,9.252,0,0,1,42.744,2.13Z" transform="translate(-27.59)" fill="#f14336"/>
</svg>
