<svg xmlns="http://www.w3.org/2000/svg" xmlns:xlink="http://www.w3.org/1999/xlink" width="210" height="317" viewBox="0 0 210 317">
  <defs>
    <clipPath id="clip-path">
      <rect width="210" height="317" fill="none"/>
    </clipPath>
  </defs>
  <g id="Repeat_Grid_1" data-name="Repeat Grid 1" clip-path="url(#clip-path)">
    <g transform="translate(-356 -1690)">
      <path id="_D9B7DF4A-CB98-4423-87DA-5CBB42C8E5BE_Img400" data-name="{D9B7DF4A-CB98-4423-87DA-5CBB42C8E5BE}Img400" d="M10,0H200a10,10,0,0,1,10,10V307a10,10,0,0,1-10,10H10A10,10,0,0,1,0,307V10A10,10,0,0,1,10,0Z" transform="translate(356 1690)" fill="#1a4f76"/>
      <text id="And_then_there_were_none" data-name="And then 
there were none" transform="translate(460 1832)" fill="#fff" font-size="16" font-family="DINPro-Black, DIN Pro" font-weight="800"><tspan x="-34.6" y="0">And then </tspan><tspan x="-60.472" y="25">there were none</tspan></text>
      <text id="Agatha_Christe" data-name="Agatha Christe" transform="translate(423 1964)" fill="#fff" font-size="11" font-family="DINPro-Medium, DIN Pro" font-weight="500"><tspan x="0" y="0">Agatha Christe</tspan></text>
      <g id="Rectangle_203" data-name="Rectangle 203" transform="translate(366 1700)" fill="none" stroke="#fff" stroke-width="1">
        <rect width="191" height="296" rx="8" stroke="none"/>
        <rect x="0.5" y="0.5" width="190" height="295" rx="7.5" fill="none"/>
      </g>
    </g>
  </g>
</svg>
