<svg xmlns="http://www.w3.org/2000/svg" xmlns:xlink="http://www.w3.org/1999/xlink" width="612" height="410.812" viewBox="0 0 612 410.812">
  <defs>
    <linearGradient id="linear-gradient" x1="0.5" y1="1" x2="0.5" gradientUnits="objectBoundingBox">
      <stop offset="0" stop-color="gray" stop-opacity="0.251"/>
      <stop offset="0.54" stop-color="gray" stop-opacity="0.122"/>
      <stop offset="1" stop-color="gray" stop-opacity="0.102"/>
    </linearGradient>
  </defs>
  <g id="undraw_book_lover_mkck-2" transform="translate(158.911 42.194)">
    <path id="Path_12" data-name="Path 12" d="M457.466,136.972c-39.234-1.364-76.608-14.028-112.29-27.886S274.152,79.872,235.857,72.531c-24.631-4.722-52.8-5.389-72.643,7.814-19.1,12.731-25.273,34.645-28.589,55-2.5,15.313-3.965,31.426,2.88,45.763,4.747,9.954,13.179,18.32,19,27.886,20.29,33.172,5.953,74.08-16.035,106.47-10.306,15.2-22.279,29.7-30.232,45.867s-11.639,34.706-4.68,51.207c6.9,16.368,23.352,28.638,41.162,37.276,36.185,17.55,78.808,22.57,120.4,25.413,92.042,6.3,184.569,3.571,276.854.843,34.154-1.012,68.454-2.037,102.051-7.317,18.659-2.934,37.919-7.584,51.468-18.823,17.192-14.264,21.454-38.422,9.936-56.306-19.332-30-72.746-37.452-86.277-69.655-7.432-17.72.206-37.458,11.009-53.9,23.182-35.258,62.034-66.193,64.083-106.495,1.406-27.686-17.277-55.4-46.157-68.5C619.824,81.3,577.837,83.043,555.516,105.77,532.516,129.188,492.105,138.172,457.466,136.972Z" transform="translate(-260.797 -111.632)" fill="#5ab5f1" opacity="0.1"/>
    <path id="Path_13" data-name="Path 13" d="M231.685,532.151l-156.932-.766L59.16,494.812l55.138-4-9.61-40.1,109.056-14.135-104.43-36.3,9.225-2.192L286.46,425.475l-9.248,62.579-13.218,34.391Z" transform="translate(-47.908 -219.776)" fill="#5ab5f1"/>
    <path id="Path_14" data-name="Path 14" d="M187,698.663s9.628-1.541,15.405,5.263c0,0-4.236,3.338-13.351-1.284Z" transform="translate(-157.748 -402.372)" fill="#5ab5f1"/>
    <path id="Path_15" data-name="Path 15" d="M180.128,698.51s-6.144,7.56-3.118,15.978c0,0,5.007-2,5.552-12.209Z" transform="translate(-151.885 -402.37)" fill="#5ab5f1"/>
    <path id="Path_16" data-name="Path 16" d="M172.76,668.512s3.851-7.065,19.257,2.824c0,0-2.054,4.75-8.858,4.365S174.557,672.235,172.76,668.512Z" transform="translate(-150.037 -384.801)" fill="#5ab5f1"/>
    <path id="Path_17" data-name="Path 17" d="M160.236,670.281s-7.991-.917-8.766,17.377c0,0,5.066,1.05,8.665-4.736S162.258,673.889,160.236,670.281Z" transform="translate(-138.508 -387.079)" fill="#5ab5f1"/>
    <path id="Path_18" data-name="Path 18" d="M160.44,630.457s4.493-12.453,20.8-3.595c0,0-3.723,11.425-19.128,7.831Z" transform="translate(-143.365 -361.849)" fill="#5ab5f1"/>
    <path id="Path_19" data-name="Path 19" d="M149.52,590.923s8.473-12.581,23.493-.917c0,0-5.263,11.811-22.209,5.392Z" transform="translate(-209.461 -340.93)" fill="#5ab5f1"/>
    <path id="Path_20" data-name="Path 20" d="M145.6,553.153s9.885-11.558,24.758,0c0,0-9.372,10.142-24.758,2.953Z" transform="translate(-207.339 -320.875)" fill="#5ab5f1"/>
    <path id="Path_21" data-name="Path 21" d="M142.24,515.125s10.013-12.067,24.263-.642c0,0-11.3,10.655-24.263,3.466Z" transform="translate(-205.519 -300.055)" fill="#5ab5f1"/>
    <path id="Path_22" data-name="Path 22" d="M144.2,478.135s10.545-15.534,23.878-5.007c0,0-11.3,13.351-23.878,7.959Z" transform="translate(-206.581 -278.341)" fill="#5ab5f1"/>
    <path id="Path_23" data-name="Path 23" d="M149.52,439.942s11.169-15.405,24.135-3.595c0,0-13.223,13.351-24.135,6.419Z" transform="translate(-209.461 -257.993)" fill="#5ab5f1"/>
    <path id="Path_24" data-name="Path 24" d="M156.958,402.768s13.223-14.479,24.758-8.711c0,0-13.778,15.378-25.336,12.553Z" transform="translate(-213.176 -236.77)" fill="#5ab5f1"/>
    <path id="Path_25" data-name="Path 25" d="M166.442,366.3s15.258-17.734,24.135-11.811c0,0-11.242,13.755-25.217,15.13Z" transform="translate(-218.039 -215.423)" fill="#5ab5f1"/>
    <path id="Path_26" data-name="Path 26" d="M180.153,329.9s13.356-14.479,23.112-10.885c0,0-11.426,15.02-24.905,15.405Z" transform="translate(-225.079 -196.557)" fill="#5ab5f1"/>
    <path id="Path_27" data-name="Path 27" d="M194.682,293.816s14.763-13.865,21.182-11.426c0,0-10.655,15.405-21.824,14.507Z" transform="translate(-233.57 -176.88)" fill="#5ab5f1"/>
    <path id="Path_28" data-name="Path 28" d="M208.32,256.478s12.709-16.565,19.646-15.281c0,0-7.707,14.768-19.646,16.964Z" transform="translate(-241.302 -154.691)" fill="#5ab5f1"/>
    <path id="Path_29" data-name="Path 29" d="M221.753,215.1s11.233-12.7,17.3-12.668c0,0-8.867,16.964-17.766,16.808Z" transform="translate(-248.326 -133.737)" fill="#5ab5f1"/>
    <path id="Path_30" data-name="Path 30" d="M228.95,169.166,239.8,142.72s.541,23.906-12.232,31.351Z" transform="translate(-251.726 -101.403)" fill="#5ab5f1"/>
    <path id="Path_31" data-name="Path 31" d="M240.1,108.583s1.8-22.085.642-23.883c0,0,7.758,18.362-.715,33.639Z" transform="translate(-258.474 -69.985)" fill="#5ab5f1"/>
    <path id="Path_32" data-name="Path 32" d="M137.627,636.154s-11.251-6.974-18.537,10.087c0,0,10.013,6.648,19.862-5.736Z" transform="translate(-120.974 -367.839)" fill="#5ab5f1"/>
    <path id="Path_33" data-name="Path 33" d="M124.524,595.035s-13.8-6.295-20.494,11.517c0,0,10.66,7.336,21.751-7.015Z" transform="translate(-184.828 -345.752)" fill="#5ab5f1"/>
    <path id="Path_34" data-name="Path 34" d="M114.958,555.463s-9.885-11.559-24.758,0c0,0,9.372,10.142,24.758,2.953Z" transform="translate(-177.339 -322.126)" fill="#5ab5f1"/>
    <path id="Path_35" data-name="Path 35" d="M112.843,515.125s-10.013-12.067-24.263-.642c0,0,11.3,10.655,24.263,3.466Z" transform="translate(-176.462 -300.055)" fill="#5ab5f1"/>
    <path id="Path_36" data-name="Path 36" d="M117.872,475.41s-7.024-17.4-22.292-9.917c0,0,8.253,15.428,21.668,12.806Z" transform="translate(-180.252 -275.176)" fill="#5ab5f1"/>
    <path id="Path_37" data-name="Path 37" d="M124.916,435.481s-6.983-17.7-22.466-9.5c0,0,9.482,16.226,21.778,12.228Z" transform="translate(-183.973 -253.619)" fill="#5ab5f1"/>
    <path id="Path_38" data-name="Path 38" d="M142.479,389.876s-2.751-19.408-15.589-21.145c0,0,2.723,20.467,13.86,24.644Z" transform="translate(-197.207 -223.79)" fill="#5ab5f1"/>
    <path id="Path_39" data-name="Path 39" d="M154.627,353.179s-1.073-23.383-11.687-24.2c0,0,.358,17.748,10.49,27.509Z" transform="translate(-205.898 -202.265)" fill="#5ab5f1"/>
    <path id="Path_40" data-name="Path 40" d="M168.966,316.229s-3.164-19.444-13.3-21.819c0,0,1.256,18.83,12.292,26.592Z" transform="translate(-212.792 -183.545)" fill="#5ab5f1"/>
    <path id="Path_41" data-name="Path 41" d="M189.584,280.562s-.105-20.256-6.3-23.232c0,0-3.838,18.34,4.5,25.818Z" transform="translate(-227.27 -163.466)" fill="#5ab5f1"/>
    <path id="Path_42" data-name="Path 42" d="M200.457,246.006s-.867-20.857-7.276-23.8c0,0-2.192,16.506,6.318,25.162Z" transform="translate(-232.967 -144.448)" fill="#5ab5f1"/>
    <path id="Path_43" data-name="Path 43" d="M217.037,208.954S217,191.99,212.425,188.01c0,0-4.548,18.583,2.224,24.355Z" transform="translate(-242.716 -125.928)" fill="#5ab5f1"/>
    <path id="Path_44" data-name="Path 44" d="M222.143,165.234,217.691,137s-6.047,23.135,4.663,33.332Z" transform="translate(-245.456 -98.306)" fill="#5ab5f1"/>
    <path id="Path_45" data-name="Path 45" d="M218.078,112.46s-11.426-18.981-11.192-21.09c0,0,1.215,19.894,15.589,29.8Z" transform="translate(-240.524 -73.597)" fill="#5ab5f1"/>
    <path id="Path_46" data-name="Path 46" d="M215.722,90.722S204.938,63.762,200.06,61.58c0,0,15.405,7.831,16.561,28.371Z" transform="translate(-236.829 -57.465)" fill="#5ab5f1"/>
    <path id="Path_47" data-name="Path 47" d="M220.3,175.509l-.738-.225c9.1-29.678,11.371-48.6,6.4-53.345l.527-.559C231.76,126.387,229.619,145.1,220.3,175.509Z" transform="translate(-247.389 -89.847)" fill="#444053"/>
    <path id="Path_48" data-name="Path 48" d="M165.221,306.367l-1.091-.39c.967-2.719,2.008-5.479,3.1-8.2,9.5-23.676,17.588-45.7,22.773-62.611l.949-.458c-5.195,16.941-13.14,39.811-22.649,63.519C167.216,300.9,166.179,303.644,165.221,306.367Z" transform="translate(-217.373 -151.217)" fill="#444053"/>
    <path id="Path_49" data-name="Path 49" d="M175.032,551.307c-.147-.16-14.9-16.772-25.18-45.129a166.972,166.972,0,0,1-9.935-51.708c-.706-22.067,3.925-46.706,11.857-69.09l.862,1.009c-17.808,50.237-10.733,93.284-1.348,119.207,10.174,28.1,24.758,44.528,24.9,44.693Z" transform="translate(-204.223 -232.806)" fill="#444053"/>
    <path id="Path_50" data-name="Path 50" d="M605.029,670.36s-10.394,12.686-2.141,31.865L519.9,738.216l-7.964,1.669-3.668-16.047,2.453-20.251V692.519Z" transform="translate(-331.719 -387.126)" fill="#d5d6db"/>
    <path id="Path_51" data-name="Path 51" d="M59.16,584.329,174.021,563.39l152.2,24.245-94.531,34.034Z" transform="translate(-47.908 -309.293)" fill="#5ab5f1"/>
    <path id="Path_52" data-name="Path 52" d="M59.16,584.329,174.021,563.39l152.2,24.245-94.531,34.034Z" transform="translate(-47.908 -309.293)" fill="#5ab5f1"/>
    <path id="Path_53" data-name="Path 53" d="M142.633,652.47s-10.742,20.352,1.637,39.15L314.6,728.529s-10.573-16.212.546-38.715Z" transform="translate(-131.381 -377.439)" fill="#5ab5f1"/>
    <path id="Path_54" data-name="Path 54" d="M142.633,652.47s-10.742,20.352,1.637,39.15L314.6,728.529s-10.573-16.212.546-38.715Z" transform="translate(-131.381 -377.439)" opacity="0.1"/>
    <path id="Path_55" data-name="Path 55" d="M155.587,667.86s-6.139,14.892,0,24.529" transform="translate(-139.26 -385.772)" opacity="0.1"/>
    <path id="Path_56" data-name="Path 56" d="M321.638,770.436l95.091-40.576s5.318,1.146,1.88,5.043-95.136,39.43-95.136,39.43L151.31,733.528Z" transform="translate(-138.421 -419.346)" fill="#5ab5f1"/>
    <path id="Path_57" data-name="Path 57" d="M321.638,770.436l95.091-40.576s5.318,1.146,1.88,5.043-95.136,39.43-95.136,39.43L151.31,733.528Z" transform="translate(-138.421 -419.346)" opacity="0.1"/>
    <path id="Path_58" data-name="Path 58" d="M501,742.86s-9.17,11,0,27.509" transform="translate(-325.574 -426.386)" opacity="0.1"/>
    <rect id="Rectangle_32" data-name="Rectangle 32" width="43.359" height="0.458" transform="translate(178.688 330.01) rotate(-18.45)" opacity="0.1"/>
    <rect id="Rectangle_33" data-name="Rectangle 33" width="52.832" height="0.458" transform="translate(178.672 333.701) rotate(-20.82)" opacity="0.1"/>
    <rect id="Rectangle_34" data-name="Rectangle 34" width="61.236" height="0.458" transform="translate(178.948 338.052) rotate(-22.26)" opacity="0.1"/>
    <rect id="Rectangle_35" data-name="Rectangle 35" width="70.488" height="0.458" transform="translate(179.609 341.889) rotate(-24.31)" opacity="0.1"/>
    <rect id="Rectangle_36" data-name="Rectangle 36" width="77.095" height="0.458" transform="matrix(0.916, -0.401, 0.401, 0.916, 180.119, 343.756)" opacity="0.1"/>
    <rect id="Rectangle_37" data-name="Rectangle 37" width="92.257" height="0.458" transform="translate(181.185 346.892) rotate(-23.36)" opacity="0.1"/>
    <path id="Path_59" data-name="Path 59" d="M152.23,593.9l80.694-16.964,49.159,9.4-66.123,21.32Z" transform="translate(-98.307 -316.631)" fill="#fff" opacity="0.3"/>
    <path id="Path_60" data-name="Path 60" d="M618.545,659.69s4.172,1.683,1.724,4.282S524,693.724,524,693.724Z" transform="translate(-340.237 -381.348)" fill="#5ab5f1"/>
    <path id="Path_61" data-name="Path 61" d="M704.325,574.18s-10.389,12.682-2.137,31.865L619.2,642.036l-7.964,1.678-3.668-16.047,2.49-20.247V596.339Z" transform="translate(-385.491 -335.044)" fill="#d5d6db"/>
    <path id="Path_62" data-name="Path 62" d="M158.46,488.145,273.316,467.21l152.2,24.245-94.531,34.034Z" transform="translate(-101.68 -257.211)" fill="#3a3768"/>
    <path id="Path_63" data-name="Path 63" d="M241.889,556.29s-10.747,20.352,1.632,39.15L413.85,632.349s-10.568-16.226.564-38.719Z" transform="translate(-185.128 -325.356)" fill="#3a3768"/>
    <path id="Path_64" data-name="Path 64" d="M241.889,556.29s-10.747,20.352,1.632,39.15L413.85,632.349s-10.568-16.226.564-38.719L360.551,581.97Z" transform="translate(-185.128 -325.356)" opacity="0.1"/>
    <path id="Path_65" data-name="Path 65" d="M254.88,571.68s-6.135,14.887,0,24.529" transform="translate(-193.029 -333.69)" opacity="0.1"/>
    <path id="Path_66" data-name="Path 66" d="M420.929,674.256l95.1-40.576s5.314,1.146,1.875,5.043-95.136,39.43-95.136,39.43L250.6,637.348Z" transform="translate(-192.188 -367.264)" fill="#3a3768"/>
    <path id="Path_67" data-name="Path 67" d="M420.929,674.256l95.1-40.576s5.314,1.146,1.875,5.043-95.136,39.43-95.136,39.43L250.6,637.348Z" transform="translate(-192.188 -367.264)" opacity="0.1"/>
    <path id="Path_68" data-name="Path 68" d="M600.287,646.68s-9.17,11,0,27.509" transform="translate(-379.34 -374.303)" opacity="0.1"/>
    <rect id="Rectangle_38" data-name="Rectangle 38" width="43.359" height="0.458" transform="translate(224.214 285.917) rotate(-18.45)" opacity="0.1"/>
    <rect id="Rectangle_39" data-name="Rectangle 39" width="52.832" height="0.458" transform="translate(224.205 289.606) rotate(-20.82)" opacity="0.1"/>
    <rect id="Rectangle_40" data-name="Rectangle 40" width="61.236" height="0.458" transform="translate(224.474 293.951) rotate(-22.26)" opacity="0.1"/>
    <rect id="Rectangle_41" data-name="Rectangle 41" width="70.488" height="0.458" transform="translate(225.14 297.789) rotate(-24.31)" opacity="0.1"/>
    <rect id="Rectangle_42" data-name="Rectangle 42" width="77.095" height="0.458" transform="matrix(0.916, -0.401, 0.401, 0.916, 225.643, 299.65)" opacity="0.1"/>
    <rect id="Rectangle_43" data-name="Rectangle 43" width="92.257" height="0.458" transform="translate(226.713 302.786) rotate(-23.36)" opacity="0.1"/>
    <path id="Path_69" data-name="Path 69" d="M251.53,497.724l80.694-16.964,49.159,9.4-66.123,21.32Z" transform="translate(-152.079 -264.548)" fill="#fff" opacity="0.45"/>
    <path id="Path_70" data-name="Path 70" d="M717.861,563.51s4.168,1.683,1.724,4.278-96.255,29.751-96.255,29.751Z" transform="translate(-394.026 -329.266)" fill="#3a3768"/>
    <path id="Path_71" data-name="Path 71" d="M713.741,464.15S703.347,486.923,711.6,506.1l-82.986,25.9-7.946,1.683L617,517.642l2.453-20.251V486.309Z" transform="translate(-390.598 -275.461)" fill="#d5d6db"/>
    <path id="Path_72" data-name="Path 72" d="M167.89,378.119,282.751,357.18l152.2,24.245-94.536,34.034Z" transform="translate(-106.787 -197.628)" fill="#5ab5f1"/>
    <path id="Path_73" data-name="Path 73" d="M251.348,446.26s-10.761,20.352,1.618,39.15l170.329,36.908s-10.573-16.226.559-38.715Z" transform="translate(-190.245 -265.774)" fill="#5ab5f1"/>
    <path id="Path_74" data-name="Path 74" d="M251.348,446.26s-10.761,20.352,1.618,39.15l170.329,36.908s-10.573-16.226.559-38.715Z" transform="translate(-190.245 -265.774)" opacity="0.1"/>
    <path id="Path_75" data-name="Path 75" d="M264.317,461.65s-6.139,14.892,0,24.529" transform="translate(-198.139 -274.107)" opacity="0.1"/>
    <path id="Path_76" data-name="Path 76" d="M430.368,568.558l95.091-30.49s5.318,1.146,1.88,5.043S432.2,572.456,432.2,572.456L260.04,531.65Z" transform="translate(-197.3 -312.013)" fill="#5ab5f1"/>
    <path id="Path_77" data-name="Path 77" d="M430.368,568.558l95.091-30.49s5.318,1.146,1.88,5.043S432.2,572.456,432.2,572.456L260.04,531.65Z" transform="translate(-197.3 -312.013)" opacity="0.1"/>
    <path id="Path_78" data-name="Path 78" d="M609.727,536.65s-9.17,11,0,27.509" transform="translate(-384.452 -314.721)" opacity="0.1"/>
    <rect id="Rectangle_44" data-name="Rectangle 44" width="43.359" height="0.458" transform="translate(228.544 235.468) rotate(-18.45)" opacity="0.1"/>
    <rect id="Rectangle_45" data-name="Rectangle 45" width="52.832" height="0.458" transform="translate(228.531 239.16) rotate(-20.82)" opacity="0.1"/>
    <rect id="Rectangle_46" data-name="Rectangle 46" width="61.236" height="0.458" transform="translate(228.796 243.507) rotate(-22.26)" opacity="0.1"/>
    <rect id="Rectangle_47" data-name="Rectangle 47" width="70.488" height="0.458" transform="translate(229.469 247.341) rotate(-24.31)" opacity="0.1"/>
    <rect id="Rectangle_48" data-name="Rectangle 48" width="77.095" height="0.458" transform="matrix(0.916, -0.401, 0.401, 0.916, 229.974, 249.206)" opacity="0.1"/>
    <rect id="Rectangle_49" data-name="Rectangle 49" width="92.257" height="0.458" transform="translate(231.042 252.345) rotate(-23.36)" opacity="0.1"/>
    <path id="Path_79" data-name="Path 79" d="M260.96,387.694l80.694-16.964,49.159,9.4-66.123,21.32Z" transform="translate(-157.185 -204.966)" fill="#fff" opacity="0.3"/>
    <path id="Path_80" data-name="Path 80" d="M727.291,453.48s4.172,1.683,1.724,4.282-96.255,29.751-96.255,29.751Z" transform="translate(-399.132 -269.683)" fill="#5ab5f1"/>
    <path id="Path_81" data-name="Path 81" d="M380.631,149.893s-17.423-1.05-15.387,11.173a2.982,2.982,0,0,0,1.55,3.141s.032-.917,1.788-.6a7.818,7.818,0,0,0,1.9.092,3.952,3.952,0,0,0,2.315-.954h0s4.9-2.027,6.809-10.041c0,0,1.412-1.747,1.375-2.2l-2.953,1.256a5.29,5.29,0,0,1,.215,3.888s-.1-3.81-.665-3.723c-.115,0-1.527.738-1.527.738s1.728,3.7.422,6.387c0,0,.5-4.557-.963-6.121l-2.072,1.21s2.022,3.819.651,6.937c0,0,.353-4.782-1.087-6.643l-1.88,1.467s1.9,3.764.743,6.35c0,0-.151-5.566-1.146-5.988a11.33,11.33,0,0,0-1.893,2.045s1.3,2.751.491,4.177c0,0-.491-3.709-.917-3.728a12.342,12.342,0,0,0-1.806,4.126A8.923,8.923,0,0,1,368,158.513a4.911,4.911,0,0,0-2.5,1.3s.252-1.738,2.911-1.889a11.273,11.273,0,0,1,1.715-1.976,10.733,10.733,0,0,0-4.246.486s1.412-1.637,4.727-.917L372.438,154s-3.475-.458-4.952.05c0,0,1.7-1.449,5.451-.394l2.022-1.206a18.372,18.372,0,0,0-4.732-.408s1.862-1,5.323.083l1.44-.646s-2.169-.426-2.806-.5-.669-.243-.669-.243a7.57,7.57,0,0,1,4.081.458A18.2,18.2,0,0,0,380.631,149.893Z" transform="translate(-254.18 -105.275)" fill="#5ab5f1"/>
    <path id="Path_82" data-name="Path 82" d="M915.232,259.473s-17.423-1.05-15.387,11.173a2.982,2.982,0,0,0,1.55,3.141s.032-.917,1.788-.6a8.083,8.083,0,0,0,1.9.092,3.939,3.939,0,0,0,2.293-.954h0s4.906-2.027,6.808-10.041c0,0,1.412-1.747,1.375-2.2l-2.944,1.256a5.29,5.29,0,0,1,.216,3.888s-.1-3.81-.66-3.723c-.115,0-1.531.738-1.531.738s1.728,3.7.426,6.387c0,0,.5-4.557-.967-6.121l-2.072,1.21s2.022,3.819.651,6.937c0,0,.353-4.782-1.087-6.643l-1.875,1.467s1.9,3.764.738,6.35c0,0-.151-5.566-1.146-5.988a11.5,11.5,0,0,0-1.894,2.045s1.3,2.751.5,4.177c0,0-.5-3.709-.917-3.728a12.341,12.341,0,0,0-1.806,4.126,8.893,8.893,0,0,1,1.412-4.374,4.934,4.934,0,0,0-2.508,1.3s.257-1.738,2.911-1.889a11.45,11.45,0,0,1,1.715-1.981,10.777,10.777,0,0,0-4.246.491s1.412-1.637,4.727-.917l1.834-1.513s-3.48-.458-4.952.05c0,0,1.7-1.449,5.452-.394l2.017-1.206a18.371,18.371,0,0,0-4.732-.408s1.862-1,5.323.083l1.444-.646s-2.173-.426-2.811-.5-.669-.243-.669-.243a7.514,7.514,0,0,1,4.081.458A18.5,18.5,0,0,0,915.232,259.473Z" transform="translate(-543.672 -164.614)" fill="#5ab5f1" opacity="0.1"/>
    <path id="Path_83" data-name="Path 83" d="M440.269,302.654s-7.593-15.74-17.258-7.982a2.978,2.978,0,0,0-1.985,2.884s.8-.417,1.376,1.27a8.123,8.123,0,0,0,.844,1.7,3.957,3.957,0,0,0,1.967,1.559h0s4.158,3.292,12.086,1.045c0,0,2.215.381,2.577.115l-2.531-1.958a5.322,5.322,0,0,1-3.292,2.082s3.283-1.939,2.93-2.389c-.073-.092-1.375-.977-1.375-.977s-2.389,3.315-5.369,3.485c0,0,4.218-1.788,4.869-3.828l-2.063-1.22s-2.352,3.631-5.74,3.952c0,0,4.346-2.022,5.268-4.186l-2.192-.917s-2.361,3.494-5.186,3.746c0,0,4.787-2.847,4.667-3.925a11.621,11.621,0,0,0-2.71-.656s-1.751,2.471-3.4,2.471c0,0,2.994-2.242,2.811-2.6a12.1,12.1,0,0,0-4.493.458,8.926,8.926,0,0,1,4.507-.917,4.938,4.938,0,0,0-2.357-1.554s1.641-.623,3.067,1.618a11.31,11.31,0,0,1,2.563.532,10.765,10.765,0,0,0-2.494-3.462s2.118.426,3.086,3.668l2.224.88s-1.279-3.264-2.457-4.3c0,0,2.091.775,3,4.585L435.244,299a18.142,18.142,0,0,0-1.949-4.328s1.784,1.137,2.522,4.686l1.27.944s-.688-2.1-.917-2.691-.115-.706-.115-.706a7.524,7.524,0,0,1,1.6,3.783A17.1,17.1,0,0,0,440.269,302.654Z" transform="translate(-284.474 -182.523)" fill="#5ab5f1" opacity="0.1"/>
    <path id="Path_84" data-name="Path 84" d="M824.049,199.034s-7.588-15.74-17.258-7.982a2.983,2.983,0,0,0-1.985,2.884s.807-.413,1.375,1.27a7.95,7.95,0,0,0,.848,1.7,3.933,3.933,0,0,0,1.962,1.554h0s4.163,3.292,12.086,1.05c0,0,2.214.376,2.581.11l-2.517-1.962a5.319,5.319,0,0,1-3.287,2.086s3.278-1.944,2.925-2.393c-.073-.092-1.375-.977-1.375-.977s-2.384,3.315-5.369,3.484c0,0,4.223-1.788,4.874-3.824l-2.1-1.21s-2.348,3.627-5.74,3.952c0,0,4.346-2.027,5.273-4.191l-2.2-.917s-2.361,3.5-5.181,3.746c0,0,4.782-2.847,4.663-3.92a11.338,11.338,0,0,0-2.705-.656s-1.751,2.467-3.406,2.467c0,0,3-2.242,2.815-2.6a12.123,12.123,0,0,0-4.5.458,8.922,8.922,0,0,1,4.507-.917,4.909,4.909,0,0,0-2.352-1.554s1.641-.624,3.067,1.618a11.349,11.349,0,0,1,2.563.536,10.73,10.73,0,0,0-2.5-3.466s2.118.431,3.086,3.691l2.228.88s-1.279-3.269-2.457-4.3c0,0,2.091.775,3,4.585l2.04,1.174a18.316,18.316,0,0,0-1.953-4.328s1.788,1.137,2.522,4.686l1.27.944s-.683-2.1-.917-2.691-.115-.7-.115-.7a7.543,7.543,0,0,1,1.591,3.783A17.611,17.611,0,0,0,824.049,199.034Z" transform="translate(-492.295 -126.412)" fill="#5ab5f1" opacity="0.1"/>
    <path id="Path_85" data-name="Path 85" d="M876.923,368.839s-7.588-15.745-17.271-7.987a2.984,2.984,0,0,0-1.985,2.884s.807-.413,1.376,1.27a7.943,7.943,0,0,0,.844,1.7,3.934,3.934,0,0,0,1.962,1.554h0s4.163,3.3,12.09,1.05c0,0,2.21.381,2.577.11l-2.531-1.958a5.32,5.32,0,0,1-3.292,2.086s3.278-1.944,2.925-2.393c-.073-.092-1.375-.977-1.375-.977s-2.384,3.315-5.369,3.489c0,0,4.223-1.793,4.874-3.828l-2.068-1.22s-2.347,3.631-5.74,3.952c0,0,4.346-2.027,5.272-4.191l-2.2-.917s-2.361,3.494-5.181,3.746c0,0,4.787-2.847,4.667-3.925a11.391,11.391,0,0,0-2.71-.656s-1.751,2.467-3.407,2.467c0,0,3-2.242,2.815-2.6a12.124,12.124,0,0,0-4.5.459,8.95,8.95,0,0,1,4.512-.917,4.9,4.9,0,0,0-2.357-1.554s1.641-.628,3.067,1.619a11.307,11.307,0,0,1,2.563.532,10.814,10.814,0,0,0-2.494-3.466s2.118.431,3.086,3.691l2.224.88s-1.279-3.269-2.457-4.3c0,0,2.091.77,3,4.585l2.04,1.169a18.309,18.309,0,0,0-1.953-4.328s1.788,1.137,2.526,4.69l1.27.917s-.688-2.1-.917-2.691-.115-.7-.115-.7a7.5,7.5,0,0,1,1.591,3.783A18.566,18.566,0,0,0,876.923,368.839Z" transform="translate(-520.919 -218.361)" fill="#5ab5f1" opacity="0.1"/>
    <ellipse id="Ellipse_1" data-name="Ellipse 1" cx="10.541" cy="1.178" rx="10.541" ry="1.178" transform="translate(66.179 352.961)" fill="#5ab5f1" opacity="0.1"/>
    <ellipse id="Ellipse_2" data-name="Ellipse 2" cx="10.541" cy="1.178" rx="10.541" ry="1.178" transform="translate(-2.92 332.934)" fill="#5ab5f1" opacity="0.1"/>
    <ellipse id="Ellipse_3" data-name="Ellipse 3" cx="10.541" cy="1.178" rx="10.541" ry="1.178" transform="translate(118.85 366.262)" fill="#5ab5f1" opacity="0.1"/>
    <ellipse id="Ellipse_4" data-name="Ellipse 4" cx="10.541" cy="1.178" rx="10.541" ry="1.178" transform="translate(388.762 337.29)" fill="#5ab5f1" opacity="0.1"/>
    <ellipse id="Ellipse_5" data-name="Ellipse 5" cx="10.541" cy="1.178" rx="10.541" ry="1.178" transform="translate(301.049 331.572)" fill="#5ab5f1" opacity="0.1"/>
    <ellipse id="Ellipse_6" data-name="Ellipse 6" cx="12.466" cy="2.141" rx="12.466" ry="2.141" transform="translate(242.381 357.532)" fill="#5ab5f1" opacity="0.1"/>
    <path id="Path_86" data-name="Path 86" d="M678.222,790.14s-17.358,8.968-8.39,19.532a3.355,3.355,0,0,0,3.283,2.132s-.486-.889,1.375-1.6a8.945,8.945,0,0,0,1.875-.995,4.407,4.407,0,0,0,1.678-2.242h0s3.549-4.75.8-13.539c0,0,.358-2.485.046-2.888l-2.109,2.893a5.907,5.907,0,0,1,2.43,3.613s-2.292-3.608-2.751-3.21c-.1.083-1.045,1.582-1.045,1.582s3.778,2.563,4.058,5.891c0,0-2.127-4.663-4.424-5.328l-1.316,2.348s4.126,2.512,4.585,6.29c0,0-2.4-4.791-4.846-5.759l-.967,2.48s3.98,2.531,4.346,5.676c0,0-3.329-5.259-4.525-5.094a12.709,12.709,0,0,0-.651,3.049s2.811,1.88,2.861,3.728c0,0-2.595-3.278-2.994-3.063,0,0-.165,3.3.633,5.011a9.894,9.894,0,0,1-1.151-5.011,5.5,5.5,0,0,0-1.664,2.678s-.747-1.811,1.715-3.48a12.686,12.686,0,0,1,.518-2.879,12.086,12.086,0,0,0-3.8,2.9s.417-2.38,4.03-3.562l.917-2.513s-3.613,1.531-4.727,2.879c0,0,.8-2.361,5.011-3.494l1.247-2.292a21.05,21.05,0,0,0-4.777,2.292s1.215-2.031,5.163-2.966l1.013-1.444s-2.329.83-2.98,1.128-.779.151-.779.151a8.431,8.431,0,0,1,4.177-1.9S678.382,790.3,678.222,790.14Z" transform="translate(-417.814 -451.988)" fill="#5ab5f1"/>
    <path id="Path_87" data-name="Path 87" d="M619.874,216.407c-3-8.147-19.5-8.913-26.666-6.836-5.089,1.481-15.818,3.15-21.549,3.989l-.371-.353c.743-.22.761-.761.669-1.563a24.462,24.462,0,0,1,.046-3.173c3.512,1.091,6.639-1.49,6.639-1.49h0c4.126-1.834,3.017-9.683,3.805-11.829.591-1.6,1.229-11.059,1.513-15.772h.06l.032-1.582c.041-.683.06-1.082.06-1.082s.4-11.526,1.192-13.86c.733-2.146,1.33-12.957,1.421-14.672v-.225l-.06-1c.041-.729.06-1.54.055-2.393,0-3.92-.408-8.858-.458-9.656v-.417c.032-1.673-.179-10.055-7.308-13.223-2.627-1.174-5.786-2.572-8.844-3.934-.789-6.809-2.59-13.58-2.435-20.439,0-1.032.092-2.063.193-3.09,0,.3-.032.6-.037.917v2c.27-8.578,3.512-17.2,3.209-25.6-.027.821-.087,1.646-.165,2.471a26.651,26.651,0,0,0-.88-8.432,4.988,4.988,0,0,0-1.44-2.613,5.928,5.928,0,0,0-2.512-.995,50.531,50.531,0,0,0-6.6-1.229,10.185,10.185,0,0,0-1.485-2.884c-4.649-6.382-11.536-12.379-19.678-13.755C534.2,43,529.5,43.575,526.719,46.5a8.673,8.673,0,0,0-.816.825c-1.495,1.784-2.136,4.126-3.668,5.905-.1.119-.215.229-.326.344-3,2.682-7.671,3.242-11,5.649a13.207,13.207,0,0,0-1.646,1.435,27.906,27.906,0,0,0-3.595,4.369c-1.5,2.109-3.04,4.305-3.517,6.822-.958,5.043,2.476,9.825,3.113,14.9,1.421,11.357-11.146,21.434-8.766,32.64a14.947,14.947,0,0,0,4.044,7.258c-4.9,4.438-9.074,8.743-9.074,8.743v.257h-.775l.078.917h-.078l.426,4.975-.426,7.244v.683h.028c.142,2.655.706,12.2,1.375,14.213.789,2.334,1.188,13.86,1.188,13.86s.871,16.29,1.669,18.445-.335,9.981,3.805,11.829h0a8.711,8.711,0,0,0,4.158,1.724c-.211,1.715-.078,2.957.605,3.347a2,2,0,0,0,.963.275,10.213,10.213,0,0,0-.747,1.307,19.42,19.42,0,0,1-4.8-1.132c-4.447-1.834-19.206-5.96-23.493-3.058s-14.6,5.534-9.839,17.216,6.983,11.976,6.983,11.976a16.965,16.965,0,0,1,3.81,3.828c1.43,2.15,14.759,7.07,18.092,7.07a32.639,32.639,0,0,1,4.241.211s-3.617,3.173-3.136,5.016-1.1,16.6-1.1,16.6,3.668,3.7,5.236-1.151l.055.073c.293.4,1.88,2.2,4.865-.073a27.27,27.27,0,0,1,3.879-2.458l14.452-2.045a40.9,40.9,0,0,1,4.525-.032c2.292.188,4.544-1.169,5.96-2.219,2.994,1.137,6.359,2.38,7.959,2.833,3.246.917,18.165,4.92,21.654,3.668a4.846,4.846,0,0,0,1.88-1.339l3.329.105-1.559.312s3.035.05,7.162.105l-.174.1,5.176-.046c7.574.069,16.084.092,17.2-.16,1.751-.39,10.852-.115,13.535,0h.747s10-1.994,5.873-12.141c-3.173-7.794-12.925-10.059-17.253-10.683,1.219-.243,2.269-.431,2.966-.541,3.021-.458,8.89-3.209,9.367-4.149s5.4-3.668,6.666-5.222S622.887,224.555,619.874,216.407Zm-82.826,22.8-.491.16-.33.11-.633.624c-.5-.339-1.045-.7-1.609-1.064C534.981,239.1,536,239.157,537.048,239.208Zm43.7,12.92Z" transform="translate(-307.946 -47.635)" fill="url(#linear-gradient)"/>
    <path id="Path_88" data-name="Path 88" d="M686.65,298.215s7.015,18.34,11,16.506,2.907-9.628,3.668-11.765,1.6-18.34,1.6-18.34.385-11.462,1.146-13.782c.706-2.132,1.279-12.884,1.376-14.575v-.225l-.757-13.3-4.282-1.068-9.931,3.668-1.376,7.854-.536,3.067-.229,1.307Z" transform="translate(-428.314 -154.986)" fill="#be6f72"/>
    <path id="Path_89" data-name="Path 89" d="M691.69,358.3s6.694,5.479,8.711,5.96,3.255,4.755,3.255,4.755" transform="translate(-431.043 -218.142)" opacity="0.1"/>
    <path id="Path_90" data-name="Path 90" d="M544.8,299.965s-7.015,18.34-11,16.506-2.907-9.628-3.668-11.765-1.6-18.34-1.6-18.34-.385-11.462-1.146-13.782c-.706-2.132-1.279-12.884-1.376-14.575v-.225l.761-13.3,4.282-1.068,9.931,3.668,1.375,7.854.536,3.067.229,1.307Z" transform="translate(-341.32 -155.933)" fill="#be6f72"/>
    <rect id="Rectangle_50" data-name="Rectangle 50" width="15.657" height="24.405" transform="translate(233.5 45.888)" fill="#3e373a"/>
    <rect id="Rectangle_51" data-name="Rectangle 51" width="15.657" height="24.405" transform="translate(233.5 45.888)" opacity="0.1"/>
    <path id="Path_91" data-name="Path 91" d="M556.5,404.867s-5.35,5.882-3.365,6.951,14.828,21.091,14.828,21.091,42.181,5.195,50.136-2.6S625.9,408.59,625.9,408.59s-6.391,1.375-7.088.628-4.525-4.351-4.525-4.351S560.172,401.584,556.5,404.867Z" transform="translate(-355.777 -242.569)" fill="#4b4b5b"/>
    <path id="Path_92" data-name="Path 92" d="M556.5,404.867s-5.35,5.882-3.365,6.951,14.828,21.091,14.828,21.091,42.181,5.195,50.136-2.6S625.9,408.59,625.9,408.59s-6.391,1.375-7.088.628-4.525-4.351-4.525-4.351S560.172,401.584,556.5,404.867Z" transform="translate(-355.777 -242.569)" opacity="0.02"/>
    <path id="Path_93" data-name="Path 93" d="M618.881,194.58l-13.755,11-4.159.3-1.527.11-25.643,1.88-26.592-1.944-3.957-.289-5.043-.367L527.66,195.19a180.588,180.588,0,0,1,14-13.392,28.726,28.726,0,0,1,6.786-4.534l.3-.105a7.547,7.547,0,0,0,2.907-2.027c5.163-5.323,9.935-18.459,9.935-18.459s22.773-11.765,20.022,3.668,10.238,11.618,10.238,11.618l4.282,1.953,1.692.775,4.314,1.976,9.734,4.466C619.514,184.645,618.881,194.58,618.881,194.58Z" transform="translate(-342.219 -106.635)" fill="#be6f72"/>
    <circle id="Ellipse_7" data-name="Ellipse 7" cx="20.481" cy="20.481" r="20.481" transform="translate(210.03 21.643)" opacity="0.1"/>
    <path id="Path_94" data-name="Path 94" d="M618.014,238.4H526v-.225l.761-13.3a180.581,180.581,0,0,1,14-13.392l57.77-2.292,2.687-2.833,9.734,4.466c7.643,3.512,7.029,13.447,7.029,13.447S619.027,235.786,618.014,238.4Z" transform="translate(-341.32 -135.865)" opacity="0.1"/>
    <path id="Path_95" data-name="Path 95" d="M618.014,237.4H526v-.225l.761-13.3a180.583,180.583,0,0,1,14-13.392l57.77-2.292,2.687-2.833,9.734,4.466c7.643,3.512,7.029,13.447,7.029,13.447S619.027,234.786,618.014,237.4Z" transform="translate(-341.32 -135.323)" fill="#e7c7ca"/>
    <path id="Path_96" data-name="Path 96" d="M587.021,189.189s14.516,18.5,33.85-.381,2.141,42.1,2.141,42.1l-41.722,4.952Z" transform="translate(-371.26 -124.397)" opacity="0.1"/>
    <path id="Path_97" data-name="Path 97" d="M587.021,191.189s14.516,18.5,33.85-.381,2.141,42.1,2.141,42.1l-41.722,4.952Z" transform="translate(-371.26 -125.48)" fill="#e7c7ca"/>
    <path id="Path_98" data-name="Path 98" d="M610.734,202.106l1.536,23.424,1.646,7.794,1.256,5.96s3.209,45.849,2.292,48.141.458,4.126.651,5.346-.193,4.282-.041,5.658,0,1.985-3.512,1.495-8.409-1.343-8.409-1.343-12.379.917-16.657-.61-12.379-1.531-12.379-1.531-12.228.307-16.2-.151-6.116,4.892-8.711,3.361,3.054-16.35,4.888-20.632-2.444-15.13-2.444-15.13l5.5-30.522,1.224-6.919V204.7l.3-.105a7.547,7.547,0,0,0,2.907-2.027l1.375,21.888,43.1,1.531V201.35" transform="translate(-355.149 -133.152)" opacity="0.1"/>
    <path id="Path_99" data-name="Path 99" d="M610.734,200.107l1.536,23.424,1.646,7.794,1.256,5.96s3.209,45.849,2.292,48.141.458,4.126.651,5.346-.193,4.282-.041,5.658,0,1.985-3.512,1.495-8.409-1.343-8.409-1.343-12.379.917-16.657-.61-12.379-1.531-12.379-1.531-12.228.307-16.2-.151-6.116,4.892-8.711,3.361,3.054-16.35,4.888-20.632-2.444-15.13-2.444-15.13l5.5-30.522,1.224-6.919V202.7l.3-.105a7.547,7.547,0,0,0,2.907-2.027l1.375,21.888,43.1,1.531V199.35" transform="translate(-355.149 -132.069)" fill="#e7c7ca"/>
    <path id="Path_100" data-name="Path 100" d="M608.116,68.864a5.052,5.052,0,0,0-1.375-2.6,5.63,5.63,0,0,0-2.421-.99,47.827,47.827,0,0,0-6.364-1.22,10.186,10.186,0,0,0-1.375-2.856c-4.493-6.345-11.141-12.329-18.963-13.681-4.094-.711-8.84-.073-11.462,3.154-1.44,1.774-2.059,4.126-3.512,5.869-2.8,3.384-7.858,3.8-11.389,6.419a21.1,21.1,0,0,0-4.585,5.3c-1.444,2.1-2.93,4.278-3.388,6.781-.917,5,2.389,9.77,3,14.818,1.375,11.293-10.729,21.311-8.441,32.452,1.334,6.5,7.336,11.072,13.544,13.392,2.187.821,4.686,1.637,5.708,3.737.458.917.536,1.976.967,2.9,1.449,3.09,6.212,3.209,8.771.958s3.365-5.892,3.668-9.289c1.229-14.837-4.713-29.495-4.021-44.368.206-4.5,1.472-9.6,5.5-11.636,5.424-2.751,11.948,1.834,17.918.958a35.548,35.548,0,0,1,1.715,21.691c-.949,3.957-2.59,7.794-2.71,11.875-.179,6.213,3.173,11.889,6.07,17.381a9.246,9.246,0,0,1,1.224,3.352,8.076,8.076,0,0,1-.656,3.507c-1.637,4.406-4.461,8.5-4.782,13.186a2.132,2.132,0,0,0,.344,1.568,1.972,1.972,0,0,0,1.183.532c4.952.848,9.234-3.54,11.65-7.946a37.247,37.247,0,0,0,4.594-15.827c.5-9.335-2.847-18.518-2.641-27.862C606.126,89.807,610.927,79.111,608.116,68.864Z" transform="translate(-347.575 -49.71)" opacity="0.1"/>
    <path id="Path_101" data-name="Path 101" d="M609.116,67.864a5.052,5.052,0,0,0-1.376-2.6,5.63,5.63,0,0,0-2.421-.99,47.829,47.829,0,0,0-6.364-1.22,10.186,10.186,0,0,0-1.376-2.856c-4.493-6.345-11.141-12.329-18.963-13.681-4.094-.711-8.84-.073-11.462,3.154-1.44,1.774-2.059,4.126-3.512,5.869-2.8,3.384-7.859,3.8-11.389,6.419a21.1,21.1,0,0,0-4.585,5.3c-1.444,2.1-2.93,4.278-3.388,6.781-.917,5,2.389,9.77,3,14.818,1.375,11.293-10.729,21.311-8.441,32.452,1.334,6.5,7.336,11.073,13.544,13.392,2.187.821,4.686,1.637,5.708,3.737.458.917.536,1.976.967,2.9,1.449,3.09,6.212,3.209,8.771.958s3.365-5.892,3.668-9.289c1.229-14.837-4.713-29.495-4.021-44.368.206-4.5,1.472-9.6,5.5-11.636,5.424-2.751,11.948,1.834,17.918.958a35.547,35.547,0,0,1,1.715,21.691c-.949,3.957-2.591,7.794-2.71,11.875-.179,6.213,3.173,11.889,6.07,17.381a9.249,9.249,0,0,1,1.224,3.352,8.08,8.08,0,0,1-.656,3.507c-1.637,4.406-4.461,8.5-4.782,13.186a2.131,2.131,0,0,0,.344,1.568,1.971,1.971,0,0,0,1.183.532c4.952.848,9.234-3.54,11.65-7.946a37.248,37.248,0,0,0,4.594-15.827c.5-9.335-2.847-18.518-2.641-27.862C607.126,88.807,611.927,78.111,609.116,67.864Z" transform="translate(-348.116 -49.169)" fill="#3e373a"/>
    <path id="Path_102" data-name="Path 102" d="M581.79,477.486l18.188.582-2.609-13.489-13.934,1.325Z" transform="translate(-330.918 -255.786)" fill="#c3c7d9"/>
    <path id="Path_103" data-name="Path 103" d="M693.473,432.854c-1.224,1.527-5.96,4.278-6.419,5.195s-6.112,3.668-9.018,4.126-12.072,2.448-13.755,3.517c-1.206.77-10.884,3.209-17.244,4.562a48.923,48.923,0,0,1-5.222.94c-2.751.151-32.855-10.087-32.855-10.087l5.8-5.96.321-.11c1.641-.555,9.225-3.118,13.434-4.337,4.741-1.375,10.243-7.029,10.243-7.029s8.1-2.751,9.17-3.058-2.751-10.7-2.751-10.7,17.574-2.439,24.451-4.507,22.773-1.3,25.675,6.8S694.716,431.327,693.473,432.854Z" transform="translate(-386.244 -243.124)" fill="#4b4b5b"/>
    <path id="Path_104" data-name="Path 104" d="M572.776,503.618s-3.512,3.668-7.029,3.365-15.813.917-15.813.917a24.65,24.65,0,0,0-6.194,3.59c-2.875,2.265-4.4.459-4.686.073l-.05-.073c-1.531,4.819-5.043,1.146-5.043,1.146s1.527-14.672,1.059-16.506,3.021-4.984,3.021-4.984l4.126-1.05,10.453-2.678,14.979,5.195Z" transform="translate(-345.631 -288.062)" fill="#e7c7ca"/>
    <path id="Path_105" data-name="Path 105" d="M542.149,493.26l-3.095,21.466-.05-.073c-1.531,4.819-5.043,1.146-5.043,1.146s1.527-14.672,1.059-16.506,3.021-4.984,3.021-4.984Z" transform="translate(-345.631 -291.225)" opacity="0.1"/>
    <path id="Path_106" data-name="Path 106" d="M599,360.08s8.1,2.751,15.13,0" transform="translate(-380.851 -219.106)" opacity="0.1"/>
    <path id="Path_107" data-name="Path 107" d="M659.29,371.42s3.361,1.678,5.96,0" transform="translate(-413.498 -225.247)" opacity="0.1"/>
    <path id="Path_108" data-name="Path 108" d="M659.29,379.19s5.653.757,6.726-.77" transform="translate(-413.498 -229.037)" opacity="0.1"/>
    <path id="Path_109" data-name="Path 109" d="M655.29,394.959s10.619-1.376,13.255-3.209" transform="translate(-411.332 -236.256)" opacity="0.1"/>
    <path id="Path_110" data-name="Path 110" d="M584.62,391.75s5.96,3.361,10.394,3.209" transform="translate(-373.064 -236.256)" opacity="0.1"/>
    <path id="Path_111" data-name="Path 111" d="M647.027,486.4a48.945,48.945,0,0,1-5.222.94c-2.751.151-32.855-10.087-32.855-10.087l5.8-5.96.321-.11c.917.646,1.669,1.2,2.205,1.623,2.526,1.99,4.965-.61,5.882-.61s8.863,6.57,8.863,6.57,7.336,1.683,8.56,3.209,5.5,1.224,6.263,2.292A4.089,4.089,0,0,1,647.027,486.4Z" transform="translate(-386.238 -279.268)" opacity="0.1"/>
    <path id="Path_112" data-name="Path 112" d="M515.683,411.342s-7.418.426-11.7-1.375-18.491-5.96-22.617-3.04-14.062,5.5-9.477,17.12,6.726,11.921,6.726,11.921a16.554,16.554,0,0,1,3.668,3.806c1.375,2.141,14.213,7.029,17.423,7.029s8.863,0,16.808,5.5a34.545,34.545,0,0,0,15.13,6.116s10.087,4.126,13.227,5.043,17.491,4.887,20.857,3.668,5.5-8.867,5.5-8.867,1.527-6.877.761-7.946-5.043-.766-6.263-2.292-8.56-3.209-8.56-3.209-7.927-6.575-8.844-6.575-3.356,2.6-5.882.61a134.2,134.2,0,0,0-15.822-10.087C520.818,425.706,515.683,411.342,515.683,411.342Z" transform="translate(-311.38 -243.927)" fill="#4b4b5b"/>
    <path id="Path_113" data-name="Path 113" d="M536.27,427.211a8.757,8.757,0,0,1,7.515,1.985c3.668,3.058,16.01,9.2,16.01,9.2" transform="translate(-346.882 -255.362)" opacity="0.1"/>
    <path id="Path_114" data-name="Path 114" d="M713.368,427s-16.354,2.476-19.408,5.837" transform="translate(-432.272 -255.344)" opacity="0.1"/>
    <path id="Path_115" data-name="Path 115" d="M727.65,510.344h-.72c-2.586-.092-11.348-.367-13.035,0-1.985.458-28.275,0-28.275,0l5.14-1.068s-1.907-6.685-.7-7.24c0,0-6.877-4.53-1.692-7.588a16.086,16.086,0,0,1,10.774-1.77l13.017-4.411,2.5-.848s14.672.766,18.642,10.852S727.65,510.344,727.65,510.344Z" transform="translate(-427.756 -288.062)" fill="#e7c7ca"/>
    <path id="Path_116" data-name="Path 116" d="M759,510.371h-.72c4.269-3.521,13.924-14.241-14.768-22.053l2.5-.848s14.672.766,18.642,10.852S759,510.371,759,510.371Z" transform="translate(-459.104 -288.089)" opacity="0.1"/>
    <circle id="Ellipse_8" data-name="Ellipse 8" cx="0.802" cy="0.802" r="0.802" transform="translate(272.118 208.794)" fill="#4b4b5b"/>
    <circle id="Ellipse_9" data-name="Ellipse 9" cx="0.802" cy="0.802" r="0.802" transform="translate(267.455 210.119)" fill="#4b4b5b"/>
    <g id="Group_9" data-name="Group 9" transform="translate(190.559 24.623)" opacity="0.1">
      <path id="Path_117" data-name="Path 117" d="M627.909,123.245a35.572,35.572,0,0,0-2.632-14.736c-5.96.889-12.489-3.709-17.918-.958-4.016,2.036-5.277,7.139-5.5,11.636-.055,1.187-.064,2.375-.041,3.562,0-.422,0-.848.041-1.27.211-4.5,1.472-9.6,5.5-11.636,5.429-2.751,11.948,1.834,17.918.958A35.476,35.476,0,0,1,627.909,123.245Z" transform="translate(-572.928 -106.501)"/>
      <path id="Path_118" data-name="Path 118" d="M554.211,123.493a15.289,15.289,0,0,0-.06-3c-.486-4.035-2.691-7.891-3.09-11.824-.513,4.745,2.508,9.3,3.09,14.117A2.867,2.867,0,0,1,554.211,123.493Z" transform="translate(-545.418 -107.588)"/>
      <path id="Path_119" data-name="Path 119" d="M571.773,214.814c-.284,3.4-1.087,7.038-3.668,9.294s-7.336,2.132-8.771-.958c-.458-.917-.527-1.985-.972-2.9-1.018-2.1-3.521-2.916-5.708-3.737-6.213-2.325-12.205-6.877-13.539-13.392a14.067,14.067,0,0,1-.243-1.788,14.45,14.45,0,0,0,.243,4.081c1.334,6.5,7.336,11.068,13.539,13.392,2.187.821,4.69,1.637,5.708,3.737.458.917.536,1.976.972,2.9,1.444,3.09,6.208,3.209,8.771.958s3.361-5.892,3.668-9.294a52.378,52.378,0,0,0,.142-5.383C571.915,212.765,571.856,213.792,571.773,214.814Z" transform="translate(-538.823 -157.764)"/>
      <path id="Path_120" data-name="Path 120" d="M687.93,129.775v1.985c.257-8.528,3.384-17.1,3.077-25.451C690.768,114.031,688.1,121.926,687.93,129.775Z" transform="translate(-619.566 -106.31)"/>
      <path id="Path_121" data-name="Path 121" d="M657.976,208.151a5.906,5.906,0,0,0,.105-1.655,9.167,9.167,0,0,0-1.224-3.352c-2.65-5.043-5.672-10.206-6.029-15.8,0,.238-.032.458-.037.715-.183,6.208,3.168,11.889,6.066,17.381A11,11,0,0,1,657.976,208.151Z" transform="translate(-599.451 -150.189)"/>
      <path id="Path_122" data-name="Path 122" d="M672.611,217.177A37.307,37.307,0,0,1,667.985,233c-2.421,4.406-6.7,8.794-11.655,7.946a1.948,1.948,0,0,1-1.183-.536,1.144,1.144,0,0,1-.215-.358c-.055.358-.1.72-.129,1.087a2.114,2.114,0,0,0,.344,1.563,1.949,1.949,0,0,0,1.183.536c4.956.848,9.234-3.54,11.655-7.946a37.307,37.307,0,0,0,4.626-15.827c.055-1.073.06-2.141.028-3.209C672.629,216.567,672.629,216.87,672.611,217.177Z" transform="translate(-601.611 -165.849)"/>
    </g>
    <path id="Path_123" data-name="Path 123" d="M695.31,512.325s11.6,4.869,19.257-5.905" transform="translate(-433.004 -298.351)" fill="none" stroke="#000" stroke-miterlimit="10" stroke-width="1" opacity="0.1"/>
    <path id="Path_124" data-name="Path 124" d="M700.29,534.554s9.477-6.162,21.549-.2" transform="translate(-435.7 -312.07)" fill="none" stroke="#000" stroke-miterlimit="10" stroke-width="1" opacity="0.1"/>
    <path id="Path_125" data-name="Path 125" d="M561.93,529.253s3.98-8.977,14.607-2.132" transform="translate(-360.777 -308.167)" fill="none" stroke="#000" stroke-miterlimit="10" stroke-width="1" opacity="0.1"/>
    <path id="Path_126" data-name="Path 126" d="M533.79,234.655l8.115-7.336s31.466-2.063,32.768,8.633c0,0,11.155-12.682,34.616-9.857l9.926,7.9L591.78,246.04l-26.661,9.248L545.481,246.5Z" transform="translate(-345.539 -146.33)" opacity="0.1"/>
    <path id="Path_127" data-name="Path 127" d="M533.79,235.655l8.115-7.336s31.466-2.063,32.768,8.633c0,0,11.155-12.682,34.616-9.858l9.926,7.9L591.78,247.04l-26.661,9.248L545.481,247.5Z" transform="translate(-345.539 -146.871)" fill="#d5d6db"/>
    <path id="Path_128" data-name="Path 128" d="M437.38,204.83l3.59,42.947,38.055,1.912-1.651-42.763-.032-.72Z" transform="translate(-252.719 -115.129)" opacity="0.1"/>
    <path id="Path_129" data-name="Path 129" d="M437.38,202.83l3.59,42.947,38.055,1.912-1.651-42.763-.032-.72Z" transform="translate(-252.719 -114.046)" fill="#5ab5f1"/>
    <path id="Path_130" data-name="Path 130" d="M588.966,202.83l-39.256,5.887v43.139l38.362-5.543Z" transform="translate(-313.547 -114.046)" opacity="0.1"/>
    <path id="Path_131" data-name="Path 131" d="M588.966,200.83l-39.256,5.887v43.139l38.362-5.543Z" transform="translate(-313.547 -112.963)" fill="#5ab5f1"/>
    <path id="Path_132" data-name="Path 132" d="M590.1,223.79l-21.205,2.357.463,7.226,20.728-2.265Z" transform="translate(-323.933 -125.396)" fill="#fff" opacity="0.3"/>
    <path id="Path_133" data-name="Path 133" d="M537.2,344.907l2.159,5.809s3.209,2.751,6.721,1.375,6.575-2.059,8.1-3.4,3.668-8.065,3.668-8.065,2.141-7.336,4.278-9.17,7.794-27.1,0-24.63-13.755,25.4-13.755,25.4a5.436,5.436,0,0,1-3.361,1.834c-1.985.156-5.96-.307-6.726,1.375S534.909,341.546,537.2,344.907Z" transform="translate(-346.887 -190.178)" fill="#be6f72"/>
    <path id="Path_134" data-name="Path 134" d="M624.693,255.69a13.2,13.2,0,0,1-11.513-2.87l1.655,42.759a11.669,11.669,0,0,0,9.858,3.255Z" transform="translate(-388.529 -161.024)" opacity="0.1"/>
    <path id="Path_135" data-name="Path 135" d="M624.693,253.69a13.2,13.2,0,0,1-11.513-2.87l1.655,42.759a11.669,11.669,0,0,0,9.858,3.255Z" transform="translate(-388.529 -159.941)" fill="#5ab5f1"/>
    <path id="Path_136" data-name="Path 136" d="M624.693,253.69a13.2,13.2,0,0,1-11.513-2.87l1.655,42.759a11.669,11.669,0,0,0,9.858,3.255Z" transform="translate(-388.529 -159.941)" opacity="0.1"/>
    <path id="Path_137" data-name="Path 137" d="M640.29,241.537s15.969-4.883,20.132-4.2" transform="translate(-403.209 -152.606)" opacity="0.1"/>
    <path id="Path_138" data-name="Path 138" d="M579.994,238.6s-15.479-3.668-18.064-2.627" transform="translate(-360.777 -151.799)" opacity="0.1"/>
    <path id="Path_139" data-name="Path 139" d="M662.25,244.881s10.678-3.915,14.539-2.054" transform="translate(-415.101 -155.341)" opacity="0.1"/>
    <path id="Path_140" data-name="Path 140" d="M650.52,452.643a35.1,35.1,0,0,1,5.264-3.269,85.871,85.871,0,0,0,7.794-4.764" transform="translate(-408.749 -264.88)" opacity="0.1"/>
    <path id="Path_141" data-name="Path 141" d="M547.8,360.08s-6.7,5.479-8.711,5.96-3.255,4.754-3.255,4.754" transform="translate(-346.643 -219.106)" opacity="0.1"/>
    <path id="Path_142" data-name="Path 142" d="M681.186,343.143l-2.137,5.823s-3.209,2.751-6.726,1.376-6.57-2.059-8.1-3.4-3.668-8.065-3.668-8.065-2.137-7.336-4.278-9.17-7.794-27.1,0-24.63,13.755,25.4,13.755,25.4a5.436,5.436,0,0,0,3.361,1.834c1.985.156,5.96-.307,6.726,1.375S683.479,339.8,681.186,343.143Z" transform="translate(-409.706 -189.23)" fill="#be6f72"/>
    <path id="Path_143" data-name="Path 143" d="M707.15,364.94s4.379,2.815,4.36,6.18" transform="translate(-439.415 -221.738)" opacity="0.1"/>
    <circle id="Ellipse_10" data-name="Ellipse 10" cx="20.481" cy="20.481" r="20.481" transform="translate(210.103 20.639)" fill="#be6f72"/>
    <path id="Path_144" data-name="Path 144" d="M586.092,104.8c2.485-.39,4.663-1.834,7.038-2.664,5.314-1.866,11.192-.587,16.57,1.1a21.489,21.489,0,0,0,6.323,1.375,6.4,6.4,0,0,0,5.566-2.751,6.219,6.219,0,0,0-.037-5.745,16.179,16.179,0,0,0-3.741-4.617c-4.768-4.5-10.683-8.711-17.225-8.253a23.706,23.706,0,0,0-7.57,2.169,83.446,83.446,0,0,0-8.885,4.475c-2.205,1.279-6.291,2.989-7.56,5.328C573.681,100.479,581.6,105.5,586.092,104.8Z" transform="translate(-368.369 -69.175)" fill="#3e373a"/>
    <path id="Path_145" data-name="Path 145" d="M621.586,115.391a6.4,6.4,0,0,1-5.566,2.751,21.505,21.505,0,0,1-6.327-1.348c-5.378-1.683-11.251-2.966-16.57-1.1-2.37.83-4.553,2.292-7.038,2.659-3.622.569-9.454-2.586-10.087-6.6-.711,4.635,6.052,8.606,10.087,7.973,2.485-.39,4.667-1.834,7.038-2.659,5.318-1.871,11.192-.587,16.57,1.1a20.635,20.635,0,0,0,6.327,1.348,6.447,6.447,0,0,0,5.566-2.751,5.368,5.368,0,0,0,.642-3.352,4.942,4.942,0,0,1-.642,1.976Z" transform="translate(-368.367 -84.638)" opacity="0.1"/>
    <path id="Path_146" data-name="Path 146" d="M1029.163,661.63s2.719,3.553-1.256,8.922-7.249,9.9-5.928,13.246c0,0,6-9.968,10.875-10.11S1034.523,667.622,1029.163,661.63Z" transform="translate(-609.737 -382.399)" fill="#5ab5f1"/>
    <path id="Path_147" data-name="Path 147" d="M1029.347,661.63a4.416,4.416,0,0,1,.555,1.114c4.759,5.594,7.3,10.816,2.719,10.944-4.264.124-9.376,7.748-10.6,9.67a4.447,4.447,0,0,0,.142.458s6-9.968,10.876-10.11S1034.706,667.622,1029.347,661.63Z" transform="translate(-609.921 -382.399)" opacity="0.1"/>
    <path id="Path_148" data-name="Path 148" d="M1048.258,670.565c0,1.252-.142,2.265-.312,2.265s-.316-1.013-.316-2.265.174-.66.349-.66S1048.258,669.314,1048.258,670.565Z" transform="translate(-623.789 -386.804)" fill="#ffd037"/>
    <path id="Path_149" data-name="Path 149" d="M1050.26,673.728c-1.1.6-2.054.958-2.137.807s.738-.761,1.834-1.376.665-.165.747,0S1051.36,673.128,1050.26,673.728Z" transform="translate(-624.053 -388.473)" fill="#ffd037"/>
    <path id="Path_150" data-name="Path 150" d="M999.458,661.63s-2.719,3.553,1.256,8.922,7.249,9.9,5.924,13.246c0,0-5.992-9.968-10.875-10.11S994.112,667.622,999.458,661.63Z" transform="translate(-594.401 -382.399)" fill="#5ab5f1"/>
    <path id="Path_151" data-name="Path 151" d="M999.458,661.63a4.4,4.4,0,0,0-.555,1.114c-4.759,5.594-7.3,10.816-2.719,10.944,4.259.124,9.376,7.748,10.6,9.67a3.545,3.545,0,0,1-.147.458s-5.992-9.968-10.875-10.11S994.112,667.622,999.458,661.63Z" transform="translate(-594.401 -382.399)" opacity="0.1"/>
    <path id="Path_152" data-name="Path 152" d="M995.64,670.565c0,1.252.138,2.265.312,2.265s.316-1.013.316-2.265-.179-.66-.349-.66S995.64,669.314,995.64,670.565Z" transform="translate(-595.635 -386.804)" fill="#ffd037"/>
    <path id="Path_153" data-name="Path 153" d="M991.072,673.728c1.1.6,2.054.958,2.137.807s-.738-.761-1.834-1.376-.665-.165-.747,0S989.971,673.128,991.072,673.728Z" transform="translate(-592.801 -388.473)" fill="#ffd037"/>
    <ellipse id="Ellipse_11" data-name="Ellipse 11" cx="28.426" cy="4.36" rx="28.426" ry="4.36" transform="translate(383.815 319.876)" fill="#5ab5f1" opacity="0.1"/>
    <path id="Path_154" data-name="Path 154" d="M1019.669,697.57l-.138,1.11-.193,1.568-.078.656-.193,1.568-.083.656-.188,1.563-2.178,17.835c-.193,1.591-2.792,2.833-5.933,2.833h-11.3c-3.141,0-5.736-1.243-5.933-2.833l-2.178-17.835-.193-1.563-.078-.656-.193-1.568-.083-.656-.188-1.568-.138-1.11c-.105-.917,1.3-1.66,3.077-1.66H1016.6C1018.371,695.91,1019.779,696.667,1019.669,697.57Z" transform="translate(-592.797 -400.962)" fill="#65617d"/>
    <path id="Path_155" data-name="Path 155" d="M931.12,658.53l-.188,1.568h-28.61l-.193-1.568Z" transform="translate(-504.386 -360.813)" fill="#9d9cb5"/>
    <path id="Path_156" data-name="Path 156" d="M931.169,663.38l-.188,1.568H902.913l-.193-1.568Z" transform="translate(-504.705 -363.439)" fill="#9d9cb5"/>
    <path id="Path_157" data-name="Path 157" d="M931.224,668.23l-.192,1.568H903.508l-.188-1.568Z" transform="translate(-505.03 -366.065)" fill="#9d9cb5"/>
  </g>
</svg>
