<svg id="undraw_done_a34v" xmlns="http://www.w3.org/2000/svg" width="240.929" height="164.411" viewBox="0 0 240.929 164.411">
  <path id="Path_368" data-name="Path 368" d="M122.246,775.8c0,4.284-20.09,7.758-44.873,7.758S32.5,780.082,32.5,775.8c0-1.072,1.254-2.091,3.523-3.017,6.605-2.7,21.814-4.624,39.689-4.735q.827-.006,1.661-.006C102.156,768.04,122.246,771.514,122.246,775.8Z" transform="translate(-31.032 -619.146)" fill="#3f3d56"/>
  <path id="Path_369" data-name="Path 369" d="M88.989,768.07A25.476,25.476,0,0,1,49.3,772.8C55.905,770.1,71.114,768.181,88.989,768.07Z" transform="translate(-44.309 -619.17)" opacity="0.1"/>
  <ellipse id="Ellipse_74" data-name="Ellipse 74" cx="23.485" cy="25.162" rx="23.485" ry="25.162" transform="translate(0 106.537)" fill="#3f3d56"/>
  <path id="Path_370" data-name="Path 370" d="M274.927,141.3c3.33,12.828,14.072,21.119,24.017,18.538" transform="translate(-222.626 -123.823)" fill="#3f3d56"/>
  <path id="Path_371" data-name="Path 371" d="M386.031,121.6c-3.367-12.972,2.889-25.8,13.987-28.681" transform="translate(-309.713 -85.593)" fill="#5ab5f1"/>
  <path id="Path_372" data-name="Path 372" d="M307.456,138.773c3.163,12.185,10.854,20.713,17.2,19.067" transform="translate(-248.334 -121.828)" fill="#5ab5f1"/>
  <path id="Path_373" data-name="Path 373" d="M384.642,93.973c-4.3-16.575,2.6-32.682,15.424-36.012" transform="translate(-308.324 -57.96)" fill="#3f3d56"/>
  <path id="Path_374" data-name="Path 374" d="M371.616,223.39s2.531-.741,3.158-1.488,3.613-2.22,4.032-1.392,4.968,3.373,2.094,4.144-6.81,1.289-7.7,1.02S371.616,223.39,371.616,223.39Z" transform="translate(-299.04 -186.232)" fill="#a8a8a8"/>
  <path id="Path_375" data-name="Path 375" d="M380.871,236.019c-2.875.771-6.81,1.289-7.7,1.021-.677-.2-1.242-1.421-1.472-1.991l-.084.025s.7,2.016,1.585,2.284,4.824-.249,7.7-1.021c.83-.223,1.04-.593.911-1.027C381.763,235.605,381.489,235.853,380.871,236.019Z" transform="translate(-299.04 -197.916)" opacity="0.2"/>
  <rect id="Rectangle_185" data-name="Rectangle 185" width="169.007" height="97.923" transform="translate(71.922 26.437)" fill="#f2f2f2"/>
  <rect id="Rectangle_186" data-name="Rectangle 186" width="92.681" height="48.542" transform="translate(75.906 56.16)" fill="#5ab5f1" opacity="0.3"/>
  <rect id="Rectangle_187" data-name="Rectangle 187" width="37.173" height="2.056" transform="translate(175.717 54.044)" fill="#3f3d56"/>
  <rect id="Rectangle_188" data-name="Rectangle 188" width="54.099" height="2.056" transform="translate(175.717 57.84)" fill="#3f3d56"/>
  <rect id="Rectangle_189" data-name="Rectangle 189" width="37.173" height="2.056" transform="translate(175.717 67.015)" fill="#3f3d56"/>
  <rect id="Rectangle_190" data-name="Rectangle 190" width="37.173" height="2.056" transform="translate(175.717 82.201)" fill="#3f3d56"/>
  <rect id="Rectangle_191" data-name="Rectangle 191" width="54.099" height="2.056" transform="translate(175.717 70.811)" fill="#3f3d56"/>
  <rect id="Rectangle_192" data-name="Rectangle 192" width="54.099" height="2.056" transform="translate(175.717 74.608)" fill="#3f3d56"/>
  <rect id="Rectangle_193" data-name="Rectangle 193" width="54.099" height="2.056" transform="translate(175.717 78.404)" fill="#3f3d56"/>
  <rect id="Rectangle_194" data-name="Rectangle 194" width="19.457" height="5.378" transform="translate(175.717 91.375)" fill="#5ab5f1"/>
  <path id="Path_376" data-name="Path 376" d="M339.988,438s3.493-9.9,6.015-6.791-3.881,8.344-3.881,8.344Z" transform="translate(-274.044 -352.471)" fill="#a0616a"/>
  <path id="Path_377" data-name="Path 377" d="M235,419.6l2.1.779s1,4.46.615,5.237-.582.194,0,1.746,2.328,5.627,2.523,6.209,11.254-3.687,11.254-5.821a19.752,19.752,0,0,0,3.493,3.3s-12.807,9.314-14.553,10.478-2.717.582-4.269-.776-8.15-12.613-8.15-12.613Z" transform="translate(-185.551 -343.773)" fill="#575a89"/>
  <path id="Path_378" data-name="Path 378" d="M280.107,743.421s-.194,2.134-.582,2.328-3.3,5.045,0,6.015,5.239.582,6.015.97,14.359,1.164,14.553-.97-6.6-2.522-6.6-2.522-6.209-4.075-7.18-6.209S280.107,743.421,280.107,743.421Z" transform="translate(-225.029 -598.705)" fill="#2f2e41"/>
  <path id="Path_379" data-name="Path 379" d="M86.445,766.623s-4.657,7.956-3.493,8.926,12.5,4.506,14.165,4.657c2.134.194,3.687-1.552,1.94-2.523s-5.433-5.045-5.433-6.4v-3.493Z" transform="translate(-70.758 -618.027)" fill="#2f2e41"/>
  <path id="Path_380" data-name="Path 380" d="M74.213,518.621s-4.075,5.045,2.328,13.195L87.214,545.4s-6.6,10.478-6.791,15.911-1.552,4.269-1.94,6.6-2.134,1.164-.776,2.911,6.4,3.3,7.956,1.94a4.811,4.811,0,0,0,1.552-3.881c0-.776,2.717-5.239,2.911-6.6S97.5,549.861,97.5,549.861s2.328-6.6-.388-10.284a38.978,38.978,0,0,1-4.512-8.916s8,9.692,13.632,12.02c0,0,2.134.388,1.746,1.358s0,1.552.582,2.522,4.657,12.224,6.015,15.135.776,4.657,2.328,5.627,8.538.194,8.538-.776a19.782,19.782,0,0,0-1.552-4.851c-.582-1.358-5.239-17.076-4.851-19.792s-.194-6.4-3.1-7.956S98.274,519.785,97.5,519.785,74.213,518.621,74.213,518.621Z" transform="translate(-62.989 -422.027)" fill="#2f2e41"/>
  <circle id="Ellipse_75" data-name="Ellipse 75" cx="8.15" cy="8.15" r="8.15" transform="translate(42.077 49.83)" fill="#a0616a"/>
  <path id="Path_381" data-name="Path 381" d="M210.318,338.171s-2.523,4.463-5.627,5.045,8.15,9.508,8.15,9.508,2.717-8.538,5.045-8.926S210.318,338.171,210.318,338.171Z" transform="translate(-166.689 -279.415)" fill="#a0616a"/>
  <path id="Path_382" data-name="Path 382" d="M117.045,371.432c0,2.523-7.568,9.7-7.568,9.7l-7.179,6.015s-.194,2.134-.97,2.328-1.746.194-.97,1.358,2.717,3.687.97,4.075a14.265,14.265,0,0,1-1.589.151c-.466.027-1.013.052-1.628.076-1.436.05-3.233.083-5.179.07q-.83,0-1.688-.019c-7.337-.146-15.836-.99-15.141-3.77,1.164-4.657.388-6.209,2.911-8.732s6.6-11.254,6.6-11.254,8.15-13.777,14.941-13.777l1.411-.371a3.23,3.23,0,0,1,3.526,1.354c1.362,2.074,3.51,5.191,4.766,6.2,1.94,1.552,2.243.439,2.243.439S117.045,368.91,117.045,371.432Z" transform="translate(-65.461 -294.436)" fill="#575a89"/>
  <path id="Path_383" data-name="Path 383" d="M176.717,565.815s5.627,8.732,2.134,10.284-5.433-9.12-5.433-9.12Z" transform="translate(-142.402 -459.325)" fill="#a0616a"/>
  <path id="Path_384" data-name="Path 384" d="M220.808,292.235c.313-.039.412-.434.464-.745a4.187,4.187,0,0,1,3.189-3.512,4.515,4.515,0,0,1,1.9.153,7.21,7.21,0,0,1,2.438,1.2,4.021,4.021,0,0,0,1.218.765c.306.09,1.6.667,1.908.765.667.215,1.219.913,1.906.775.657-.132.907-.926,1.012-1.588a8.344,8.344,0,0,0-1.481-5.022,5.327,5.327,0,0,0-2.856-1.869,20.518,20.518,0,0,0-3.96-.787,12.807,12.807,0,0,0-5.427.233,5.182,5.182,0,0,0-3.643,3.727c-.068.374-.08.757-.163,1.129a16.781,16.781,0,0,1-1.15,2.526,4.863,4.863,0,0,0,.148,3.942c.484.973,1.325,1.908,1.144,2.979l1.5-1.181a1.088,1.088,0,0,0,.5-1.273l-.218-1.875a1.65,1.65,0,0,1,.1-1.014C220,290.4,220.286,292.3,220.808,292.235Z" transform="translate(-175.909 -235.175)" fill="#2f2e41"/>
  <path id="Path_385" data-name="Path 385" d="M144.859,398.845l1.828,7.6c-1.843.066-4.282.1-6.867.05-.652-1.956-1.275-4-1.752-5.9-1.746-6.985,1.164-17.658,2.717-22.7a9.74,9.74,0,0,1,5.433-6.4,17.693,17.693,0,0,1,4.463,2.328C153.2,375.56,144.859,398.845,144.859,398.845Z" transform="translate(-114.037 -305.743)" opacity="0.1"/>
  <path id="Path_386" data-name="Path 386" d="M152.262,413.126l1.9,7.913c-.466.027-1.013.052-1.628.076-1.436.05-3.233.083-5.179.07-.7-2.078-1.378-4.271-1.888-6.312-1.746-6.985,1.164-17.658,2.717-22.7s4.948.485,4.948.485-1.358-3.3,1.164-1.552S152.262,413.126,152.262,413.126Z" transform="translate(-119.887 -320.413)" opacity="0.1"/>
  <path id="Path_387" data-name="Path 387" d="M149.919,369.634a9.74,9.74,0,0,0-5.433,6.4c-1.552,5.045-4.463,15.717-2.717,22.7a130.8,130.8,0,0,0,5.433,15.717s3.687-2.717,5.045-2.134l-3.687-15.329s8.344-23.285,5.821-25.031A17.7,17.7,0,0,0,149.919,369.634Z" transform="translate(-116.962 -304.281)" fill="#575a89"/>
  <rect id="Rectangle_195" data-name="Rectangle 195" width="92.681" height="48.542" transform="translate(71.922 51.128)" fill="#3f3d56"/>
  <path id="Path_389" data-name="Path 389" d="M10.488,0A10.507,10.507,0,1,1,0,10.507,10.5,10.5,0,0,1,10.488,0Z" transform="translate(109.499 65.842)" fill="#71de56"/>
  <path id="Path_388" data-name="Path 388" d="M550.481,363.423a12.534,12.534,0,1,0,12.534,12.534A12.534,12.534,0,0,0,550.481,363.423Zm-2.573,19.217-6.424-6.424,1.8-1.8,4.628,4.628,9.768-9.768,1.8,1.8Z" transform="translate(-430.494 -299.372)" fill="#fff"/>
</svg>
