<svg xmlns="http://www.w3.org/2000/svg" width="24.828" height="24" viewBox="0 0 24.828 24">
  <g id="chat-3" transform="translate(0 -1)">
    <path id="Path_408" data-name="Path 408" d="M28.236,1H12.454A2.456,2.456,0,0,0,10,3.454V5.966H24.1a3.285,3.285,0,0,1,3.281,3.281v5.409h.857A2.456,2.456,0,0,0,30.69,12.2V3.454A2.456,2.456,0,0,0,28.236,1Z" transform="translate(-5.862)" fill="#5cb4f1"/>
    <path id="Path_409" data-name="Path 409" d="M18.236,15H2.454A2.456,2.456,0,0,0,0,17.453V26.2a2.456,2.456,0,0,0,2.454,2.454H4.966v4.138a.414.414,0,0,0,.72.278L9.7,28.655h8.536A2.456,2.456,0,0,0,20.69,26.2V17.453A2.456,2.456,0,0,0,18.236,15ZM4.966,19.144h5.793a.414.414,0,1,1,0,.828H4.966a.414.414,0,1,1,0-.828Zm11.172,5.793H4.966a.414.414,0,1,1,0-.828H16.138a.414.414,0,1,1,0,.828Zm0-2.483H4.966a.414.414,0,0,1,0-.828H16.138a.414.414,0,0,1,0,.828Z" transform="translate(0 -8.207)" fill="#5cb4f1"/>
  </g>
</svg>
