<svg xmlns="http://www.w3.org/2000/svg" xmlns:xlink="http://www.w3.org/1999/xlink" width="444.3" height="309.353" viewBox="0 0 444.3 309.353">
  <defs>
    <linearGradient id="linear-gradient" x1="0.5" y1="1" x2="0.5" gradientUnits="objectBoundingBox">
      <stop offset="0" stop-color="gray" stop-opacity="0.251"/>
      <stop offset="0.54" stop-color="gray" stop-opacity="0.122"/>
      <stop offset="1" stop-color="gray" stop-opacity="0.102"/>
    </linearGradient>
  </defs>
  <g id="Group_36" data-name="Group 36" transform="translate(-817.62 -474.147)">
    <g id="undraw_uploading_go67" transform="translate(817.617 474.099)">
      <path id="Path_263" data-name="Path 263" d="M355.269,144.534c-28.268-.983-55.191-10.107-80.9-20.092S223.192,103.394,195.6,98.126c-17.746-3.4-38.039-3.883-52.339,5.63-13.759,9.172-18.2,24.962-20.6,39.625-1.8,11.037-2.857,22.647,2.075,32.977,3.42,7.172,9.5,13.2,13.7,20.07,14.615,23.9,4.285,53.374-11.557,76.712-7.425,10.946-16.047,21.4-21.782,33.047s-8.386,25.006-3.372,36.895c4.975,11.793,16.825,20.633,29.657,26.858,26.071,12.64,56.781,16.261,86.753,18.31,66.312,4.538,132.982,2.573,199.468.607,24.608-.729,49.321-1.468,73.527-5.272,13.444-2.114,27.325-5.469,37.083-13.54,12.387-10.277,15.458-27.683,7.159-40.568-13.925-21.616-52.414-26.989-62.158-50.186-5.359-12.767.144-26.993,7.927-38.834,16.7-25.407,44.7-47.692,46.172-76.733,1.013-19.943-12.444-39.917-33.252-49.356-21.813-9.893-52.055-8.648-68.138,7.727C409.343,138.913,380.227,145.4,355.269,144.534Z" transform="translate(-95.716 -95.85)" fill="#5ab5f1" opacity="0.1"/>
      <g id="Group_21" data-name="Group 21" transform="translate(0.003 139.65)" opacity="0.1">
        <path id="Path_264" data-name="Path 264" d="M129.108,419.313s-32.645-13.732-36.938,11.029c0,0-2.232,3.861.874,7.05,0,0,.668-1.712,3.822.057a16.238,16.238,0,0,0,3.564,1.45,8.019,8.019,0,0,0,5.075-.271h0s10.74-.581,19.773-14.632c0,0,3.874-2.394,4.066-3.293l-6.473.437s.5,4.739-2.184,7.583c0,0,2.376-7.355,1.236-7.561-.231-.044-3.42.376-3.42.376s.826,8.242-3.494,12.505c0,0,4.01-8.382,2.267-12.357l-4.778.922s1.31,8.67-3.416,13.71c0,0,3.887-8.91,2.385-13.435l-4.573,1.537s1.1,8.478-2.852,12.667c0,0,3.451-10.749,1.826-12.23,0,0-4.114,1.669-4.992,2.621,0,0,.651,6.115-1.861,8.321,0,0,1.542-7.425.777-7.731,0,0-4.778,3.6-6.237,6.7a18.117,18.117,0,0,1,5.639-7.425,10.055,10.055,0,0,0-5.678.8s1.651-3.149,6.836-1.655c0,0,3.839-2.66,4.608-2.621,0,0-4.905-2.184-8.447-1.913,0,0,3.8-2.184,9.644,1.463l4.564-1.647s-6.333-3.245-9.5-3.232c0,0,4.219-1.634,10.688,2.909l4.674-.952s-5.241-3.21-8.775-3.957c0,0,4.237-.673,10.125,3.734l3.193-.266s-3.866-2.28-5.036-2.835-1.118-.913-1.118-.913a15.239,15.239,0,0,1,7.5,3.608S129.081,419.719,129.108,419.313Z" transform="translate(-91.393 -415.515)" fill="#5ab5f1"/>
      </g>
      <g id="Group_22" data-name="Group 22" transform="translate(4.797 101.122)" opacity="0.1">
        <path id="Path_265" data-name="Path 265" d="M134.093,345.015s-11.579-26.762-28.229-14.488a4.959,4.959,0,0,0-3.494,4.674s1.371-.638,2.241,2.214a13.152,13.152,0,0,0,1.31,2.887,6.551,6.551,0,0,0,3.167,2.73h0s6.713,5.774,20.092,2.573c0,0,3.669.782,4.294.363l-4.088-3.438s-2.407,3.1-5.63,3.25c0,0,5.6-3.014,5.045-3.787-.114-.157-2.249-1.721-2.249-1.721s-4.2,5.364-9.172,5.447c0,0,7.159-2.7,8.386-6.049l-3.363-2.184s-4.167,5.892-9.841,6.2c0,0,7.386-3.079,9.072-6.626l-3.595-1.69s-4.176,5.678-8.9,5.892c0,0,8.176-4.42,8.05-6.224,0,0-3.394-1.354-4.473-1.275,0,0-3.088,4-5.844,3.883,0,0,5.15-3.534,4.87-4.149,0,0-4.892-.585-7.526.437a14.9,14.9,0,0,1,7.578-1.2,8.211,8.211,0,0,0-3.822-2.752s2.778-.93,5.005,2.9c0,0,3.791.611,4.237,1.066,0,0-1.664-4.1-3.931-5.949,0,0,3.494.874,4.892,6.364l3.651,1.62s-1.913-5.538-3.809-7.333c0,0,3.437,1.433,4.7,7.818l3.32,2.092s-1.284-4.892-2.957-7.351c0,0,2.9,2.018,3.883,7.989l2.053,1.66s-1-3.555-1.38-4.551-.144-1.179-.144-1.179a12.513,12.513,0,0,1,2.4,6.412S133.835,345.238,134.093,345.015Z" transform="translate(-102.37 -327.306)" fill="#5ab5f1"/>
      </g>
      <path id="Path_266" data-name="Path 266" d="M787.861,498.026a16.607,16.607,0,0,0-1.747-4.56,15.844,15.844,0,0,0-2.865-3.132c-3.167-2.878-7.058-5.8-11.256-5.071a14.845,14.845,0,0,0-3.739,1.363c-.612.284-1.227.568-1.856.808a9.26,9.26,0,0,1-5.6.489c-.961-.258-1.856-.721-2.8-1.009a9.062,9.062,0,0,0-1.38-.3,25.427,25.427,0,0,0,2.664-1.4c4.713-2.913,8.473-8.155,7.945-13.7a22.352,22.352,0,0,0-1.459-5.442q-.839-2.319-1.682-4.643a19.772,19.772,0,0,0-2.8-5.735,14.587,14.587,0,0,0-5.739-4.066c-4.656-2.022-9.745-2.734-14.768-3.424l-.349-.048V393.889a3.494,3.494,0,0,0-3.494-3.516H730.32q-.437-2.673-.874-5.342c-.834-5.071-1.695-10.242-4.032-14.811-1.529-2.992-3.966-5.84-7.246-6.429a7.228,7.228,0,0,1-1.887-.437c-.961-.472-1.485-1.52-2.228-2.3-1.9-2-5-2.027-7.556-3.057-2.254-.9-4.1-2.586-6.15-3.883s-4.608-2.223-6.884-1.376a4.741,4.741,0,0,1-.048.494l-1.459-.655a15.983,15.983,0,0,1-4.442-2.673,12.726,12.726,0,0,1-3.162-5.713c-.07-.227-.136-.437-.2-.677a20.325,20.325,0,0,0,5.434-10.382c.118.38.24.764.358,1.149a6.079,6.079,0,0,0,.437,1.131,3.008,3.008,0,0,0,.205.345,2.229,2.229,0,0,0,.533.555,1.487,1.487,0,0,0,.7.275,1.309,1.309,0,0,0,.367,0,2.018,2.018,0,0,0,1.467-1.254,2.616,2.616,0,0,0,.153-.533,2.714,2.714,0,0,0,.031-.332v-.786a1.262,1.262,0,0,0-.044-.258c-.017-.083,0-.048,0-.07-.022-.114-.048-.223-.07-.336a.431.431,0,0,1,0-.074l-.066-.275-.039-.166v-.044h0c-.044-.17-.083-.345-.122-.52a15.045,15.045,0,0,1-.24-4.617,50,50,0,0,1,1.249-6.709l.092-.4.1-.463c.07-.315.135-.629.2-.943h0c.057-.266.109-.537.157-.808s.083-.476.118-.716V317.2a20.762,20.762,0,0,0,.214-4.927h0a10.355,10.355,0,0,0-2.468-6.172c-1.1-1.219-2.538-2.118-3.555-3.4-.956-1.2-1.494-2.677-2.481-3.852-2.73-3.258-9.731-5.77-14.029-6.207-4.922-.5-12.876.76-16.842,3.669a16.288,16.288,0,0,0-3.494,4.093c-1.878,2.734-4.014,5.46-7.023,6.988-1.14.577-2.442,1.013-3.2,2.018a5.5,5.5,0,0,0-.873,2.267,44.638,44.638,0,0,0-.9,8.648,10.658,10.658,0,0,0,.48,3.756c.061.166.135.336.214.5h0c.07.144.149.288.231.437l.052.092a18.13,18.13,0,0,1,1.4,2.38,3.46,3.46,0,0,1,.21.725,5.369,5.369,0,0,1-.122,1.917h0a1.219,1.219,0,0,1-.057.28l-.039.2a.361.361,0,0,1-.035.188q-.053.284-.092.563c0,.131-.026.266-.031.4a3.284,3.284,0,0,0,.3,1.572,2,2,0,0,0,.205.332,1.749,1.749,0,0,0,.59.5,6.615,6.615,0,0,0,1.616.384,4.894,4.894,0,0,1,3.32,3.149,11.118,11.118,0,0,1,.389,1.053,18.612,18.612,0,0,1,.611,2.739c.743-.039,1.175-.694,1.437-1.411a6.629,6.629,0,0,0,.205-.721c.1-.459.2-.917.306-1.376a20.308,20.308,0,0,0,7.976,8.788c.122.358.24.721.35,1.088.572,1.979.847,4.053-.144,5.783a6.132,6.132,0,0,1-3.228,2.512,2.138,2.138,0,0,0-.721-.616c-1.153-.577-2.533.127-3.494.987-1.747,1.581-3.171,3.848-5.473,4.368a6.353,6.353,0,0,0-2.442.66,5.644,5.644,0,0,0-1.131,1.49,5.211,5.211,0,0,1-4.473,2.227c-.8-.039-1.747-.223-2.293.363-.406.437-.437,1.131-.874,1.546-.59.577-1.546.293-2.367.258a4.367,4.367,0,0,0-3.167,1.371,7.451,7.451,0,0,0-1.9-4.761c-1.179-1.214-2.817-1.839-4.215-2.791-3.494-2.376-5.242-6.552-7.063-10.378s-4.223-7.862-8.2-9.255c-.913-.323-2.184-.349-2.595.537a1.935,1.935,0,0,0-.065,1.158c.384,2.035,1.834,3.669,3.088,5.307,2.11,2.76,3.879,6.137,3.368,9.587-.6,4.084-4.237,7.255-4.674,11.356-.192,1.808.266,3.625.262,5.442a15.667,15.667,0,0,0,.066,3.389,22.981,22.981,0,0,0,.922,2.468,14.443,14.443,0,0,1,.6,4.066q.463,8.683.922,17.371c.231,4.32-.712,8.583-1.664,12.833A40.262,40.262,0,0,0,606.362,423a26.811,26.811,0,0,0,.437,14.374c.826,2.5,2.092,4.848,2.769,7.395a.676.676,0,0,0,.039.162c.066.541.14,1.083.24,1.62a15.581,15.581,0,0,0,.485,1.834,13.074,13.074,0,0,0,.961,3,8.4,8.4,0,0,0,2.621,3.057c-.629,1.232-1.647,2.223-2.324,3.429a10.519,10.519,0,0,0-.8,7.019,23.222,23.222,0,0,0,6.552,11.972,3.764,3.764,0,0,0-.437,0,6.848,6.848,0,0,0-2.988,1.07,20.271,20.271,0,0,0-9.4,20.572,8.815,8.815,0,0,0,1.808,4.285,6.8,6.8,0,0,0,3.184,1.952,11.05,11.05,0,0,0,2.345.437c5.377.437,10.583-2.057,15.973-2.267a43,43,0,0,1,5.351.249q3.892.323,7.8.41c4.232.1,6.617-1.026,9.321-4.193a11.3,11.3,0,0,0,1.647-2.594c2.3-.131,4.835-.332,6.674-.485l.026.258A3.5,3.5,0,0,0,659.6,499a3.4,3.4,0,0,0,1.31.533c4.416,1.088,8.884,2.184,13.427,2.184a56.686,56.686,0,0,0,6.377-.494l7.993-.922a40.71,40.71,0,0,1,6.862,1.494c2.306.786,4.464,1.952,6.718,2.87,5.241,2.127,10.885,2.887,16.471,3.63a3.358,3.358,0,0,0,2.752-.437c.908-.874.6-2.337.349-3.56-.1-.5-.184-1-.249-1.511a75.8,75.8,0,0,1,11.033,3.831l.629.275c.179.952,1.061,1.717,1.9,2.743a6.942,6.942,0,0,0,.965,1.192,3.166,3.166,0,0,0,1.385.5,64.7,64.7,0,0,0,17.908.808,18.36,18.36,0,0,1,3.691-.127,15.581,15.581,0,0,1,2.664.6l5.058,1.446c3.726,1.07,7.548,2.149,11.413,1.909a15.179,15.179,0,0,0,2.333-.336,10.944,10.944,0,0,0,7.377-5.171C789.94,506.713,788.984,502.114,787.861,498.026ZM639.5,429.709a15.893,15.893,0,0,1-1.459,5.464c-.542,1.1-1.24,2.105-1.747,3.206a17.337,17.337,0,0,0-1.052,4.944c-.262-.044-.529-.083-.791-.113.389-1.363.681-2.76,1.07-4.128A53.494,53.494,0,0,1,639.5,429.709Z" transform="translate(-380.227 -206.601)" fill="url(#linear-gradient)"/>
      <path id="Path_267" data-name="Path 267" d="M698.778,746.5c-.922-2.1-1.8-4.507-.874-6.6a5.612,5.612,0,0,1,2.9-2.73,13.975,13.975,0,0,1,3.931-.97,54.86,54.86,0,0,1,12.78-.175c.31,2.455-.345,4.944-.909,7.316-.511,2.184-.8,2.507-3.058,2.621C712.1,746.04,699.123,747.276,698.778,746.5Z" transform="translate(-432.769 -456.218)" fill="#fbbebe"/>
      <ellipse id="Ellipse_40" data-name="Ellipse 40" cx="62.459" cy="17.471" rx="62.459" ry="17.471" transform="translate(242.445 241.199)" fill="#464353"/>
      <ellipse id="Ellipse_41" data-name="Ellipse 41" cx="62.459" cy="17.471" rx="62.459" ry="17.471" transform="translate(242.445 241.199)" opacity="0.1"/>
      <path id="Path_268" data-name="Path 268" d="M760.418,430.976a19.433,19.433,0,0,1-10.02,9.1,25.15,25.15,0,0,1-7.932,1.511,22.657,22.657,0,0,1-8.779-1.07,20.085,20.085,0,0,1-9.172-7.351,44.863,44.863,0,0,1-5.324-10.631A11.816,11.816,0,0,1,718.1,416.5c2.25-.511,4.713-1.262,5.875-3.258.991-1.712.716-3.765.144-5.722-.161-.555-.349-1.105-.537-1.634-.437-1.267-1.944-3.673-.9-4.757.668-.686,3.468-1.035,4.433-1.481,2.974-1.371,5.718-3.354,8.985-4.005,2.826-.564,5.744-.035,8.565.55a2.818,2.818,0,0,1,1.057.38,2.542,2.542,0,0,1,.786,1.179c.8,1.957,1.276,4.119,1.922,6.159a12.591,12.591,0,0,0,3.158,5.656,16.124,16.124,0,0,0,4.442,2.647l3.87,1.773a5.086,5.086,0,0,1,1.83,1.184,4.638,4.638,0,0,1,.874,2.376,22.2,22.2,0,0,1-2.193,13.431Z" transform="translate(-444.315 -264.536)" fill="#fbbebe"/>
      <path id="Path_269" data-name="Path 269" d="M753.982,403.909a20.092,20.092,0,0,1-24.3,3.608c-.162-.555-.35-1.105-.537-1.634-.437-1.267-1.944-3.673-.9-4.757.668-.686,3.468-1.035,4.433-1.481,2.975-1.371,5.718-3.354,8.985-4.005,2.826-.564,5.744-.035,8.565.55a2.816,2.816,0,0,1,1.057.38,2.542,2.542,0,0,1,.786,1.179C752.864,399.707,753.335,401.869,753.982,403.909Z" transform="translate(-449.877 -264.536)" opacity="0.1"/>
      <circle id="Ellipse_42" data-name="Ellipse 42" cx="20.092" cy="20.092" r="20.092" transform="translate(269.525 104.487)" fill="#fbbebe"/>
      <path id="Path_270" data-name="Path 270" d="M761.386,475.808l-1.651-10c-.834-5.019-1.695-10.133-4.027-14.654-1.533-2.961-3.966-5.783-7.246-6.368a7.013,7.013,0,0,1-1.887-.437c-.961-.463-1.485-1.5-2.223-2.271-1.9-1.974-5.005-2-7.556-3.009-2.254-.874-4.1-2.555-6.15-3.839s-4.608-2.184-6.879-1.363c-.367,3.909-.756,7.906-2.415,11.466a17.157,17.157,0,0,1-25.884,6.447,21.557,21.557,0,0,1-7.548-12.182c-.284-1.153-.607-2.477-1.669-3.005-1.149-.577-2.529.122-3.494.97-1.769,1.568-3.175,3.813-5.473,4.342a6.385,6.385,0,0,0-2.437.655,5.548,5.548,0,0,0-1.136,1.472,5.241,5.241,0,0,1-4.468,2.21c-.8-.039-1.747-.223-2.293.358-.406.437-.437,1.118-.873,1.524-.59.572-1.546.293-2.367.262a4.776,4.776,0,0,0-3.892,2.184,14.083,14.083,0,0,0-1.747,4.307c4.774,10.631,9.142,21.276,13.916,31.907a2.72,2.72,0,0,1,.345,1.31,3.194,3.194,0,0,1-.594,1.31c-2.341,3.761-2.267,8.491-2.009,12.911s.572,9.089-1.4,13.051c-.537,1.088-1.236,2.083-1.747,3.171-1.2,2.463-1.629,10.343-.93,12.99H764.36c-1.883-5.176-1.166-15.562-.773-21.057.275-3.844-.437-7.683-.742-11.527C762.2,491.09,762.683,483.643,761.386,475.808Z" transform="translate(-410.554 -286.022)" fill="#f86d70"/>
      <path id="Path_271" data-name="Path 271" d="M804.65,650.4a9.412,9.412,0,0,1,4.617-.144c5.018.686,10.111,1.389,14.763,3.394a14.5,14.5,0,0,1,5.739,4.023,19.9,19.9,0,0,1,2.8,5.678l1.677,4.582a22.114,22.114,0,0,1,1.463,5.385c.524,5.5-3.236,10.683-7.967,13.54s-10.3,3.874-15.724,4.94-10.871,2.245-16.274,3.494a65.506,65.506,0,0,1-7.657,1.507c-5.783.655-11.828-.31-17.323,1.6a65.955,65.955,0,0,1-6.6,2.429,41.049,41.049,0,0,1-4.556.734l-10.4,1.188a56.734,56.734,0,0,1-6.377.489c-4.543,0-9.011-1.075-13.422-2.149a2.557,2.557,0,0,1-2.263-2.935q-.668-5.857-1.17-11.728a5.88,5.88,0,0,1,.511-3.717c.873-1.31,2.577-1.721,4.132-1.974a107.843,107.843,0,0,1,19.952-1.385c2.538-2.538,6.722-2.551,10.046-3.931a29.89,29.89,0,0,0,3.542-1.926,46.3,46.3,0,0,1,19.441-6.146,18.1,18.1,0,0,0,3.979-.568c2.573-.8,4.918-2.974,7.561-2.442.328-.9.555-2.114,1.31-2.734.376-.319.839-.533,1.184-.874a3.583,3.583,0,0,0,.686-2.931,8.583,8.583,0,0,1-.087-3.092,4.283,4.283,0,0,1,.485-1.079A5.882,5.882,0,0,1,804.65,650.4Z" transform="translate(-448.765 -407.953)" fill="#464353"/>
      <path id="Path_272" data-name="Path 272" d="M804.65,650.4a9.412,9.412,0,0,1,4.617-.144c5.018.686,10.111,1.389,14.763,3.394a14.5,14.5,0,0,1,5.739,4.023,19.9,19.9,0,0,1,2.8,5.678l1.677,4.582a22.114,22.114,0,0,1,1.463,5.385c.524,5.5-3.236,10.683-7.967,13.54s-10.3,3.874-15.724,4.94-10.871,2.245-16.274,3.494a65.506,65.506,0,0,1-7.657,1.507c-5.783.655-11.828-.31-17.323,1.6a65.955,65.955,0,0,1-6.6,2.429,41.049,41.049,0,0,1-4.556.734l-10.4,1.188a56.734,56.734,0,0,1-6.377.489c-4.543,0-9.011-1.075-13.422-2.149a2.557,2.557,0,0,1-2.263-2.935q-.668-5.857-1.17-11.728a5.88,5.88,0,0,1,.511-3.717c.873-1.31,2.577-1.721,4.132-1.974a107.843,107.843,0,0,1,19.952-1.385c2.538-2.538,6.722-2.551,10.046-3.931a29.89,29.89,0,0,0,3.542-1.926,46.3,46.3,0,0,1,19.441-6.146,18.1,18.1,0,0,0,3.979-.568c2.573-.8,4.918-2.974,7.561-2.442.328-.9.555-2.114,1.31-2.734.376-.319.839-.533,1.184-.874a3.583,3.583,0,0,0,.686-2.931,8.583,8.583,0,0,1-.087-3.092,4.283,4.283,0,0,1,.485-1.079A5.882,5.882,0,0,1,804.65,650.4Z" transform="translate(-448.765 -407.953)" opacity="0.05"/>
      <path id="Path_273" data-name="Path 273" d="M650.233,737.834c-2.7,3.132-5.084,4.25-9.317,4.149q-3.9-.092-7.8-.406a43.8,43.8,0,0,0-5.346-.249c-5.39.21-10.592,2.677-15.969,2.245a11.313,11.313,0,0,1-2.345-.437,6.827,6.827,0,0,1-3.167-1.926,8.7,8.7,0,0,1-1.808-4.241,19.98,19.98,0,0,1,9.4-20.358,6.889,6.889,0,0,1,2.987-1.061,7.078,7.078,0,0,1,3.023.664l.065.026a22.856,22.856,0,0,1,7.486,5,4.224,4.224,0,0,0,1.145.922,3.928,3.928,0,0,0,1.349.253l5.739.362a13.614,13.614,0,0,1,2.883.4,22.92,22.92,0,0,1,3.031,1.311c3.088,1.38,6.512,1.747,9.849,2.28a1.469,1.469,0,0,1,.874.349,1.367,1.367,0,0,1,.271.568A11.142,11.142,0,0,1,650.233,737.834Z" transform="translate(-380.206 -444.851)" fill="#3f3d56"/>
      <path id="Path_274" data-name="Path 274" d="M619.938,716.24a34.459,34.459,0,0,0-5.744,7.181,35.941,35.941,0,0,0-4.691,14.213,26.362,26.362,0,0,0-.048,5.508,6.827,6.827,0,0,1-3.167-1.931,8.7,8.7,0,0,1-1.808-4.241,19.98,19.98,0,0,1,9.4-20.358,6.889,6.889,0,0,1,2.987-1.061,7.078,7.078,0,0,1,3.023.664Z" transform="translate(-380.206 -444.851)" opacity="0.1"/>
      <path id="Path_275" data-name="Path 275" d="M877.449,740.941c3.21-.087,6.814-.249,9.172,1.913,2.25,2.044,2.547,5.416,2.695,8.452l.17,3.525a7.038,7.038,0,0,1-.336,3.18c-.769,1.747-2.878,2.59-4.8,2.49a16.162,16.162,0,0,1-5.455-1.7,76.743,76.743,0,0,0-14.851-4.678q.249-3.656.83-7.277c.267-1.673.31-4.473,1.428-5.862,1.184-1.468,2.725-.672,4.333-.4A34.773,34.773,0,0,0,877.449,740.941Z" transform="translate(-526.561 -458.689)" fill="#fbbebe"/>
      <path id="Path_276" data-name="Path 276" d="M654.411,648.477c0,.437-.686,0-.747-.467-.48-3.533-3.284-6.447-6.552-7.862s-6.988-1.489-10.526-1.153c-5.351.507-11.334,2.555-13.313,7.556-.463,1.17-.673,2.437-1.24,3.56-.629,1.232-1.655,2.215-2.337,3.411a10.376,10.376,0,0,0-.8,6.949c1.14,6.246,5.412,11.588,10.588,15.287s11.225,5.91,17.257,7.9a299.277,299.277,0,0,0,48.919,11.684,47,47,0,0,1,7.984,1.647c2.306.773,4.464,1.931,6.718,2.839,5.241,2.105,10.88,2.857,16.467,3.595a3.378,3.378,0,0,0,2.747-.437c.909-.843.607-2.311.349-3.521a18.934,18.934,0,0,1,2.223-13.426c.935-1.572,2.149-3.184,1.974-5.006-.21-2.123-2.324-3.625-4.429-3.966s-4.245.162-6.36.437a3.488,3.488,0,0,1-2.184-.214,4.326,4.326,0,0,1-.847-.751,9.579,9.579,0,0,0-11.155-1.559c-.782.437-1.966-.537-2.778-.9l-9.177-4.163c-10.553-4.774-21.158-9.57-32.322-12.592a6.789,6.789,0,0,1-2.49-1.035c-.555-.437-.952-1.031-1.463-1.516-1.114-1.053-2.664-1.472-4-2.219S654.1,649.976,654.411,648.477Z" transform="translate(-388.353 -401.639)" fill="#464353"/>
      <path id="Path_277" data-name="Path 277" d="M954.146,759.3a10.932,10.932,0,0,1-7.373,5.115,14.605,14.605,0,0,1-2.332.332c-3.865.24-7.683-.83-11.409-1.887l-5.058-1.433a15.973,15.973,0,0,0-2.664-.594,18.3,18.3,0,0,0-3.686.127,65.338,65.338,0,0,1-17.908-.8,3.159,3.159,0,0,1-1.385-.493,6.887,6.887,0,0,1-.965-1.184c-1.376-1.656-2.857-2.621-1.227-4.8.939-1.267,2.682-1.9,3.411-3.354s.262-3.52-.17-5.023c-.59-2.075-2.529-2.97-3.223-4.874a3.431,3.431,0,0,1,1.669-3.887,6.929,6.929,0,0,1,4.455-.642c1.516.2,3,.629,4.525.747,4.481.358,9.063-1.952,13.366-.651.948.288,1.843.747,2.8,1a9.325,9.325,0,0,0,5.6-.485c.629-.236,1.245-.52,1.856-.8a14.946,14.946,0,0,1,3.734-1.35c4.2-.721,8.089,2.184,11.256,5.019a15.908,15.908,0,0,1,2.861,3.1,15.566,15.566,0,0,1,1.747,4.512C955.191,751.037,956.147,755.588,954.146,759.3Z" transform="translate(-546.49 -455.38)" fill="#3f3d56"/>
      <path id="Path_278" data-name="Path 278" d="M999.314,759.278a10.932,10.932,0,0,1-7.373,5.115,14.277,14.277,0,0,0,1.551-7.5,23.668,23.668,0,0,0-4.416-11.518,40.78,40.78,0,0,0-4.866-5.927c-1.389-1.4-3.1-2.507-4.591-3.787a14.962,14.962,0,0,1,3.735-1.35c4.2-.721,8.089,2.184,11.256,5.019a15.919,15.919,0,0,1,2.861,3.1,15.572,15.572,0,0,1,1.747,4.512C1000.358,751.014,1001.315,755.566,999.314,759.278Z" transform="translate(-591.658 -455.358)" opacity="0.1"/>
      <path id="Path_279" data-name="Path 279" d="M702.736,301.569a16.01,16.01,0,0,0-3.494,4.049c-1.882,2.7-4.014,5.4-7.023,6.91-1.14.572-2.442,1-3.2,2a5.389,5.389,0,0,0-.852,2.241,44.386,44.386,0,0,0-.9,8.561,9.513,9.513,0,0,0,.695,4.21c.6,1.223,1.677,2.258,1.9,3.59a10.878,10.878,0,0,1-.35,3.119,2.64,2.64,0,0,0,1.066,2.778,6.466,6.466,0,0,0,1.616.38c2.9.646,3.879,4.053,4.32,6.871.987-.057,1.432-1.188,1.638-2.11l3.027-13.457c.328-1.459.874-3.149,2.328-3.66a7.452,7.452,0,0,1,3.057.066c4,.328,7.377-2.76,11.287-3.612a14.41,14.41,0,0,1,3.8-.249c3.084.153,6.67,1.419,7.325,4.3.109.467.175,1.026.612,1.258s.874.035,1.354,0c1.957-.2,3.11,2,3.673,3.8l2.053,6.552c.306.992.821,2.158,1.9,2.284a1.98,1.98,0,0,0,1.983-1.747,7.649,7.649,0,0,0-.389-2.83c-.965-4.3.511-8.7,1.411-13.016s1.061-9.264-1.957-12.584c-1.1-1.2-2.538-2.1-3.56-3.363-.952-1.188-1.489-2.647-2.476-3.813-2.73-3.219-9.732-5.7-14.025-6.115C714.669,297.445,706.7,298.69,702.736,301.569Z" transform="translate(-427 -209.6)" fill="#3f3d56"/>
      <g id="Group_23" data-name="Group 23" transform="translate(260.274 107.763)" opacity="0.1">
        <path id="Path_280" data-name="Path 280" d="M741.461,367.146c-1.075-.131-1.59-1.31-1.9-2.284q-1.026-3.28-2.053-6.552c-.563-1.8-1.717-4.005-3.673-3.8-.437.048-.952.227-1.354,0s-.5-.791-.612-1.258c-.655-2.883-4.241-4.145-7.325-4.3a14.608,14.608,0,0,0-3.8.249c-3.931.874-7.29,3.931-11.286,3.612a7.537,7.537,0,0,0-3.057-.061c-1.472.507-2,2.184-2.328,3.66l-3.027,13.453c-.205.926-.651,2.057-1.638,2.11-.437-2.813-1.415-6.22-4.32-6.866a6.871,6.871,0,0,1-1.616-.38,1.9,1.9,0,0,1-.843-.939c-.078.406-.17.812-.223,1.219a2.651,2.651,0,0,0,1.066,2.778,6.463,6.463,0,0,0,1.616.38c2.9.646,3.879,4.053,4.32,6.871.987-.057,1.433-1.188,1.638-2.11l3.027-13.457c.328-1.459.874-3.149,2.328-3.66a7.454,7.454,0,0,1,3.057.066c4,.328,7.377-2.76,11.286-3.612a14.412,14.412,0,0,1,3.787-.249c3.084.153,6.67,1.419,7.325,4.3.109.467.175,1.026.611,1.258s.874.035,1.354,0c1.957-.2,3.11,2,3.673,3.8q1.022,3.28,2.053,6.552c.306.992.821,2.158,1.9,2.284a1.98,1.98,0,0,0,1.983-1.747,5.932,5.932,0,0,0-.262-2.319,1.8,1.8,0,0,1-1.7,1Z" transform="translate(-690.149 -346.119)"/>
        <path id="Path_281" data-name="Path 281" d="M689.875,363.6c-.223-1.332-1.31-2.367-1.9-3.59a7.189,7.189,0,0,1-.646-2.621c0,.489-.044.978-.048,1.472a9.515,9.515,0,0,0,.695,4.211c.485.991,1.284,1.865,1.686,2.874A6.578,6.578,0,0,0,689.875,363.6Z" transform="translate(-687.28 -350.891)"/>
        <path id="Path_282" data-name="Path 282" d="M809.418,345.926c-.795,3.809-2.035,7.687-1.651,11.5a74.922,74.922,0,0,1,1.651-8.447,22.276,22.276,0,0,0,.507-6.473A26.723,26.723,0,0,1,809.418,345.926Z" transform="translate(-755.1 -342.51)"/>
      </g>
      <path id="Path_283" data-name="Path 283" d="M646.564,551.677c-.529,8.674-6.892,15.842-9.317,24.185a50.477,50.477,0,0,1-1.83,6.242c-1.747,4-5.342,6.9-9.172,8.941a13.769,13.769,0,0,1-4.516,1.642,8.657,8.657,0,0,1-8.7-4.625c-1-2.031-1.14-4.368-1.747-6.552-.677-2.52-1.944-4.844-2.769-7.32a26.7,26.7,0,0,1-.437-14.226,43.677,43.677,0,0,1,4.686-11.6c.306-.537.616-1.07.935-1.6a36.333,36.333,0,0,1,3.027-4.368c2.621-3.158,5.988-5.586,9.321-7.98a2.182,2.182,0,0,1,.874-.437h.052a2.11,2.11,0,0,1,1.079.253,85.422,85.422,0,0,1,13.256,7.181c1.5,1,3.874,2.118,4.66,3.822S646.678,549.825,646.564,551.677Z" transform="translate(-381.975 -342.585)" fill="#fbbebe"/>
      <path id="Path_284" data-name="Path 284" d="M646.342,479.517a4.522,4.522,0,0,0-.97,1.551,73.321,73.321,0,0,0-6.159,25.167,2.516,2.516,0,0,1-.284,1.219,5.337,5.337,0,0,1-.642.695,2.411,2.411,0,0,0,.411,3.494c.721-1.358,2.446-1.8,3.979-1.917,7.342-.581,14.514,2.835,21.878,2.577-.52-1.8-1.267-3.521-1.69-5.337-1.874-8.067,2.8-16.851-.066-24.621a6.348,6.348,0,0,0-3.036-3.765,8.084,8.084,0,0,0-1.944-.515c-1.861-.336-5.565-1.773-7.364-1.2-.664.214-.926.839-1.476,1.214C648.163,478.618,647.053,478.805,646.342,479.517Z" transform="translate(-399.092 -310.343)" fill="#f86d70"/>
      <path id="Path_285" data-name="Path 285" d="M636.194,584.4a12.881,12.881,0,0,1-10.919,6.338,8.6,8.6,0,0,1-3.494-.642c-2.791-1.232-4.368-4.28-4.953-7.277s-.4-6.089-.817-9.116c-.332-2.411-1.04-4.752-1.406-7.159-.9-5.953.874-11.832,2.136-17.76.306-.537.616-1.07.934-1.6a36.353,36.353,0,0,1,3.027-4.368c2.621-3.158,5.988-5.587,9.321-7.98h-3.494a.6.6,0,0,1,.948.415c.345,3.058,4.656,6.115,5.6,9.085.581,1.826,1.28,3.617,1.747,5.477a43.8,43.8,0,0,1,.839,4.8q.93,6.783,1.852,13.54C638.282,573.662,638.946,579.607,636.194,584.4Z" transform="translate(-385.935 -343.007)" opacity="0.1"/>
      <path id="Path_286" data-name="Path 286" d="M627.179,455.981l4.215-13.221a22.952,22.952,0,0,0,1.341-6.067,7.774,7.774,0,0,0-1.926-5.744c-1.179-1.2-2.813-1.821-4.211-2.76-3.494-2.354-5.241-6.477-7.063-10.273s-4.219-7.766-8.194-9.172c-.917-.323-2.184-.349-2.594.528a1.856,1.856,0,0,0-.065,1.144c.384,2.018,1.83,3.63,3.088,5.241,2.11,2.73,3.874,6.071,3.368,9.487-.6,4.045-4.237,7.181-4.674,11.247-.192,1.791.266,3.586.262,5.39a15.044,15.044,0,0,0,.066,3.35,22.5,22.5,0,0,0,.921,2.481,14.493,14.493,0,0,1,.6,4.023l.922,17.192c.5,9.3-4.547,18.345-3.158,27.517.367,2.407,1.074,4.748,1.406,7.159.437,3.027.232,6.115.817,9.116s2.184,6.045,4.953,7.277a8.606,8.606,0,0,0,3.494.642,12.881,12.881,0,0,0,10.919-6.338c2.752-4.8,2.088-10.74,1.337-16.218l-1.852-13.54a43.9,43.9,0,0,0-.839-4.8c-.463-1.861-1.162-3.651-1.747-5.477C626.694,468.189,625.292,461.913,627.179,455.981Z" transform="translate(-382.703 -271.935)" fill="#fbbebe"/>
      <rect id="Rectangle_179" data-name="Rectangle 179" width="97.402" height="62.023" rx="7.97" transform="translate(262.755 185.073)" fill="#3f3d56"/>
      <rect id="Rectangle_180" data-name="Rectangle 180" width="97.402" height="62.023" rx="7.97" transform="translate(262.755 185.073)" opacity="0.2"/>
      <circle id="Ellipse_43" data-name="Ellipse 43" cx="2.621" cy="2.621" r="2.621" transform="translate(308.617 213.464)" fill="#fff"/>
      <path id="Path_287" data-name="Path 287" d="M435.359,611h5.289a10.919,10.919,0,0,1,10.919,10.919v16.209H424.44V621.919A10.92,10.92,0,0,1,435.359,611Z" transform="translate(-239.052 -344.1)" fill="#3f3d56"/>
      <path id="Path_288" data-name="Path 288" d="M435.359,611h5.289a10.919,10.919,0,0,1,10.919,10.919v16.209H424.44V621.919A10.92,10.92,0,0,1,435.359,611Z" transform="translate(-239.052 -344.1)" opacity="0.1"/>
      <circle id="Ellipse_44" data-name="Ellipse 44" cx="2.171" cy="2.171" r="2.171" transform="translate(195.701 268.528)" fill="#3f3d56"/>
      <circle id="Ellipse_45" data-name="Ellipse 45" cx="2.171" cy="2.171" r="2.171" transform="translate(195.701 265.816)" fill="#3f3d56"/>
      <circle id="Ellipse_46" data-name="Ellipse 46" cx="2.171" cy="2.171" r="2.171" transform="translate(195.701 263.104)" fill="#3f3d56"/>
      <circle id="Ellipse_47" data-name="Ellipse 47" cx="2.171" cy="2.171" r="2.171" transform="translate(195.701 260.391)" fill="#3f3d56"/>
      <circle id="Ellipse_48" data-name="Ellipse 48" cx="2.171" cy="2.171" r="2.171" transform="translate(195.701 257.679)" fill="#3f3d56"/>
      <circle id="Ellipse_49" data-name="Ellipse 49" cx="2.171" cy="2.171" r="2.171" transform="translate(195.701 254.966)" fill="#3f3d56"/>
      <circle id="Ellipse_50" data-name="Ellipse 50" cx="2.171" cy="2.171" r="2.171" transform="translate(195.701 252.254)" fill="#3f3d56"/>
      <circle id="Ellipse_51" data-name="Ellipse 51" cx="2.171" cy="2.171" r="2.171" transform="translate(198.955 253.337)" fill="#3f3d56"/>
      <circle id="Ellipse_52" data-name="Ellipse 52" cx="2.171" cy="2.171" r="2.171" transform="translate(201.125 252.254)" fill="#3f3d56"/>
      <circle id="Ellipse_53" data-name="Ellipse 53" cx="2.171" cy="2.171" r="2.171" transform="translate(203.296 251.166)" fill="#3f3d56"/>
      <circle id="Ellipse_54" data-name="Ellipse 54" cx="2.171" cy="2.171" r="2.171" transform="translate(195.701 249.537)" fill="#3f3d56"/>
      <circle id="Ellipse_55" data-name="Ellipse 55" cx="2.171" cy="2.171" r="2.171" transform="translate(195.701 246.825)" fill="#3f3d56"/>
      <circle id="Ellipse_56" data-name="Ellipse 56" cx="2.171" cy="2.171" r="2.171" transform="translate(195.701 244.113)" fill="#3f3d56"/>
      <circle id="Ellipse_57" data-name="Ellipse 57" cx="2.171" cy="2.171" r="2.171" transform="translate(195.701 241.4)" fill="#3f3d56"/>
      <path id="Path_289" data-name="Path 289" d="M541.524,627.569c-.537.079-1.079.135-1.62.17a12.476,12.476,0,0,0,1.4-1.433,9.272,9.272,0,0,0-1.31-2.546,4.464,4.464,0,0,1-1.747.55c-.537.078-1.079.14-1.62.175A29.932,29.932,0,0,0,538.7,622.3a9.216,9.216,0,1,0,3.053,6.835,9.043,9.043,0,0,0-.14-1.585Z" transform="translate(-334.659 -391)" fill="#5ab5f1"/>
      <path id="Path_290" data-name="Path 290" d="M570.463,660.729a4.292,4.292,0,0,1-1.826.612c-.537.079-1.079.135-1.62.17a15.873,15.873,0,0,0,1.607-1.669,5.434,5.434,0,1,0,1.839.874Z" transform="translate(-356.344 -413.375)" fill="#5ab5f1"/>
      <circle id="Ellipse_58" data-name="Ellipse 58" cx="2.171" cy="2.171" r="2.171" transform="translate(192.442 253.337)" fill="#3f3d56"/>
      <circle id="Ellipse_59" data-name="Ellipse 59" cx="2.171" cy="2.171" r="2.171" transform="translate(190.271 252.254)" fill="#3f3d56"/>
      <circle id="Ellipse_60" data-name="Ellipse 60" cx="2.171" cy="2.171" r="2.171" transform="translate(188.101 251.166)" fill="#3f3d56"/>
      <path id="Path_291" data-name="Path 291" d="M504.332,660.729a4.273,4.273,0,0,0,1.826.612c.537.078,1.079.135,1.621.17a15.452,15.452,0,0,1-1.607-1.668,5.434,5.434,0,1,1-1.839.874Z" transform="translate(-322.713 -413.375)" fill="#5ab5f1"/>
      <path id="Path_292" data-name="Path 292" d="M435.359,614.73h5.289a10.919,10.919,0,0,1,10.919,10.919v14.357a1.852,1.852,0,0,1-1.852,1.852H426.292a1.852,1.852,0,0,1-1.852-1.852V625.649A10.919,10.919,0,0,1,435.359,614.73Z" transform="translate(-239.052 -346.201)" fill="#3f3d56"/>
      <g id="Group_24" data-name="Group 24" transform="translate(188.773 229.037)" opacity="0.1">
        <path id="Path_293" data-name="Path 293" d="M564.479,638.77a8.217,8.217,0,0,1-.7.664,7.074,7.074,0,0,0,.743-.066C564.514,639.167,564.5,638.967,564.479,638.77Z" transform="translate(-546.221 -630.644)"/>
        <path id="Path_294" data-name="Path 294" d="M556.32,630.5c.546-.035,1.083-.092,1.625-.17a5.245,5.245,0,0,0,1.411-.384,9.557,9.557,0,0,0-.76-1.254,3.287,3.287,0,0,1-.874.371A12.577,12.577,0,0,1,556.32,630.5Z" transform="translate(-542.02 -624.966)"/>
        <path id="Path_295" data-name="Path 295" d="M524.536,630.357a9.207,9.207,0,0,1,14.2-7.757l.14-.149A9.216,9.216,0,1,0,526.72,636.31,9.172,9.172,0,0,1,524.536,630.357Z" transform="translate(-523.58 -620.165)"/>
      </g>
      <g id="Group_25" data-name="Group 25" transform="translate(205.467 246.283)" opacity="0.1">
        <path id="Path_296" data-name="Path 296" d="M573.72,663.948c.542-.035,1.083-.092,1.62-.17a4.236,4.236,0,0,0,1.826-.611,5.43,5.43,0,0,1,2.184,3.844,4.977,4.977,0,0,0,.031-.572,5.407,5.407,0,0,0-2.184-4.368,4.3,4.3,0,0,1-1.826.611l-.437.052A11.089,11.089,0,0,1,573.72,663.948Z" transform="translate(-568.514 -661.013)"/>
        <path id="Path_297" data-name="Path 297" d="M567.225,660.733a4.439,4.439,0,0,1,.542.039c.284-.3.563-.625.847-.939a5.416,5.416,0,0,0-6.814,5.241,3.724,3.724,0,0,0,.026.542A5.425,5.425,0,0,1,567.225,660.733Z" transform="translate(-561.8 -659.65)"/>
      </g>
      <g id="Group_26" data-name="Group 26" transform="translate(179.404 246.283)" opacity="0.1">
        <path id="Path_298" data-name="Path 298" d="M507.791,663.948c-.542-.035-1.083-.092-1.62-.17a4.215,4.215,0,0,1-1.826-.611,5.429,5.429,0,0,0-2.184,3.844,4.956,4.956,0,0,1-.031-.572,5.407,5.407,0,0,1,2.184-4.368,4.271,4.271,0,0,0,1.826.611l.437.052A10.344,10.344,0,0,0,507.791,663.948Z" transform="translate(-502.13 -661.013)"/>
        <path id="Path_299" data-name="Path 299" d="M512.8,660.733a4.514,4.514,0,0,0-.546.039c-.28-.3-.559-.625-.843-.939a5.416,5.416,0,0,1,6.814,5.241,3.716,3.716,0,0,1-.026.542A5.425,5.425,0,0,0,512.8,660.733Z" transform="translate(-507.357 -659.65)"/>
      </g>
    </g>
    <g id="Group_35" data-name="Group 35" transform="translate(531.793 300.475)">
      <path id="Path_211" data-name="Path 211" d="M691.885,364.153l-35.7,43.313,52.831,62.351,35.221-41.409Z" transform="translate(-271.252 -150.532)" opacity="0.1"/>
      <path id="Path_212" data-name="Path 212" d="M839.957,520.372h0a17.934,17.934,0,0,1,2.91-3.886l32.787-33.239s11.423-1.9,13.8,3.808l-41.885,34.269Z" transform="translate(-453.593 -262.962)" fill="#f2f2f2"/>
      <path id="Path_213" data-name="Path 213" d="M838.476,519.784l48.548,74.25s4.76,3.332,9.519,1.428l49.738-33.555L893.45,481.945l-47.6,37.125Z" transform="translate(-451.86 -261.169)" fill="#addfff"/>
      <rect id="Rectangle_128" data-name="Rectangle 128" width="39.356" height="14.593" transform="matrix(0.83, -0.558, 0.558, 0.83, 413.513, 270.415)" fill="#3f3d56"/>
    </g>
  </g>
</svg>
