<svg id="man-user" xmlns="http://www.w3.org/2000/svg" width="16.011" height="21.05" viewBox="0 0 16.011 21.05">
  <path id="Path_163" data-name="Path 163" d="M108.773,10.295c2.34,0,4.238-2.3,4.238-5.147S112.388,0,108.773,0s-4.238,2.3-4.238,5.147S106.432,10.295,108.773,10.295Z" transform="translate(-100.768)" fill="#686868"/>
  <path id="Path_164" data-name="Path 164" d="M41.9,300.461c0-.173,0-.049,0,0Z" transform="translate(-41.895 -282.307)" fill="#686868"/>
  <path id="Path_165" data-name="Path 165" d="M308.085,301.644c0-.047,0-.329,0,0Z" transform="translate(-292.076 -283.354)" fill="#686868"/>
  <path id="Path_166" data-name="Path 166" d="M57.908,185c-.078-4.952-.725-6.363-5.675-7.257a3.477,3.477,0,0,1-4.641,0c-4.9.884-5.581,2.274-5.672,7.1-.007.394-.011.414-.012.369,0,.086,0,.244,0,.52,0,0,1.178,2.375,8,2.375s8-2.375,8-2.375c0-.177,0-.3,0-.385A3.187,3.187,0,0,1,57.908,185Z" transform="translate(-41.907 -167.05)" fill="#686868"/>
</svg>
