<svg xmlns="http://www.w3.org/2000/svg" width="20.833" height="25" viewBox="0 0 20.833 25">
  <g id="notification" transform="translate(-42.675)">
    <g id="Group_73" data-name="Group 73" transform="translate(42.675)">
      <g id="Group_72" data-name="Group 72">
        <path id="Path_406" data-name="Path 406" d="M63.434,21.086l-1.789-2.981a8.856,8.856,0,0,1-1.262-4.556V10.938a7.3,7.3,0,0,0-5.208-6.984V2.083a2.083,2.083,0,1,0-4.167,0v1.87A7.3,7.3,0,0,0,45.8,10.938v2.611A8.861,8.861,0,0,1,44.538,18.1l-1.789,2.981a.522.522,0,0,0,.446.79H62.987a.521.521,0,0,0,.447-.789Z" transform="translate(-42.675)" fill="#5cb4f1"/>
      </g>
    </g>
    <g id="Group_75" data-name="Group 75" transform="translate(49.811 22.917)">
      <g id="Group_74" data-name="Group 74">
        <path id="Path_407" data-name="Path 407" d="M188.815,469.333a3.624,3.624,0,0,0,6.56,0Z" transform="translate(-188.815 -469.333)" fill="#5cb4f1"/>
      </g>
    </g>
  </g>
</svg>
