<svg id="undraw_bookshelves_xekd-2" xmlns="http://www.w3.org/2000/svg" width="489.832" height="395.222" viewBox="0 0 489.832 395.222">
  <rect id="Rectangle_123" data-name="Rectangle 123" width="198.279" height="350.215" transform="translate(29.197)" fill="#3f3d56"/>
  <ellipse id="Ellipse_20" data-name="Ellipse 20" cx="244.916" cy="5.689" rx="244.916" ry="5.689" transform="translate(0 346.24)" fill="#3f3d56"/>
  <ellipse id="Ellipse_21" data-name="Ellipse 21" cx="169.557" cy="3.938" rx="169.557" ry="3.938" transform="translate(75.359 366.807)" fill="#3f3d56"/>
  <ellipse id="Ellipse_22" data-name="Ellipse 22" cx="138.315" cy="3.213" rx="138.315" ry="3.213" transform="translate(106.678 384.599)" fill="#3f3d56"/>
  <rect id="Rectangle_124" data-name="Rectangle 124" width="198.279" height="1.173" transform="translate(29.197 67.169)" fill="#d0cde1"/>
  <rect id="Rectangle_125" data-name="Rectangle 125" width="198.279" height="1.173" transform="translate(29.197 138.737)" fill="#d0cde1"/>
  <rect id="Rectangle_126" data-name="Rectangle 126" width="198.279" height="1.173" transform="translate(29.197 210.305)" fill="#d0cde1"/>
  <rect id="Rectangle_127" data-name="Rectangle 127" width="198.279" height="1.173" transform="translate(29.197 281.873)" fill="#d0cde1"/>
  <path id="Path_205" data-name="Path 205" d="M373.423,371.585h0l-3.5-10.871-.672.6a18.419,18.419,0,0,1-14.629,4.7l-.894-.092,3.5,10.871h0l2.4,7.461h0L367.7,409.36h0l2.4,7.461h0l2.65,8.241.653-.465a25.131,25.131,0,0,1,14.741-4.74l.8,0-2.65-8.24h0l-2.4-7.461h0l-8.074-25.106h0Zm-18.03-4.329a19.379,19.379,0,0,0,13.962-4.49l2.951,9.178-13.962,4.49Zm3.311,10.295,13.961-4.49,1.681,5.227-13.961,4.49ZM387.341,418.7a26.183,26.183,0,0,0-13.962,4.49l-2.163-6.726,13.962-4.489Zm-2.522-7.843-13.961,4.49-1.681-5.227,13.961-4.49Zm-2.04-6.344L368.817,409,360.744,383.9l13.961-4.49Z" transform="translate(-253.283 -215.481)" fill="#d0cde1"/>
  <path id="Path_206" data-name="Path 206" d="M255.423,249.585h0l-3.5-10.871-.672.6a18.419,18.419,0,0,1-14.629,4.7l-.894-.092,3.5,10.871h0l2.4,7.461h0l8.074,25.106h0l2.4,7.461h0l2.65,8.241.653-.465a25.131,25.131,0,0,1,14.741-4.74l.8,0-2.65-8.241h0l-2.4-7.461h0l-8.074-25.106h0Zm-18.03-4.329a19.372,19.372,0,0,0,13.962-4.49l2.951,9.178-13.962,4.49Zm3.311,10.295,13.961-4.49,1.681,5.227-13.961,4.49ZM269.341,296.7a26.187,26.187,0,0,0-13.962,4.49l-2.163-6.725,13.962-4.49Zm-2.522-7.843-13.961,4.49-1.681-5.227,13.961-4.49Zm-2.04-6.344L250.817,287,242.744,261.9l13.961-4.49Z" transform="translate(-204.505 -165.049)" fill="#d0cde1"/>
  <path id="Path_207" data-name="Path 207" d="M959.526,219.286a8.041,8.041,0,1,1,8.041-8.041A8.041,8.041,0,0,1,959.526,219.286Zm0-14.741a6.7,6.7,0,1,0,6.7,6.7A6.7,6.7,0,0,0,959.526,204.545Z" transform="translate(-500.38 -150.37)" fill="#3f3d56"/>
  <path id="Path_208" data-name="Path 208" d="M980.623,618.861H967.4V605.633h13.228Zm-12.21-1.018h11.193V606.651H968.413Z" transform="translate(-506.957 -316.724)" fill="#3f3d56"/>
  <path id="Path_209" data-name="Path 209" d="M620.333,261.539l-9.022-9.673,9.673-9.022,9.022,9.673Zm-7.584-9.623,7.634,8.185,8.185-7.634-7.634-8.185Z" transform="translate(-359.76 -166.756)" fill="#3f3d56"/>
  <path id="Path_210" data-name="Path 210" d="M674.8,364.153,656.188,386.73l27.539,32.5,18.36-21.585Z" transform="translate(-271.252 -150.532)" fill="#addfff"/>
  <path id="Path_211" data-name="Path 211" d="M674.8,364.153,656.188,386.73l27.539,32.5,18.36-21.585Z" transform="translate(-271.252 -150.532)" opacity="0.1"/>
  <path id="Path_212" data-name="Path 212" d="M839.957,502.454h0a9.349,9.349,0,0,1,1.517-2.026L858.564,483.1s5.954-.992,7.195,1.985L843.926,502.95Z" transform="translate(-454.276 -266.007)" fill="#f2f2f2"/>
  <path id="Path_213" data-name="Path 213" d="M838.476,501.669l25.306,38.7s2.481,1.737,4.962.744l25.927-17.491-27.539-41.681L842.322,501.3Z" transform="translate(-453.665 -265.594)" fill="#addfff"/>
  <rect id="Rectangle_128" data-name="Rectangle 128" width="20.515" height="7.607" transform="matrix(0.83, -0.558, 0.558, 0.83, 399.832, 243.226)" fill="#3f3d56"/>
  <path id="Path_214" data-name="Path 214" d="M867.02,461.639s2.347,17.6-5.866,17.012-4.106-15.839-4.106-15.839Z" transform="translate(-460.917 -257.2)" fill="#ffb8b8"/>
  <path id="Path_215" data-name="Path 215" d="M737.454,351.159l-9.973-1.173v-1.173l-9.386-1.173s-20.532,38.717-19.359,63.355,17.012,132.577,17.012,132.577,24.638-2.347,28.158-9.386L739.8,510.134l-2.346-28.745s15.839,80.368,22.878,80.368,27.571-4.106,25.812-7.039-22.878-93.273-22.878-93.273l-2.346-44-5.28-64.529Z" transform="translate(-395.879 -210.076)" fill="#2f2e41"/>
  <circle id="Ellipse_23" data-name="Ellipse 23" cx="16.425" cy="16.425" r="16.425" transform="translate(333.362 49.57)" fill="#ffb8b8"/>
  <path id="Path_216" data-name="Path 216" d="M779.771,237.612s6.453,14.666,1.76,21.118,25.225-10.559,25.225-10.559S792.09,234.092,791.5,227.639Z" transform="translate(-429.397 -160.471)" fill="#ffb8b8"/>
  <path id="Path_217" data-name="Path 217" d="M784.846,258.639s-15.252,9.386-27.571,5.866l-30.5,49.863,50.45,9.386L788.366,260.4Z" transform="translate(-407.488 -173.285)" fill="#d0cde1"/>
  <path id="Path_218" data-name="Path 218" d="M785.122,254.416s2.346-2.933,5.28-1.173,21.705,2.346,22.878,9.973-28.158,123.778-28.158,123.778l-4.693-1.173s5.28-1.76-15.252-7.039-23.465-22.878-18.772-44,6.453-34.024,6.453-34.024Z" transform="translate(-414.803 -170.822)" fill="#575a89"/>
  <path id="Path_219" data-name="Path 219" d="M740.3,262.547s-20.705,8.854-21.292,11.787-22.878,55.729-22.878,55.729l-4.693,4.106,2.346,1.76-17.012,37.544s.587,4.693,9.386,4.693h5.28s8.8-44.583,14.666-52.8S749.859,270.118,740.3,262.547Z" transform="translate(-386.819 -174.9)" fill="#575a89"/>
  <path id="Path_220" data-name="Path 220" d="M839.676,265.548s7.626-2.347,9.386,12.906a160.939,160.939,0,0,1,1.173,25.225l7.626,79.781-16.425,1.76-14.666-89.754Z" transform="translate(-448.826 -176.087)" fill="#575a89"/>
  <path id="Path_221" data-name="Path 221" d="M724.105,670.72s0,11.733-5.28,13.492-21.118,15.839-2.346,15.252,17.012-9.386,17.012-9.386v-2.346l4.693,2.346,9.386-2.346s2.933-20.532,0-22.292S724.105,670.72,724.105,670.72Z" transform="translate(-399.543 -341.33)" fill="#2f2e41"/>
  <path id="Path_222" data-name="Path 222" d="M799.426,704.768s.587,17.6-6.453,25.811-14.666,19.359-5.28,20.532,26.4-5.866,25.812-9.973,0-5.28,0-5.28h2.933l4.693-3.52s2.933-28.745-2.347-31.091S799.426,704.768,799.426,704.768Z" transform="translate(-430.867 -356.02)" fill="#2f2e41"/>
  <path id="Path_223" data-name="Path 223" d="M724.771,322.331l4.106-5.866s7.626-7.039,12.906-3.52-9.883,13.729-9.883,13.729h-4.237l-1.72,1.175Z" transform="translate(-406.661 -195.326)" fill="#ffb8b8"/>
  <circle id="Ellipse_24" data-name="Ellipse 24" cx="2.346" cy="2.346" r="2.346" transform="translate(338.348 136.097)" fill="#2f2e41"/>
  <circle id="Ellipse_25" data-name="Ellipse 25" cx="2.346" cy="2.346" r="2.346" transform="translate(337.761 144.896)" fill="#2f2e41"/>
  <path id="Path_224" data-name="Path 224" d="M714.771,333.131l7.039-13.492s.086,12.461,4.443,12.683l-9.136,13.128Z" transform="translate(-402.528 -198.501)" fill="#575a89"/>
  <path id="Path_225" data-name="Path 225" d="M741.354,199.493s-9.487-26.878,21.439-24.037c0,0,19.882-8.242,32.229,16.19l12.7,25.663-3.741-1.1-.828,3.749-5.133,2.54-3.313-4.111.079,5.84-43.5,13.978s17.382-16.051,13.166-37.222l-2.932,4.822Z" transform="translate(-412.949 -138.346)" fill="#2f2e41"/>
  <path id="Path_226" data-name="Path 226" d="M476.361,563.12V569.6a6.407,6.407,0,0,1-6.315,6.482h-18.46a6.407,6.407,0,0,1-6.315-6.482V563.12a6.407,6.407,0,0,1,6.315-6.482h5.83v-.5h6.8v.5h5.83a6.407,6.407,0,0,1,6.315,6.482Z" transform="translate(-291.123 -296.264)" fill="#addfff"/>
  <path id="Path_227" data-name="Path 227" d="M475.188,519.842h-7.039V509.87h-3.52v-5.151a2.445,2.445,0,0,0,.827.135c1.889,0,4.828-1.578,7.356-3.619a16.183,16.183,0,0,0,4.939-7.5l.217-.792-.815.047a16.138,16.138,0,0,0-8.389,3.226,20.481,20.481,0,0,0-4.136,4.347v-7.409c1.543-1.038,2.346-4.787,2.346-8.506a16.135,16.135,0,0,0-2.751-8.553l-.475-.663-.475.663a16.135,16.135,0,0,0-2.751,8.553c0,4.165,1.009,8.371,2.933,8.758V509.87h-3.52v9.973H452.9a7.633,7.633,0,0,0-7.626,7.626v7.626a7.633,7.633,0,0,0,7.626,7.626h22.292a7.633,7.633,0,0,0,7.626-7.626v-7.626a7.633,7.633,0,0,0-7.626-7.626Zm-5.69-22.72a14.931,14.931,0,0,1,6.828-2.857,14.863,14.863,0,0,1-4.247,6.06c-3.573,2.874-6.717,3.819-7.227,3.18S465.932,500,469.5,497.122Zm-7.8-12.478a14.9,14.9,0,0,1,2.053-7.11,14.857,14.857,0,0,1,2.053,7.11c0,4.587-1.238,7.626-2.053,7.626s-2.053-3.039-2.053-7.626Zm19.945,50.45a6.457,6.457,0,0,1-6.453,6.453H452.9a6.457,6.457,0,0,1-6.453-6.453v-7.626a6.457,6.457,0,0,1,6.453-6.453h8.213v-9.973h5.866v9.973h8.213a6.457,6.457,0,0,1,6.453,6.453Z" transform="translate(-291.123 -262.901)" fill="#d0cde1"/>
  <path id="Path_228" data-name="Path 228" d="M337.109,384.139v2.01H322.444v-2.01h-1.173V424.03h1.173v-1.222h14.666v1.222h1.173V384.139Zm0,31.836H322.444V392.982h14.666Z" transform="translate(-239.864 -225.164)" fill="#addfff"/>
  <path id="Path_229" data-name="Path 229" d="M298.109,391.139v1.8H283.444v-1.8h-1.173v35.784h1.173v-1.1h14.666v1.1h1.173V391.139Zm0,28.558H283.444V399.071h14.666Z" transform="translate(-223.743 -228.057)" fill="#addfff"/>
  <path id="Path_230" data-name="Path 230" d="M259.109,384.139v1.892H244.444v-1.892h-1.173v37.544h1.173v-1.15h14.666v1.15h1.173V384.139Zm0,29.963H244.444V392.461h14.666Z" transform="translate(-207.621 -225.164)" fill="#addfff"/>
  <path id="Path_231" data-name="Path 231" d="M543.109,264.139v2.01H528.444v-2.01h-1.173v39.89h1.173v-1.222h14.666v1.222h1.173v-39.89Zm0,31.836H528.444V272.982h14.666Z" transform="translate(-325.02 -175.559)" fill="#addfff"/>
  <path id="Path_232" data-name="Path 232" d="M504.109,271.139v1.8H489.444v-1.8h-1.173v35.784h1.173v-1.1h14.666v1.1h1.173V271.139Zm0,28.558H489.444V279.071h14.666Z" transform="translate(-308.898 -178.452)" fill="#addfff"/>
  <path id="Path_233" data-name="Path 233" d="M465.109,264.139v1.892H450.444v-1.892h-1.173v37.544h1.173v-1.15h14.666v1.15h1.173V264.139Zm0,29.963H450.444V272.461h14.666Z" transform="translate(-292.776 -175.559)" fill="#addfff"/>
  <path id="Path_234" data-name="Path 234" d="M337.461,364.967a18.409,18.409,0,0,1-15.37,0l-.821-.358v62.124l.763-.246a25.123,25.123,0,0,1,15.487,0l.763.246V364.609Zm-15.018,45.27V383.862h14.666v26.375Zm14.666,1.173V416.9H322.444V411.41Zm-14.666-28.721V377.2h14.666v5.491Zm14.666,42.448a26.27,26.27,0,0,0-14.666,0v-7.063h14.666Zm0-49.112H322.444v-9.638a19.407,19.407,0,0,0,14.666,0Z" transform="translate(-239.864 -217.091)" fill="#d0cde1"/>
  <path id="Path_235" data-name="Path 235" d="M298.519,426.488l.764.242V364.608l-.823.361a18.415,18.415,0,0,1-15.367,0l-.823-.361V426.73l.764-.242A25.12,25.12,0,0,1,298.519,426.488Zm-.409-9.587H283.444v-5.491h14.666Zm0-34.21H283.444V377.2h14.666Zm-14.666-16.3a19.393,19.393,0,0,0,14.666,0v9.64H283.444Zm0,17.478h14.666v26.372H283.444Zm0,34.21h14.666v7.065a26.182,26.182,0,0,0-14.666,0Z" transform="translate(-223.743 -217.09)" fill="#d0cde1"/>
  <path id="Path_236" data-name="Path 236" d="M259.519,426.488l.764.242V364.608l-.823.361a18.415,18.415,0,0,1-15.367,0l-.823-.361V426.73l.764-.242A25.12,25.12,0,0,1,259.519,426.488Zm-.409-9.587H244.444v-5.491h14.666Zm0-34.21H244.444V377.2h14.666Zm-14.666-16.3a19.393,19.393,0,0,0,14.666,0v9.64H244.444Zm0,17.478h14.666v26.372H244.444Zm0,34.21h14.666v7.065a26.182,26.182,0,0,0-14.666,0Z" transform="translate(-207.621 -217.09)" fill="#d0cde1"/>
  <path id="Path_237" data-name="Path 237" d="M465.519,304.488l.764.242V242.608l-.823.361a18.415,18.415,0,0,1-15.367,0l-.823-.361V304.73l.764-.242A25.129,25.129,0,0,1,465.519,304.488Zm-.409-9.587H450.444V289.41h14.666Zm0-34.21H450.444V255.2h14.666Zm-14.666-16.3a19.393,19.393,0,0,0,14.666,0v9.64H450.444Zm0,17.478h14.666v26.372H450.444Zm0,34.21h14.666v7.065a26.189,26.189,0,0,0-14.666,0Z" transform="translate(-292.776 -166.658)" fill="#d0cde1"/>
  <path id="Path_238" data-name="Path 238" d="M504.519,304.488l.764.242V242.608l-.823.361a18.415,18.415,0,0,1-15.367,0l-.823-.361V304.73l.764-.242A25.129,25.129,0,0,1,504.519,304.488Zm-.409-9.587H489.444V289.41h14.666Zm0-34.21H489.444V255.2h14.666Zm-14.666-16.3a19.393,19.393,0,0,0,14.666,0v9.64H489.444Zm0,17.478h14.666v26.372H489.444Zm0,34.21h14.666v7.065a26.189,26.189,0,0,0-14.666,0Z" transform="translate(-308.898 -166.658)" fill="#d0cde1"/>
  <path id="Path_239" data-name="Path 239" d="M543.518,304.488l.764.242V242.608l-.823.361a18.415,18.415,0,0,1-15.367,0l-.823-.361V304.73l.764-.242A25.128,25.128,0,0,1,543.518,304.488Zm-.409-9.587H528.444V289.41h14.666Zm0-34.21H528.444V255.2h14.666Zm-14.666-16.3a19.393,19.393,0,0,0,14.666,0v9.64H528.444Zm0,17.478h14.666v26.372H528.444Zm0,41.275v-7.065h14.666v7.065A26.19,26.19,0,0,0,528.444,303.138Z" transform="translate(-325.02 -166.658)" fill="#d0cde1"/>
</svg>
