<svg id="tick" xmlns="http://www.w3.org/2000/svg" width="26.534" height="19.66" viewBox="0 0 26.534 19.66">
  <path id="Path_203" data-name="Path 203" d="M26.062,66.795a1.617,1.617,0,0,0-2.288,0L8.494,82.074,2.762,76.342A1.618,1.618,0,1,0,.473,78.63L7.35,85.507a1.617,1.617,0,0,0,2.288,0L26.062,69.083A1.62,1.62,0,0,0,26.062,66.795Z" transform="translate(0 -66.32)" fill="#71de56"/>
  <path id="Path_204" data-name="Path 204" d="M256.952,66.795a1.617,1.617,0,0,0-2.288,0L243.511,77.948v4.576l13.441-13.441A1.62,1.62,0,0,0,256.952,66.795Z" transform="translate(-230.891 -66.32)" fill="#71de56"/>
</svg>
