<svg xmlns="http://www.w3.org/2000/svg" xmlns:xlink="http://www.w3.org/1999/xlink" width="444.364" height="305.798" viewBox="0 0 444.364 305.798">
  <defs>
    <linearGradient id="linear-gradient" x1="0.5" y1="1.001" x2="0.5" gradientUnits="objectBoundingBox">
      <stop offset="0" stop-color="gray" stop-opacity="0.251"/>
      <stop offset="0.54" stop-color="gray" stop-opacity="0.122"/>
      <stop offset="1" stop-color="gray" stop-opacity="0.102"/>
    </linearGradient>
    <linearGradient id="linear-gradient-2" x1="0.141" y1="0.451" x2="1.272" y2="0.451" xlink:href="#linear-gradient"/>
  </defs>
  <g id="undraw_going_up_ttm5" transform="translate(0.002 -0.03)">
    <path id="Path_301" data-name="Path 301" d="M749.21,281.025a2.944,2.944,0,0,0,.534-1.638c0-3.558-7.248-6.437-16.19-6.437s-16.19,2.879-16.19,6.437a3.035,3.035,0,0,0,.667,1.826c-9.956,1.112-16.662,3.2-16.662,5.586,0,3.554,14.824,6.437,33.16,6.437s33.159-2.883,33.159-6.437C767.67,284.283,760.133,282.079,749.21,281.025Z" transform="translate(-439.645 -189.096)" fill="#5ab5f1" opacity="0.1"/>
    <g id="Group_27" data-name="Group 27" transform="translate(328.005 22.806)" opacity="0.2">
      <path id="Path_302" data-name="Path 302" d="M940.277,753.111a18.658,18.658,0,0,0-.168,3.066q10.2.164,20.485.687c.047-.265.094-.542.133-.819a16.288,16.288,0,0,0-.956-8.473c-1.412-3.445-4.046-5.906-7.342-6.378s-6.511,1.147-8.832,4.038A16.251,16.251,0,0,0,940.277,753.111Z" transform="translate(-913.25 -497.429)" fill="#3f3d56"/>
      <ellipse id="Ellipse_61" data-name="Ellipse 61" cx="13.521" cy="10.33" rx="13.521" ry="10.33" transform="translate(27.474 252.715) rotate(-81.82)" fill="#3f3d56"/>
      <ellipse id="Ellipse_62" data-name="Ellipse 62" cx="13.521" cy="10.33" rx="13.521" ry="10.33" transform="translate(29.824 236.36) rotate(-81.82)" fill="#3f3d56"/>
      <ellipse id="Ellipse_63" data-name="Ellipse 63" cx="13.521" cy="10.33" rx="13.521" ry="10.33" transform="translate(32.174 220.001) rotate(-81.82)" fill="#3f3d56"/>
      <ellipse id="Ellipse_64" data-name="Ellipse 64" cx="13.521" cy="10.33" rx="13.521" ry="10.33" transform="translate(34.524 203.641) rotate(-81.82)" fill="#3f3d56"/>
      <path id="Path_303" data-name="Path 303" d="M972.292,201.745a50.182,50.182,0,0,0,4.615-5.071l-26.231-8.259,29.024,4.393a49.575,49.575,0,0,0,6.511-38.684l-41.883,14.618,39.741-21.249a49.478,49.478,0,1,0-88.758,43.189,49.543,49.543,0,0,0-6.866,8.13l32.27,23.126-35.387-17.82a49.493,49.493,0,0,0,1.287,47.118A49.474,49.474,0,1,0,963.6,262.3a49.482,49.482,0,0,0,8.7-60.553Z" transform="translate(-871.276 -116.464)" fill="#5ab5f1"/>
      <path id="Path_304" data-name="Path 304" d="M880.477,379.669a49.244,49.244,0,0,0,6.129,31.782,49.474,49.474,0,1,0,76.981,11.064C971.346,415.127,881.265,374.173,880.477,379.669Z" transform="translate(-871.27 -276.681)" opacity="0.1"/>
    </g>
    <g id="Group_28" data-name="Group 28" transform="translate(-0.002 38.561)" opacity="0.2">
      <path id="Path_305" data-name="Path 305" d="M196.559,713.925a15.858,15.858,0,0,0,.683,2.59q8.313-2.676,16.8-5.071c-.031-.234-.066-.476-.109-.718a14.356,14.356,0,0,0-3.035-6.772c-2.064-2.469-4.857-3.788-7.658-3.269s-4.978,2.731-6.09,5.789A14.555,14.555,0,0,0,196.559,713.925Z" transform="translate(-131.62 -488.46)" fill="#3f3d56"/>
      <ellipse id="Ellipse_65" data-name="Ellipse 65" cx="8.832" cy="11.817" rx="8.832" ry="11.817" transform="translate(60.62 199.338) rotate(-8.99)" fill="#3f3d56"/>
      <ellipse id="Ellipse_66" data-name="Ellipse 66" cx="8.857" cy="11.85" rx="8.857" ry="11.85" transform="matrix(0.987, -0.16, 0.16, 0.987, 59.24, 185.397)" fill="#3f3d56"/>
      <ellipse id="Ellipse_67" data-name="Ellipse 67" cx="8.832" cy="11.817" rx="8.832" ry="11.817" transform="translate(55.703 170.881) rotate(-8.99)" fill="#3f3d56"/>
      <ellipse id="Ellipse_68" data-name="Ellipse 68" cx="8.832" cy="11.817" rx="8.832" ry="11.817" transform="translate(53.249 156.65) rotate(-8.99)" fill="#3f3d56"/>
      <path id="Path_306" data-name="Path 306" d="M109.981,220.442a44.083,44.083,0,0,0,2.391-5.462l-23.485.367,24.718-4.358a44.172,44.172,0,0,0,.733-18.515,43.65,43.65,0,0,0-5.766-15.382L78.492,200.776l26.574-28.607a41.578,41.578,0,0,0-39.69-14.629c-23,4.221-38.317,26.723-34.256,50.247a43.193,43.193,0,0,0,13.451,24.7,43.8,43.8,0,0,0-3.406,8.641l32.348,10.3-33.476-5.036A44.169,44.169,0,0,0,40.2,260.46a43.194,43.194,0,0,0,13.451,24.7A44.059,44.059,0,0,0,49.3,313.133c4.061,23.528,25.982,39.167,48.963,34.935s38.317-26.731,34.256-50.258a43.205,43.205,0,0,0-13.451-24.694,44.083,44.083,0,0,0,4.358-27.979,43.205,43.205,0,0,0-13.439-24.694Z" transform="translate(-30.468 -156.85)" fill="#5ab5f1"/>
      <path id="Path_307" data-name="Path 307" d="M55.441,420.382a43.193,43.193,0,0,0,13.451,24.7,44.059,44.059,0,0,0-4.358,27.975C68.6,496.583,90.516,512.222,113.5,507.99s38.317-26.731,34.256-50.258A43.2,43.2,0,0,0,134.3,433.037C138.628,424.759,54.613,415.6,55.441,420.382Z" transform="translate(-45.695 -316.772)" opacity="0.1"/>
    </g>
    <path id="Path_308" data-name="Path 308" d="M144.32,651.45c0,20.407,12.8,36.916,28.619,36.916" transform="translate(-99.907 -419.939)" fill="#46455b"/>
    <path id="Path_309" data-name="Path 309" d="M217.68,687.72c0-20.633,14.286-37.33,31.942-37.33" transform="translate(-144.648 -419.292)" fill="#5ab5f1"/>
    <path id="Path_310" data-name="Path 310" d="M170.9,656.19c0,19.385,8.161,35.067,18.249,35.067" transform="translate(-116.118 -422.83)" fill="#5ab5f1"/>
    <path id="Path_311" data-name="Path 311" d="M217.68,671.509c0-26.364,16.513-47.7,36.92-47.7" transform="translate(-144.648 -403.082)" fill="#46455b"/>
    <ellipse id="Ellipse_69" data-name="Ellipse 69" cx="199.348" cy="6.628" rx="199.348" ry="6.628" transform="translate(6.572 277.221)" fill="#5ab5f1" opacity="0.1"/>
    <ellipse id="Ellipse_70" data-name="Ellipse 70" cx="7.287" cy="1.233" rx="7.287" ry="1.233" transform="translate(62.44 271.201)" fill="#5ab5f1" opacity="0.1"/>
    <path id="Path_312" data-name="Path 312" d="M196.66,738.166s4.159-.125,5.411-1.018,6.39-1.951,6.7-.527,6.242,7.116,1.56,7.151-10.9-.73-12.152-1.49S196.66,738.166,196.66,738.166Z" transform="translate(-131.829 -471.458)" fill="#a8a8a8"/>
    <path id="Path_313" data-name="Path 313" d="M210.412,746.774c-4.681.035-10.9-.733-12.152-1.494-.952-.577-1.334-2.661-1.459-3.62h-.14s.265,3.355,1.514,4.116,7.463,1.529,12.152,1.49c1.354,0,1.822-.492,1.8-1.205C211.937,746.5,211.418,746.767,210.412,746.774Z" transform="translate(-131.829 -474.957)" opacity="0.2"/>
    <ellipse id="Ellipse_76" data-name="Ellipse 76" cx="77" cy="77.5" rx="77" ry="77.5" transform="translate(131.498 16.448)" fill="#5cb4f1"/>
    <path id="Path_314" data-name="Path 314" d="M447.915,215.143v30.39H422.323v-30.39H395.132l39.987-39.967,39.987,39.987Z" transform="translate(-225.688 -113.929)" fill="#fff"/>
    <path id="Path_315" data-name="Path 315" d="M388.191,154.7c-.39-2.228-.2-4.627-1.221-6.632a1.443,1.443,0,0,0-.464-.6,1.6,1.6,0,0,0-.831-.191c-.925-.035-1.845-.047-2.77-.023a.767.767,0,0,0-.694.265.28.28,0,0,0-.035.078c-1.057-1.17-1.857-2.649-3-3.741.164-.055.324-.105.492-.148a1.568,1.568,0,0,0-.062-.328.4.4,0,0,0-.027-.1c-.008-.031-.035-.148-.059-.222a.719.719,0,0,0-.039-.109,2.154,2.154,0,0,0-.07-.207.3.3,0,0,0-.043-.105l-.082-.207-.047-.1c-.031-.07-.062-.14-.1-.207l-.047-.086c-.035-.074-.074-.148-.113-.222l-.039-.07c-.043-.078-.09-.156-.133-.238a.161.161,0,0,1-.027-.043c-.051-.09-.105-.179-.16-.265h0c-.445-.726-.936-1.44-1.3-2.185a28.207,28.207,0,0,1-1.272-4.186,5.652,5.652,0,0,0-2.434-3.484c-.613-.312-1.432-.589-1.49-1.28a1.523,1.523,0,0,1,.137-.644,8.614,8.614,0,0,1,.636-1.291c.094-.148.191-.3.289-.445l.078-.105c.078-.109.16-.218.242-.32l.1-.129c.082-.1.168-.2.254-.293l.105-.113c.121-.129.242-.254.371-.39a.9.9,0,0,0,.273-.347,1.054,1.054,0,0,0,.02-.414,4.951,4.951,0,0,1,1.17-3.055,11.688,11.688,0,0,0,1.783-2.8c.043-.121.078-.242.109-.367a1.093,1.093,0,0,0,.027-.121c.02-.082.035-.164.051-.25l.023-.14a2.181,2.181,0,0,1,.027-.23v-.913a1.183,1.183,0,0,0-.02-.246v-.133a2.367,2.367,0,0,0-.039-.285v-.094q-.027-.191-.07-.39h0a19.513,19.513,0,0,0-.718-2.442,8.732,8.732,0,0,0-.593-1.42c.144-.027.293-.059.437-.1q-.172-.269-.316-.554a14.53,14.53,0,0,0,1.993-4.326,20.022,20.022,0,0,0,.39-3.343,69.348,69.348,0,0,0,.152-10.143V94.1a8.191,8.191,0,0,0,.023-2.185,9.175,9.175,0,0,0-1.225-4.03,4.914,4.914,0,0,0-3.394-2.387,5.367,5.367,0,0,1-.757.7,2.976,2.976,0,0,1-.886-1.377,7.494,7.494,0,0,0,6.285-6.562c0-.121.027-.246.035-.367V76.829a1.1,1.1,0,0,0-.023-.254.71.71,0,0,0,0-.09l-.035-.273v-.059a1.533,1.533,0,0,0-.051-.293V75.83c-.02-.105-.043-.207-.07-.312h0a7.516,7.516,0,0,0-.823-2.021,7.522,7.522,0,0,0,.593-2.169c0-.137.027-.269.035-.39s0-.172,0-.257v-.46a.111.111,0,0,1,0-.035,7.584,7.584,0,0,0-2.1-5.017,4.389,4.389,0,0,0,.371-.78h0c.031-.082.058-.164.082-.25h0c.023-.082.047-.16.066-.242v-.02l.047-.222a.116.116,0,0,1,0-.039,2.175,2.175,0,0,1,.039-.265,2.141,2.141,0,0,1,.023-.273v-.644a4.615,4.615,0,0,0-9.2-.207,4.765,4.765,0,0,0,.043,1.416,7.549,7.549,0,0,0-4.186,5.887,7.658,7.658,0,0,0-.043,1.264,7.611,7.611,0,0,0-1.17,3.511h0v.14c0,.156-.02.316-.02.472a7.58,7.58,0,0,0,2.914,6,5.332,5.332,0,0,0,1.475,1.56,5.877,5.877,0,0,1,.238.975,2.957,2.957,0,0,1-.9,2.423c-.168.14-.355.257-.531.39a.987.987,0,0,0-.542,0,7.868,7.868,0,0,0-4.865,3.8,7.417,7.417,0,0,0-.484,1.358l-.109.168a19.506,19.506,0,0,0-2.6,6.242,13.761,13.761,0,0,1-.944,3.347,3.453,3.453,0,0,0-.308.683,6.814,6.814,0,0,0-.047,1.1,17.706,17.706,0,0,1-.57,1.9c-.078.39-.062.78-.129,1.17a11.94,11.94,0,0,1-.73,1.951c-.414,1.147-.41,2.407-.718,3.589a1.26,1.26,0,0,1-.242.534,2.751,2.751,0,0,1-.811.437,1.791,1.791,0,0,0-.815,1.221,5.371,5.371,0,0,0-.027,1.521l.152,1.978-2.216.671-3.636,1.112a10.822,10.822,0,0,0-3.019,1.276,5.551,5.551,0,0,0-1.9,2.309,11.632,11.632,0,0,0-.706,3.016,45.808,45.808,0,0,1-1.869,8.5c-.074.211-.152.425-.23.636h0l-.246.62c-.02.043-.039.086-.055.129l-.211.5c-.094.211-.191.417-.293.624l8.516,2.84a2.751,2.751,0,0,0,.035.332c.3,2.091.152,4.213.425,6.308a4.079,4.079,0,0,0,.238,1.018,1.451,1.451,0,0,0-.449.71,3.777,3.777,0,0,0-.043,1.358c.1,1.069.191,2.138.289,3.207a4.961,4.961,0,0,1,0,1.17,12.58,12.58,0,0,1-.733,2,1.756,1.756,0,0,0,.347,1.951,1.381,1.381,0,0,0,1.342.121,3.152,3.152,0,0,0,1.112-.854c1.713-1.9,2.481-4.475,3.811-6.671a12.58,12.58,0,0,0,.913-1.588c.183-.425.3-.878.449-1.319a13.553,13.553,0,0,1,.733-1.713c.16-.316.78-1.077.64-1.428-.218-.6-2.555-1.135-3.121-1.322a1.561,1.561,0,0,0-1.143-.051.718.718,0,0,0-.156.1l-.2-2.579c.347-.031.691-.074,1.03-.133q0-.726-.035-1.463c0-.445-.019-.893-.031-1.342-.023-1.092-.047-2.185-.074-3.257a18.044,18.044,0,0,0-.121-1.892c-.133-.956-.425-1.892-.519-2.856a1.089,1.089,0,0,1,.484-.218h0a3.426,3.426,0,0,1,.827-.031h.218a7.085,7.085,0,0,0,3.445-.952c1.073-.558,2.068-1.256,3.121-1.83l.39-.207.148-.074.25-.125.207-.1.047-.023c.62-.3,1.248-.585,1.849-.909a2.093,2.093,0,0,0,.133.191,1.245,1.245,0,0,0,1.3.472,20.3,20.3,0,0,0-1.822,5.411c-.32,2.774.78,5.462,1.876,8.044l3.468,8.192c.39.905.893,1.919,1.841,2.134a2.731,2.731,0,0,0,1.74-.347,32.587,32.587,0,0,0,4.471-2.856l.058.047a15.256,15.256,0,0,1,3.047,3.87l2.43,3.995a1.206,1.206,0,0,0,.1.585,3.407,3.407,0,0,0,.683.886,11.5,11.5,0,0,1,2.926,5.988,3.679,3.679,0,0,0,.484,1.631,2.394,2.394,0,0,0,3.019.332,1.9,1.9,0,0,0,.757-.624,2.465,2.465,0,0,0,.3-.944,13.021,13.021,0,0,0,.293-2.512A29.3,29.3,0,0,0,388.191,154.7ZM374.237,81.194a5.707,5.707,0,0,0,.492-.363,7.545,7.545,0,0,1-1.56,2.676h0c-.164.179-.339.347-.519.511v-.125c-.019-.39,0-.823,0-1.237A5.22,5.22,0,0,0,374.237,81.194Zm-13.775,30.784.023-.074a1.49,1.49,0,0,1,.355.363,1.475,1.475,0,0,0,.055,1.322c.2.343.57.663.492,1.057s-.577.55-.983.616c-.534.086-1.061.183-1.588.289v-.027a4.094,4.094,0,0,0-.175-1.3A3.755,3.755,0,0,0,360.462,111.978Z" transform="translate(-217.865 -58.05)" fill="url(#linear-gradient)"/>
    <path id="Path_316" data-name="Path 316" d="M415.8,68.9a4.631,4.631,0,1,0-8.582-2.922,4.538,4.538,0,0,0,.043,1.4,7.412,7.412,0,0,0-4.229,7.073,7.443,7.443,0,1,0,13.7,4.061v-.355a7.447,7.447,0,0,0-.909-9.257Z" transform="translate(-256.965 -60.386)" fill="#46455b"/>
    <g id="Group_29" data-name="Group 29" transform="translate(144.855 5.535)" opacity="0.1">
      <path id="Path_317" data-name="Path 317" d="M415.59,72.477l.062-.035a2.385,2.385,0,0,1-.035-.242.229.229,0,0,0,0,.051A2.1,2.1,0,0,0,415.59,72.477Z" transform="translate(-410.206 -72.196)"/>
      <path id="Path_318" data-name="Path 318" d="M417.828,91.866a7.411,7.411,0,0,1-1.151,3.172v.351a7.443,7.443,0,0,1-14.859.6c0,.2-.027.39-.027.609a7.443,7.443,0,1,0,14.887,0v-.355a7.37,7.37,0,0,0,1.151-3.172,7.183,7.183,0,0,0,.027-1.5A1.09,1.09,0,0,1,417.828,91.866Z" transform="translate(-401.79 -84.01)"/>
      <path id="Path_319" data-name="Path 319" d="M438.232,72.19a4.646,4.646,0,0,1-.612,1.771c.133.133.254.273.39.414a4.617,4.617,0,0,0,.242-1.018A4.485,4.485,0,0,0,438.232,72.19Z" transform="translate(-423.642 -72.19)"/>
    </g>
    <path id="Path_320" data-name="Path 320" d="M360,272.619a3.375,3.375,0,0,0,.339,1.217,1.334,1.334,0,0,0,.987.722,1.99,1.99,0,0,0,1.088-.316,3.723,3.723,0,0,0,1.693-1.412,3.833,3.833,0,0,0,.23-2.126l-.445-5.676c-1.069-.031-2.146-.031-3.218.027s-1.248.308-1.1,1.346C359.871,268.461,359.715,270.555,360,272.619Z" transform="translate(-231.163 -184.252)" fill="#fbbebe"/>
    <path id="Path_321" data-name="Path 321" d="M435.312,283.622l2.547,4.12a1.015,1.015,0,0,0,.558.523.847.847,0,0,0,.531-.094,6.63,6.63,0,0,0,2.126-1.763,3.9,3.9,0,0,0,1.022-1.56,1.994,1.994,0,0,0-.507-1.876,6,6,0,0,0-.956-.694c-2.017-1.361-2.926-3.944-4.915-5.341a.78.78,0,0,0-.39-.176.858.858,0,0,0-.414.14l-2.731,1.49c-1.17.644-.808.722.09,1.416A15.468,15.468,0,0,1,435.312,283.622Z" transform="translate(-275.02 -191.42)" fill="#fbbebe"/>
    <path id="Path_322" data-name="Path 322" d="M364.971,275.9a1.56,1.56,0,0,0-1.143-.039,1.257,1.257,0,0,0-.6.94,11.493,11.493,0,0,1-.168,1.143,3.9,3.9,0,0,1-1.112,1.56,1.662,1.662,0,0,1-.7.488c-.371.094-.761-.078-1.135,0a1.241,1.241,0,0,0-.893.913,3.583,3.583,0,0,0-.043,1.338l.289,3.16a4.837,4.837,0,0,1,0,1.17,12.277,12.277,0,0,1-.733,1.974,1.76,1.76,0,0,0,.347,1.951,1.408,1.408,0,0,0,1.346.117,3.122,3.122,0,0,0,1.112-.843c1.716-1.873,2.485-4.412,3.819-6.573a12.622,12.622,0,0,0,.913-1.56c.183-.421.3-.866.449-1.3a12.944,12.944,0,0,1,.737-1.689c.156-.312.78-1.061.64-1.408C367.893,276.608,365.549,276.082,364.971,275.9Z" transform="translate(-230.594 -190.816)" fill="#46455b"/>
    <path id="Path_323" data-name="Path 323" d="M450.215,291.617a3.285,3.285,0,0,1-1.81,1.56,1.666,1.666,0,0,0-.612.316.952.952,0,0,0-.109,1.042,3.367,3.367,0,0,0,.687.874,11.286,11.286,0,0,1,2.926,5.9,3.671,3.671,0,0,0,.488,1.611c.651.893,2.044.835,3.027.324a1.95,1.95,0,0,0,.757-.612,2.411,2.411,0,0,0,.3-.932,12.673,12.673,0,0,0,.293-2.477,26.551,26.551,0,0,0-.889-4.623c-.39-2.2-.2-4.564-1.225-6.546a1.444,1.444,0,0,0-.456-.6,1.643,1.643,0,0,0-.835-.187c-.921-.035-1.849-.043-2.774-.023a.774.774,0,0,0-.694.261.8.8,0,0,0,.1.753C449.958,289.378,450.886,290.263,450.215,291.617Z" transform="translate(-284.859 -197.808)" fill="#46455b"/>
    <path id="Path_324" data-name="Path 324" d="M361.261,195.195a1.432,1.432,0,0,0-.335,1.8c.207.339.573.655.492,1.045s-.577.538-.983.6a80.372,80.372,0,0,0-10.533,2.664l-3.644,1.1a10.871,10.871,0,0,0-3.027,1.256,5.461,5.461,0,0,0-1.9,2.274,11.312,11.312,0,0,0-.71,2.973,36.307,36.307,0,0,1-2.906,10.861l8.828,2.9a12.976,12.976,0,0,0,2.649.663,9.7,9.7,0,0,0,2.579-.125c-.055-1.97-.09-4-.144-5.977a16.49,16.49,0,0,0-.121-1.865c-.133-.944-.425-1.865-.519-2.817a2.258,2.258,0,0,1,1.529-.238,7.236,7.236,0,0,0,3.456-.932c1.069-.554,2.068-1.241,3.121-1.806,1.775-.94,3.8-1.56,5.153-3.055-.691,2.633-2.341,4.927-2.641,7.631s.78,5.4,1.884,7.927l3.476,8.068c.39.889.893,1.892,1.841,2.1a2.789,2.789,0,0,0,1.744-.343c3.2-1.5,5.758-4.319,9.175-5.216-.257-1.693-1.592-3.094-2.341-4.627a27.04,27.04,0,0,1-1.272-4.127,5.545,5.545,0,0,0-2.442-3.433c-.612-.308-1.436-.581-1.49-1.264a1.4,1.4,0,0,1,.137-.636,8.219,8.219,0,0,1,2.079-3.023.972.972,0,0,0,.273-.343,1.089,1.089,0,0,0,.019-.39,4.821,4.821,0,0,1,1.17-3.012,11.56,11.56,0,0,0,1.787-2.758c.636-1.783,0-3.741-.624-5.524a5.563,5.563,0,0,0-1.046-2.025,5.147,5.147,0,0,0-3.285-1.26C368.845,193.83,364.324,192.819,361.261,195.195Z" transform="translate(-217.853 -140.748)" fill="#46455b"/>
    <g id="Group_30" data-name="Group 30" transform="translate(119.849 54.326)" opacity="0.1">
      <path id="Path_325" data-name="Path 325" d="M429.768,212.792a4.734,4.734,0,0,0-1.17,3.012,1.088,1.088,0,0,1-.019.39.972.972,0,0,1-.273.343,8.219,8.219,0,0,0-2.079,3.023,1.4,1.4,0,0,0-.137.636,1.221,1.221,0,0,0,.78.913,8.193,8.193,0,0,1,1.443-1.756.971.971,0,0,0,.273-.343,1.088,1.088,0,0,0,.02-.39,4.822,4.822,0,0,1,1.17-3.012,11.556,11.556,0,0,0,1.787-2.758,5.727,5.727,0,0,0,.094-3.121q-.039.152-.094.3A11.393,11.393,0,0,1,429.768,212.792Z" transform="translate(-391.604 -204.865)"/>
      <path id="Path_326" data-name="Path 326" d="M397.05,197.915a.737.737,0,0,0,.558-.5.5.5,0,0,0,0-.152l-.168.121A1.358,1.358,0,0,0,397.05,197.915Z" transform="translate(-373.893 -197.26)"/>
      <path id="Path_327" data-name="Path 327" d="M349.175,257.442a12.973,12.973,0,0,1-2.649-.663l-7.8-2.559a22.446,22.446,0,0,1-1.034,2.477l8.836,2.9a12.977,12.977,0,0,0,2.649.663,9.7,9.7,0,0,0,2.579-.125c-.027-.925-.047-1.865-.07-2.8A9.656,9.656,0,0,1,349.175,257.442Z" transform="translate(-337.69 -231.999)"/>
      <path id="Path_328" data-name="Path 328" d="M407.839,260.469a2.789,2.789,0,0,1-1.744.343c-.948-.211-1.459-1.213-1.841-2.1l-3.476-8.068a22.088,22.088,0,0,1-1.822-5.512c-.023.133-.043.265-.062.39-.316,2.731.78,5.4,1.884,7.927l3.476,8.068c.39.889.893,1.892,1.841,2.1a2.789,2.789,0,0,0,1.744-.343c3.2-1.5,5.758-4.319,9.175-5.216a6.632,6.632,0,0,0-1.049-2.469C413.055,256.732,410.7,259.123,407.839,260.469Z" transform="translate(-374.984 -226.455)"/>
      <path id="Path_329" data-name="Path 329" d="M385.02,219.38c-1.358,1.482-3.378,2.114-5.153,3.055-1.065.566-2.064,1.252-3.121,1.806a7.24,7.24,0,0,1-3.456.936c-.527,0-1.12-.1-1.529.234.086.878.339,1.732.484,2.6a4.682,4.682,0,0,1,1.046-.023,7.237,7.237,0,0,0,3.456-.932c1.069-.554,2.068-1.241,3.121-1.806,1.17-.62,2.446-1.1,3.57-1.791a30.764,30.764,0,0,0,1.584-4.081Z" transform="translate(-358.469 -210.751)"/>
    </g>
    <path id="Path_330" data-name="Path 330" d="M410.418,121.077a2.883,2.883,0,0,1-.9,2.384c-.215.183-.468.32-.675.511a1.83,1.83,0,0,0,.265,2.782,3.477,3.477,0,0,0,2.407.172,13.9,13.9,0,0,0,3.16-.823,5.223,5.223,0,0,0,2.489-2.04,3.066,3.066,0,0,1-1.416-2.536c-.055-1.01.222-2.157-.417-2.941a2.574,2.574,0,0,0-2.731-.492c-.472.133-.929.312-1.4.441-.242.062-1.03.066-1.17.242C409.758,119.1,410.391,120.566,410.418,121.077Z" transform="translate(-260.92 -94.551)" fill="#fbbebe"/>
    <path id="Path_331" data-name="Path 331" d="M410.418,121.077a2.883,2.883,0,0,1-.9,2.384c-.215.183-.468.32-.675.511a1.83,1.83,0,0,0,.265,2.782,3.477,3.477,0,0,0,2.407.172,13.9,13.9,0,0,0,3.16-.823,5.223,5.223,0,0,0,2.489-2.04,3.066,3.066,0,0,1-1.416-2.536c-.055-1.01.222-2.157-.417-2.941a2.574,2.574,0,0,0-2.731-.492c-.472.133-.929.312-1.4.441-.242.062-1.03.066-1.17.242C409.758,119.1,410.391,120.566,410.418,121.077Z" transform="translate(-260.92 -94.551)" opacity="0.1"/>
    <circle id="Ellipse_71" data-name="Ellipse 71" cx="5.231" cy="5.231" r="5.231" transform="translate(146.978 16.009)" fill="#fbbebe"/>
    <path id="Path_332" data-name="Path 332" d="M376.436,211.848a3.541,3.541,0,0,1-.492,1.17,5.415,5.415,0,0,0-.624,3.57,3.757,3.757,0,0,0,2.2,2.778,1.5,1.5,0,0,0,1.5-.094,5.028,5.028,0,0,1-.694-3.3,1.1,1.1,0,0,1,.144-.612.39.39,0,0,1,.554-.1,4.923,4.923,0,0,0,.41,2.1c.109.254.3.534.577.527.39,0,.5-.55.488-.948a10.507,10.507,0,0,0-.921-4.732,5.6,5.6,0,0,1-.78-1.6.944.944,0,0,0-.2-.558.7.7,0,0,0-.293-.137c-.449-.129-1.518-.523-1.888-.1S376.507,211.31,376.436,211.848Z" transform="translate(-240.745 -150.481)" fill="#fbbebe"/>
    <path id="Path_333" data-name="Path 333" d="M383.52,144.07c-.6-.07-1.073.48-1.4.987a19.078,19.078,0,0,0-2.606,6.172,13.239,13.239,0,0,1-.944,3.3,3.361,3.361,0,0,0-.308.671,7.154,7.154,0,0,0-.047,1.085,17.518,17.518,0,0,1-.57,1.876c-.078.39-.062.78-.133,1.17a11.411,11.411,0,0,1-.726,1.915c-.417,1.131-.413,2.372-.722,3.538a1.213,1.213,0,0,1-.242.523c-.207.23-.542.285-.811.433a1.763,1.763,0,0,0-.819,1.205,5.2,5.2,0,0,0-.027,1.5l.242,3.094c.246-.105.39-.39.616-.558a1.742,1.742,0,0,1,1.416-.156l.706.129a3.041,3.041,0,0,1,1.951.866c.367-.577.16-1.424.722-1.806.183-.125.414-.164.6-.273a1.354,1.354,0,0,0,.616-1.085,4,4,0,0,0-.176-1.283,3.754,3.754,0,0,0,1.822-2.216,18.541,18.541,0,0,0,.843-3.417,88.314,88.314,0,0,0,1.638-13.9,6.683,6.683,0,0,0-.254-2.313C384.671,144.784,384.3,144.156,383.52,144.07Z" transform="translate(-240.062 -110.491)" fill="#5ab5f1"/>
    <path id="Path_334" data-name="Path 334" d="M383.52,144.07c-.6-.07-1.073.48-1.4.987a19.078,19.078,0,0,0-2.606,6.172,13.239,13.239,0,0,1-.944,3.3,3.361,3.361,0,0,0-.308.671,7.154,7.154,0,0,0-.047,1.085,17.518,17.518,0,0,1-.57,1.876c-.078.39-.062.78-.133,1.17a11.411,11.411,0,0,1-.726,1.915c-.417,1.131-.413,2.372-.722,3.538a1.213,1.213,0,0,1-.242.523c-.207.23-.542.285-.811.433a1.763,1.763,0,0,0-.819,1.205,5.2,5.2,0,0,0-.027,1.5l.242,3.094c.246-.105.39-.39.616-.558a1.742,1.742,0,0,1,1.416-.156l.706.129a3.041,3.041,0,0,1,1.951.866c.367-.577.16-1.424.722-1.806.183-.125.414-.164.6-.273a1.354,1.354,0,0,0,.616-1.085,4,4,0,0,0-.176-1.283,3.754,3.754,0,0,0,1.822-2.216,18.541,18.541,0,0,0,.843-3.417,88.314,88.314,0,0,0,1.638-13.9,6.683,6.683,0,0,0-.254-2.313C384.671,144.784,384.3,144.156,383.52,144.07Z" transform="translate(-240.062 -110.491)" opacity="0.1"/>
    <path id="Path_335" data-name="Path 335" d="M407.876,131.24a6.6,6.6,0,0,1-3.179,1.849,19.505,19.505,0,0,1-3.687.542,2.341,2.341,0,0,1-1.139-.1.78.78,0,0,1-.472-.932,1.117,1.117,0,0,0,.137-.363c0-.32-.476-.347-.78-.254a7.873,7.873,0,0,0-4.872,3.749,11.314,11.314,0,0,0-.866,3.449c-.437,3.121-.874,6.269-.289,9.363a29.7,29.7,0,0,1,.952,4.908c.023.936-.137,1.869-.129,2.8a1.416,1.416,0,0,0,.25.925c.144.168.363.273.464.472.168.328-.059.78.164,1.081.277.367.847.1,1.225-.156a9.73,9.73,0,0,1,6.472-1.627c2.731.293,5.462,1.756,8.122,1.022a3.719,3.719,0,0,1-.351-.632,18.492,18.492,0,0,1,.749-13.322,17.079,17.079,0,0,0,1.834-4.268,8.194,8.194,0,0,0,.027-2.165,8.972,8.972,0,0,0-1.229-3.975A4.871,4.871,0,0,0,407.876,131.24Z" transform="translate(-251.236 -102.669)" fill="#5ab5f1"/>
    <path id="Path_336" data-name="Path 336" d="M399.092,216.21a4.826,4.826,0,0,0-.3,1.783,10.767,10.767,0,0,0,.086,1.736,2.777,2.777,0,0,0,.511,1.365,1.244,1.244,0,0,0,1.3.464,1.365,1.365,0,0,0,.78-.874,8.31,8.31,0,0,0,.25-1.194,20.059,20.059,0,0,0,.862-3.511,1.02,1.02,0,0,0-.066-.421,2.393,2.393,0,0,0-1.88-.971C399.966,214.693,399.342,215.637,399.092,216.21Z" transform="translate(-255.103 -153.497)" fill="#fbbebe"/>
    <path id="Path_337" data-name="Path 337" d="M414.559,142.56c-.1,1.042.905,1.826,1.3,2.789a4.771,4.771,0,0,1,.273,1.4,66.848,66.848,0,0,1-.156,10,18.665,18.665,0,0,1-.39,3.3,19.025,19.025,0,0,1-3.3,6.16,5.226,5.226,0,0,1-.706.866,5.294,5.294,0,0,1-1.311.78l-4.642,2.251a8.973,8.973,0,0,0-1.65.948,4.5,4.5,0,0,0-1.365,1.779c-.9-.46-1.837-.874-2.731-1.334-.211-.109-.449-.25-.484-.484-.047-.312.281-.534.507-.78a4.592,4.592,0,0,0,.78-1.584c.749-1.794,2.625-2.941,3.3-4.759a7.222,7.222,0,0,1,.8-2.075,5.143,5.143,0,0,1,.886-.78,14.93,14.93,0,0,0,1.951-2.009,3.414,3.414,0,0,0,.644-.94,4.649,4.649,0,0,0,.152-1.646c.035-1.818.858-3.511,1.362-5.259.472-1.642.671-3.367,1.291-4.962S412.9,142.989,414.559,142.56Z" transform="translate(-255.476 -109.573)" opacity="0.1"/>
    <path id="Path_338" data-name="Path 338" d="M416.071,142.56c-.1,1.042.9,1.826,1.3,2.789a4.776,4.776,0,0,1,.277,1.4,67.382,67.382,0,0,1-.156,10,18.661,18.661,0,0,1-.41,3.3,19.025,19.025,0,0,1-3.3,6.16,5.226,5.226,0,0,1-.706.866,5.3,5.3,0,0,1-1.311.78l-4.646,2.251a9.23,9.23,0,0,0-1.65.948,4.537,4.537,0,0,0-1.365,1.779c-.9-.46-1.833-.874-2.731-1.334-.211-.109-.449-.25-.484-.484-.051-.312.277-.534.5-.78a4.457,4.457,0,0,0,.78-1.584c.745-1.794,2.625-2.941,3.3-4.759a7.222,7.222,0,0,1,.8-2.075,4.865,4.865,0,0,1,.885-.78,14.933,14.933,0,0,0,1.951-2.009,3.414,3.414,0,0,0,.644-.94,4.743,4.743,0,0,0,.152-1.646c.035-1.818.854-3.511,1.358-5.259.476-1.642.671-3.367,1.291-4.962A5.8,5.8,0,0,1,416.071,142.56Z" transform="translate(-256.384 -109.573)" fill="#5ab5f1"/>
    <path id="Path_339" data-name="Path 339" d="M420.022,91.635a7.412,7.412,0,0,0-4.642.964,2.774,2.774,0,0,1,.62.047,7.443,7.443,0,0,1,2.859,13.818,7.443,7.443,0,0,0,1.17-14.824Z" transform="translate(-265.223 -78.482)" fill="#46455b"/>
    <path id="Path_340" data-name="Path 340" d="M418.118,98.713a3.39,3.39,0,0,1,.058,2.606c-.035-.105-.074-.211-.121-.316-.921-2.048-3.753-2.895-6.332-1.892a5.169,5.169,0,0,0-3.055,2.914c-.655-1.982.675-4.252,3.121-5.2C414.366,95.818,417.2,96.665,418.118,98.713Z" transform="translate(-261.029 -81.42)" fill="#46455b"/>
    <g id="Group_31" data-name="Group 31" transform="translate(150.157 2.339)" opacity="0.1">
      <path id="Path_341" data-name="Path 341" d="M422.328,98.561a4.66,4.66,0,0,0-6.948-5.641,2.772,2.772,0,0,1,.62.047,7.439,7.439,0,0,1,6.328,5.594Z" transform="translate(-415.38 -81.162)"/>
      <path id="Path_342" data-name="Path 342" d="M425.418,84.631a7.455,7.455,0,0,0-4.974-6.421,7.525,7.525,0,0,0-1.974.8,2.823,2.823,0,0,1,.624.047A7.436,7.436,0,0,1,425.418,84.631Z" transform="translate(-417.265 -72.667)"/>
      <path id="Path_343" data-name="Path 343" d="M429.8,67.854a2.8,2.8,0,0,0-4.194-3.374,1.713,1.713,0,0,1,.39.031,4.486,4.486,0,0,1,3.8,3.343Z" transform="translate(-421.619 -64)"/>
      <path id="Path_344" data-name="Path 344" d="M431.79,106a7.455,7.455,0,0,1-5.766,7.865,7.489,7.489,0,0,1-1.724,1.389A7.443,7.443,0,0,0,431.79,106Z" transform="translate(-420.82 -89.615)"/>
    </g>
    <path id="Path_345" data-name="Path 345" d="M544.962,304.683a2.867,2.867,0,0,0-3.429-.168,4.862,4.862,0,0,0-1.44,2.442,17.425,17.425,0,0,0-1.35,4.053c-.347,3.9-3.082,7.182-3.9,11.005a20.955,20.955,0,0,1-.925,4.077,12.29,12.29,0,0,1-.936,1.611,42.644,42.644,0,0,0-3.511,6.8,5.165,5.165,0,0,0-1.779,1.377,6.632,6.632,0,0,1-2.438,1.482,2.407,2.407,0,0,0-1.01.5c-.39.414-.39,1.081-.714,1.56a2.31,2.31,0,0,1-.889.729,3.333,3.333,0,0,1-.055-.335c-.082-.6-.148-1.194-.211-1.791a6.757,6.757,0,0,0-.921-8.719,13.113,13.113,0,0,1,.082-2.793,1.229,1.229,0,0,0-.39-1.241c-.191-.121-.425-.148-.628-.25a2.549,2.549,0,0,1-.733-.753,3.511,3.511,0,0,0-4.479-.663c-1.092.729-1.67,2.025-2.6,2.957-.484.48-1.057.858-1.537,1.338a6.92,6.92,0,0,0-1.787,3.718,20.24,20.24,0,0,0-.168,4.182,3.823,3.823,0,0,0,.179,1.248,3.278,3.278,0,0,0,.57.905,10.838,10.838,0,0,0,4.385,3.39,1.878,1.878,0,0,1,.019.25,1.667,1.667,0,0,1-.031.39l-.191-.031a7.931,7.931,0,0,1-2.095-.269c-1.112-.48-1.56-1.892-2.657-2.446a1.619,1.619,0,0,0-.285-.117,18.084,18.084,0,0,0-1.588-5.243,6.49,6.49,0,0,1-.878-2.473,6.292,6.292,0,0,1,.542-2.376,61.378,61.378,0,0,0,2.083-8.192q.531-2.61,1.069-5.22a7.84,7.84,0,0,0,1.272-1.486,7.241,7.241,0,0,0,1.272-3.679,4.989,4.989,0,0,0-1.287-3.616,2.138,2.138,0,0,0-1.6-.78,1.951,1.951,0,0,0-1.342.78,6.417,6.417,0,0,0-1.014,2.216,9.678,9.678,0,0,0-.6,3.987c.16,1.112.7,2.317.148,3.293a78.881,78.881,0,0,0-4.439,10.213,17.12,17.12,0,0,0-.85,2.536,13.416,13.416,0,0,0-.14,4.237,55.961,55.961,0,0,0,1.525,7.837,10.071,10.071,0,0,0,1.291,3.371,14.535,14.535,0,0,0-.172,3.964,2.193,2.193,0,0,0,.234.878,3.736,3.736,0,0,0,.8.823,4.006,4.006,0,0,1,1.276,3.059,9.077,9.077,0,0,0,.612,3.121c.932,2.781,1.869,5.563,2.684,8.384a5.5,5.5,0,0,1,.289,1.619,10.786,10.786,0,0,0-.2,2.341,8.339,8.339,0,0,1,.32,1.081,2.8,2.8,0,0,1-.109.839c-.507,2.2-1.974,7.287-1.72,9.538l.5-.175c-.215,2.98-1.135,5.9-1.471,8.879a29.183,29.183,0,0,0,.07,6.523,22.946,22.946,0,0,1,.25,2.922c0,.878-.14,1.744-.176,2.618a23.851,23.851,0,0,0,.207,3.511,36.271,36.271,0,0,0,.87,5.419c.811,3.027.265,6.179.355,9.316a56.69,56.69,0,0,1-.066,6.566c-.082.925-.211,1.845-.238,2.774-.082,2.754.733,5.5.445,8.235-.137,1.284-.464,2.731.343,3.741.257.316.6.542.878.843a1.17,1.17,0,0,1,.339,1.112c-.105.308-.39.534-.456.858-.074.507.484.858.967,1.022l.137.039a1.205,1.205,0,0,0,.347.921,2.067,2.067,0,0,0,1.042.414l6.242,1.209a8.132,8.132,0,0,0,4.213.051,1.068,1.068,0,0,0,.293.5,2.068,2.068,0,0,0,1.038.414l6.242,1.209c1.592.308,3.339.593,4.759-.2a2.676,2.676,0,0,0,1-.932,2.891,2.891,0,0,0,.136-2.438,1.993,1.993,0,0,0-.694-1.01,2.591,2.591,0,0,0-1.451-.312A2.863,2.863,0,0,1,533.45,444a.931.931,0,0,1-.312-.265c.312-.39.612-.78.9-1.17-.269-.062-.39-.433-.456-.706-.8-4.049.324-8.192.488-12.328a26.255,26.255,0,0,0-.484-6.175c-.152-.78-.336-1.521-.445-2.294-.573-4.03.96-8.122.472-12.164-.23-1.888.581-3.862.87-5.742a20.645,20.645,0,0,0-.074-5.071l-1.291-13.264a15.9,15.9,0,0,0-1.124-5.255,6.882,6.882,0,0,1-.531-2.883c1.56-.893,3-2.122,4.759-2.126.339-1.287-.636-5.348-1.205-6.55a28.577,28.577,0,0,1-2.54-15.195c.207-1.869-.538-3.753-.289-5.618a3.382,3.382,0,0,1,.359-1.252,1.291,1.291,0,0,1,1.038-.69c-.109-1.12-.254-2.247-.445-3.367a8.192,8.192,0,0,0,1.56-2.243,29.461,29.461,0,0,0,1.642-5.387c.858-3.2,2.169-6.261,3.207-9.406s.835-6.468,1.58-9.7a7.115,7.115,0,0,1,3.043-4.326,5.717,5.717,0,0,0,1.677-1.268,2.9,2.9,0,0,0,.468-1.6A4.085,4.085,0,0,0,544.962,304.683ZM521.118,441.175c.117-.16.23-.32.336-.488-.414-.023-.936-.265-.987-.679a4.405,4.405,0,0,1,.137-1.229,4.884,4.884,0,0,0-.129-2.15c-.144-.484-.359-.948-.515-1.432a14.464,14.464,0,0,1-.363-1.642,28.063,28.063,0,0,0-1.775-5.77c-.78-1.8-.176-3.761-.168-5.723a10.914,10.914,0,0,1,.094-2.766c.137-.531.39-1.022.535-1.56a6.827,6.827,0,0,0-.476-3.749c1.541-3.644,1.748-7.8,2.064-11.766q.265-3.324.531-6.632a6.306,6.306,0,0,1,.687-2.856,34.042,34.042,0,0,1,1.635,8.7,13.2,13.2,0,0,0,.3,2.543c.246.925.726,1.763,1.046,2.661.71,1.974.636,4.131.956,6.2.129.839.324,1.666.449,2.5.538,3.7-.332,7.451-1.2,11.091a39.786,39.786,0,0,0-.566,6.991c-.113,2.2-.23,4.393-.175,6.593,0,.671.043,1.358.035,2.04a4.981,4.981,0,0,0-.64-.035,2.864,2.864,0,0,1-1.256-.191A1.432,1.432,0,0,1,521.118,441.175Z" transform="translate(-317.832 -208.049)" fill="url(#linear-gradient-2)"/>
    <path id="Path_346" data-name="Path 346" d="M568.641,661.208a2.63,2.63,0,0,1,1.451.308,2.02,2.02,0,0,1,.694,1.006,2.859,2.859,0,0,1-.14,2.423,2.658,2.658,0,0,1-1,.925c-1.42.78-3.168.5-4.759.2l-6.242-1.2a2.077,2.077,0,0,1-1.042-.39,1.35,1.35,0,0,1-.183-1.561,2.989,2.989,0,0,1,1.17-1.17,14.266,14.266,0,0,1,5.961-1.8c.78-.094,1.51-.343,2.095.2.312.285.3.64.733.87A2.92,2.92,0,0,0,568.641,661.208Z" transform="translate(-351.747 -425.039)" fill="#3f3d56"/>
    <path id="Path_347" data-name="Path 347" d="M538.4,655.705a2.615,2.615,0,0,1,1.447.308,1.973,1.973,0,0,1,.694,1.007,2.843,2.843,0,0,1-.137,2.423,2.687,2.687,0,0,1-1,.925c-1.42.78-3.168.5-4.763.2l-6.242-1.2a2.071,2.071,0,0,1-1.042-.39,1.35,1.35,0,0,1-.187-1.56,3.063,3.063,0,0,1,1.19-1.17,14.532,14.532,0,0,1,5.961-1.794c.78-.1,1.51-.343,2.095.2.308.285.3.64.729.87A2.889,2.889,0,0,0,538.4,655.705Z" transform="translate(-333.301 -421.682)" fill="#3f3d56"/>
    <path id="Path_348" data-name="Path 348" d="M530.555,484.353a74.991,74.991,0,0,0-10.779.823,2.154,2.154,0,0,0-.683.179c-.757.39-.78,1.451-.761,2.3.051,3.46-1.131,6.811-1.521,10.244a28.568,28.568,0,0,0,.066,6.48,24.211,24.211,0,0,1,.25,2.906c0,.866-.144,1.728-.179,2.6a23.543,23.543,0,0,0,.2,3.472,35.841,35.841,0,0,0,.87,5.384c.808,3.008.261,6.14.347,9.253a55.086,55.086,0,0,1-.074,6.523c-.082.921-.211,1.833-.238,2.758-.082,2.731.73,5.462.441,8.192-.137,1.272-.468,2.731.339,3.714.257.312.6.538.874.839a1.17,1.17,0,0,1,.343,1.1c-.109.308-.41.534-.456.854-.078.5.48.854.964,1.014a8.918,8.918,0,0,0,10.061-3.616c-.414-.023-.936-.265-.987-.675a4.35,4.35,0,0,1,.136-1.221,4.755,4.755,0,0,0-.129-2.134c-.14-.484-.359-.944-.511-1.424a14.5,14.5,0,0,1-.363-1.631A27.572,27.572,0,0,0,527,536.554c-.78-1.787-.172-3.737-.164-5.68a10.966,10.966,0,0,1,.094-2.75c.136-.531.39-1.018.538-1.56a6.73,6.73,0,0,0-.476-3.722c1.56-3.62,1.756-7.771,2.072-11.7l.534-6.632a6.274,6.274,0,0,1,.687-2.836,33.6,33.6,0,0,1,1.635,8.645,12.782,12.782,0,0,0,.293,2.532c.246.913.722,1.748,1.045,2.641.706,1.951.632,4.1.952,6.16.129.835.32,1.654.445,2.489.538,3.679-.335,7.412-1.206,11.021a39.367,39.367,0,0,0-.57,6.948c-.117,2.181-.234,4.361-.179,6.546.047,2.009.2,4.166-.878,5.852a10.632,10.632,0,0,0,3.808,1.362,6.729,6.729,0,0,0,4.381-1.326,14.236,14.236,0,0,0,3.211-3.367c-.273-.062-.39-.433-.456-.7-.8-4.022.328-8.153.5-12.25a26.064,26.064,0,0,0-.48-6.133c-.152-.78-.339-1.518-.449-2.282-.566-4,.967-8.071.484-12.094-.226-1.88.585-3.839.874-5.711a20.191,20.191,0,0,0-.07-5.017l-1.283-13.166a15.607,15.607,0,0,0-1.12-5.224c-.913-1.951-.347-4.354-.445-6.5a26.771,26.771,0,0,1-10.213,2.263Z" transform="translate(-326.992 -316.648)" fill="#46455b"/>
    <path id="Path_349" data-name="Path 349" d="M571.4,338.244a41.917,41.917,0,0,1,4.112-8.27,12.21,12.21,0,0,0,.936-1.6,20.353,20.353,0,0,0,.928-4.049c.839-3.8,3.577-7.061,3.929-10.923a17.082,17.082,0,0,1,1.354-4.03,4.9,4.9,0,0,1,1.44-2.427,2.887,2.887,0,0,1,3.425.164,4.03,4.03,0,0,1,1.385,3.281,2.888,2.888,0,0,1-.468,1.584,5.614,5.614,0,0,1-1.677,1.26,7.08,7.08,0,0,0-3.047,4.291c-.749,3.211-.546,6.507-1.588,9.632s-2.341,6.168-3.211,9.363a30.057,30.057,0,0,1-1.65,5.352,6.416,6.416,0,0,1-4.022,3.64,10.889,10.889,0,0,0-.89-3.359C571.807,340.917,570.937,339.5,571.4,338.244Z" transform="translate(-360.297 -209.532)" fill="#a0616a"/>
    <path id="Path_350" data-name="Path 350" d="M509.426,345.869a17.8,17.8,0,0,0-1.732-6.566,6.325,6.325,0,0,1-.874-2.454,6.2,6.2,0,0,1,.542-2.36,60.847,60.847,0,0,0,2.087-8.157l1.077-5.189a7.894,7.894,0,0,0,1.268-1.475,7.155,7.155,0,0,0,1.276-3.655,4.931,4.931,0,0,0-1.283-3.6,2.142,2.142,0,0,0-1.6-.757,1.951,1.951,0,0,0-1.342.78,6.289,6.289,0,0,0-.995,2.185,9.617,9.617,0,0,0-.609,3.96c.156,1.1.7,2.3.144,3.269A78.733,78.733,0,0,0,502.934,332a17.087,17.087,0,0,0-.847,2.52,13.263,13.263,0,0,0-.148,4.213,55.3,55.3,0,0,0,1.521,7.8c.39,1.607.878,3.355,2.228,4.319A25.744,25.744,0,0,1,509.426,345.869Z" transform="translate(-317.952 -212.705)" fill="#a0616a"/>
    <circle id="Ellipse_72" data-name="Ellipse 72" cx="6.698" cy="6.698" r="6.698" transform="translate(192.387 120.216)" fill="#a0616a"/>
    <path id="Path_351" data-name="Path 351" d="M530.414,394.171a9.008,9.008,0,0,1-1.092,3.472c-.316.667-.729,1.412-1.451,1.56a32.475,32.475,0,0,0,6.293,1.806,6.922,6.922,0,0,0,2.247.129,5.4,5.4,0,0,0,1.791-.663,9.183,9.183,0,0,0,4.553-6.632,12.1,12.1,0,0,1-2.493.066,1.826,1.826,0,0,1-1.276-.472,1.915,1.915,0,0,1-.359-1.045q-.222-1.662-.355-3.332a13.2,13.2,0,0,0-4.779,1.1c-.624.273-1.233.589-1.877.823-.39.14-1.518.168-1.791.421C529.4,391.8,530.437,393.328,530.414,394.171Z" transform="translate(-333.829 -259.91)" fill="#a0616a"/>
    <path id="Path_352" data-name="Path 352" d="M522.09,394.733a4.213,4.213,0,0,0-3.566-3.39,8.09,8.09,0,0,1-2.095-.261c-1.112-.48-1.58-1.88-2.657-2.43a2.838,2.838,0,0,0-3.269.882,7.284,7.284,0,0,0-1.373,3.343,16.19,16.19,0,0,0-.363,4.954,2.223,2.223,0,0,0,.238.874,3.787,3.787,0,0,0,.8.819,3.956,3.956,0,0,1,1.276,3.035,8.894,8.894,0,0,0,.609,3.121c.932,2.762,1.868,5.528,2.68,8.329a5.4,5.4,0,0,1,.289,1.607,8.728,8.728,0,0,0-.2,2.321,9.033,9.033,0,0,1,.316,1.073,2.76,2.76,0,0,1-.109.835c-.511,2.192-1.978,7.24-1.724,9.476a57.1,57.1,0,0,1,11.875-2.341,26.127,26.127,0,0,1,2.922-.172c2.341,0,4.794.441,6.979-.417,2.025-.78,3.706-2.661,5.883-2.668.339-1.276-.636-5.309-1.2-6.5a28.174,28.174,0,0,1-2.528-15.093c.2-1.857-.538-3.729-.285-5.583a3.342,3.342,0,0,1,.355-1.244,1.311,1.311,0,0,1,1.042-.691,40.955,40.955,0,0,0-1.7-8.559c-.316-.991-.886-2.138-1.923-2.2-.936-.062-1.627.78-2.3,1.44a6.633,6.633,0,0,1-2.438,1.471,2.4,2.4,0,0,0-1.014.5c-.39.41-.39,1.077-.714,1.56-.562.866-2,.948-2.341,1.916a5.91,5.91,0,0,0-.152.866,3.092,3.092,0,0,1-.921,1.475A5.946,5.946,0,0,1,522.09,394.733Z" transform="translate(-322.146 -256.728)" fill="#2f2e41"/>
    <path id="Path_353" data-name="Path 353" d="M533.454,358.393a1.209,1.209,0,0,0-.39-1.229,5.937,5.937,0,0,0-.632-.254,2.571,2.571,0,0,1-.73-.757,3.511,3.511,0,0,0-4.475-.655c-1.1.726-1.67,2.013-2.606,2.938-.48.48-1.053.854-1.537,1.334a6.885,6.885,0,0,0-1.791,3.69,20.017,20.017,0,0,0-.168,4.159,3.678,3.678,0,0,0,.179,1.241,3.3,3.3,0,0,0,.57.9,10.649,10.649,0,0,0,4.607,3.456,6.517,6.517,0,0,0,5.614-.48,1,1,0,0,0,.39-.39,1.229,1.229,0,0,0,0-.749,5.072,5.072,0,0,1,.269-2.9,19.232,19.232,0,0,0,.866-1.97,6.594,6.594,0,0,0,.062-2.341A24.1,24.1,0,0,1,533.454,358.393Z" transform="translate(-329.691 -239.121)" fill="#46455b"/>
    <path id="Path_354" data-name="Path 354" d="M843.32,630c0,38.379,24.078,69.44,53.836,69.44" transform="translate(-526.218 -406.857)" fill="#46455b"/>
    <path id="Path_355" data-name="Path 355" d="M981.32,698.22c0-38.816,26.867-70.22,60.077-70.22" transform="translate(-610.383 -405.637)" fill="#5ab5f1"/>
    <path id="Path_356" data-name="Path 356" d="M893.32,638.86c0,36.46,15.351,65.964,34.33,65.964" transform="translate(-556.713 -412.26)" fill="#5ab5f1"/>
    <path id="Path_357" data-name="Path 357" d="M981.32,667.726c0-49.6,31.057-89.726,69.44-89.726" transform="translate(-610.383 -375.143)" fill="#46455b"/>
    <ellipse id="Ellipse_73" data-name="Ellipse 73" cx="13.385" cy="2.263" rx="13.385" ry="2.263" transform="translate(355.216 301.302)" fill="#5ab5f1" opacity="0.1"/>
    <path id="Path_358" data-name="Path 358" d="M952.28,802.751s7.635-.234,9.936-1.873,11.746-3.6,12.316-.967,11.473,13.069,2.856,13.139-20.029-1.342-22.326-2.731S952.28,802.751,952.28,802.751Z" transform="translate(-592.672 -509.699)" fill="#a8a8a8"/>
    <path id="Path_359" data-name="Path 359" d="M977.51,818.576c-8.618.07-20.028-1.342-22.326-2.731-1.748-1.069-2.446-4.888-2.676-6.655h-.258s.484,6.156,2.781,7.556,13.7,2.813,22.326,2.731c2.485-.02,3.347-.905,3.3-2.216C980.323,818.089,979.375,818.561,977.51,818.576Z" transform="translate(-592.653 -516.142)" opacity="0.2"/>
    <path id="Path_360" data-name="Path 360" d="M771.161,82.025a2.945,2.945,0,0,0,.534-1.638c0-3.558-7.248-6.437-16.19-6.437s-16.19,2.879-16.19,6.437a3.036,3.036,0,0,0,.636,1.826C730,83.324,723.29,85.408,723.29,87.8c0,3.554,14.824,6.437,33.16,6.437s33.16-2.883,33.16-6.437C789.621,85.283,782.084,83.079,771.161,82.025Z" transform="translate(-453.013 -67.729)" fill="#5ab5f1" opacity="0.1"/>
    <path id="Path_361" data-name="Path 361" d="M262.21,100.025a2.945,2.945,0,0,0,.534-1.638c0-3.558-7.248-6.437-16.19-6.437s-16.19,2.879-16.19,6.437a3.035,3.035,0,0,0,.667,1.826c-9.956,1.112-16.662,3.2-16.662,5.586,0,3.554,14.844,6.437,33.16,6.437s33.16-2.883,33.16-6.437C280.67,103.283,273.133,101.079,262.21,100.025Z" transform="translate(-142.63 -78.707)" fill="#5ab5f1" opacity="0.1"/>
    <path id="Path_362" data-name="Path 362" d="M628.74,92.557a2.239,2.239,0,0,1,2.762.827,6.867,6.867,0,0,1,.956,2.973c.347,2.309.6,4.958-.956,6.694A21.765,21.765,0,0,1,649.447,88.57" transform="translate(-395.349 -76.645)" fill="none" stroke="#5ab5f1" stroke-miterlimit="10" stroke-width="3" opacity="0.1"/>
    <path id="Path_363" data-name="Path 363" d="M295.21,195.739a1.457,1.457,0,0,1,1.775.531,4.178,4.178,0,0,1,.616,1.912c.222,1.486.39,3.187-.612,4.291a13.978,13.978,0,0,1,11.528-9.312" transform="translate(-191.933 -140.434)" fill="none" stroke="#5ab5f1" stroke-miterlimit="10" stroke-width="3" opacity="0.1"/>
    <path id="Path_364" data-name="Path 364" d="M745.21,225.739a1.456,1.456,0,0,1,1.775.531,4.178,4.178,0,0,1,.616,1.912c.222,1.486.39,3.187-.613,4.291a13.978,13.978,0,0,1,11.528-9.312" transform="translate(-466.382 -158.73)" fill="none" stroke="#5ab5f1" stroke-miterlimit="10" stroke-width="3" opacity="0.1"/>
    <path id="Path_365" data-name="Path 365" d="M697.342,546.484V537l4.369,4.369,1.092-1.131L696.562,534l-6.242,6.242,1.092,1.088L695.782,537v9.48Z" transform="translate(-432.905 -348.308)" fill="#5ab5f1" opacity="0.1"/>
    <path id="Path_366" data-name="Path 366" d="M455.342,626.484V617l4.369,4.369,1.092-1.131L454.562,614l-6.242,6.242,1.092,1.088L453.782,617v9.48Z" transform="translate(-285.313 -397.099)" fill="#5ab5f1" opacity="0.1"/>
    <path id="Path_367" data-name="Path 367" d="M633.342,697.484V688l4.369,4.369,1.092-1.131L632.562,685l-6.242,6.242,1.092,1.088L631.782,688v9.48Z" transform="translate(-393.873 -440.401)" fill="#5ab5f1" opacity="0.1"/>
  </g>
</svg>
