<svg xmlns="http://www.w3.org/2000/svg" width="25" height="25" viewBox="0 0 25 25">
  <path id="user-4" d="M25,12.5A12.5,12.5,0,1,0,4.057,21.708l-.012.01.405.342c.026.022.055.04.081.062.215.179.439.348.666.512.074.053.147.106.222.158q.364.251.746.476l.167.1c.279.159.563.308.855.445l.065.029a12.387,12.387,0,0,0,3.023.957l.084.015c.329.057.662.1,1,.133l.123.01c.335.028.675.045,1.018.045s.676-.018,1.01-.045l.127-.01q.5-.046.99-.13l.085-.015a12.387,12.387,0,0,0,2.98-.934l.1-.047q.421-.2.823-.425l.2-.115c.245-.144.485-.295.719-.455.084-.057.166-.118.25-.178.2-.144.4-.292.586-.447.042-.034.088-.064.129-.1l.416-.347-.012-.01A12.468,12.468,0,0,0,25,12.5ZM.909,12.5a11.591,11.591,0,1,1,19.278,8.665,3.407,3.407,0,0,0-.406-.244L15.932,19a1.008,1.008,0,0,1-.56-.906V16.747c.089-.11.183-.235.28-.371a9.263,9.263,0,0,0,1.189-2.329,1.65,1.65,0,0,0,.948-1.495V10.94a1.654,1.654,0,0,0-.4-1.077V7.742a3.666,3.666,0,0,0-.856-2.665,5.116,5.116,0,0,0-4.03-1.44,5.118,5.118,0,0,0-4.03,1.44,3.667,3.667,0,0,0-.856,2.665V9.863a1.656,1.656,0,0,0-.4,1.077v1.611a1.653,1.653,0,0,0,.609,1.282,8.541,8.541,0,0,0,1.406,2.9v1.315a1.014,1.014,0,0,1-.528.89L5.1,20.9a3.285,3.285,0,0,0-.342.216A11.563,11.563,0,0,1,.909,12.5Z" fill="#5cb4f1"/>
</svg>
