<svg id="XMLID_403_" xmlns="http://www.w3.org/2000/svg" width="18.574" height="31.027" viewBox="0 0 18.574 31.027">
  <path id="XMLID_406_" d="M225.042,116.657H215.81a1.057,1.057,0,0,0-1.057,1.057v2.443l3.33.578a2.071,2.071,0,0,1-.707,4.08l-2.622-.455v.772a1.057,1.057,0,0,0,1.057,1.057h9.231a1.057,1.057,0,0,0,1.057-1.057v-7.419A1.057,1.057,0,0,0,225.042,116.657Z" transform="translate(-207.524 -109.348)" fill="#b5b5b5"/>
  <path id="XMLID_405_" d="M104.03,113.808a1.362,1.362,0,0,1-1.1-1.06l-.64-3.079,1.338,2.738a1.293,1.293,0,0,0,.942.707l4.788.831a1.273,1.273,0,0,0,.222.019,1.294,1.294,0,0,0,.221-2.569l-4.137-.718-1.047-2.144,1.08,1.274v-1.325a2.606,2.606,0,0,0-2.605-2.605h-1.112a2.606,2.606,0,0,0-2.607,2.605v7.025l.013,13.21a1.553,1.553,0,0,0,3.106,0v-9.254h1.035v9.254a2.561,2.561,0,0,1-.325,1.23,1.546,1.546,0,0,0,2.492-1.23l0-14.619-1.26-.219Z" transform="translate(-99.377 -99.243)" fill="#b5b5b5"/>
  <path id="XMLID_404_" d="M104.565,6.051a3.026,3.026,0,1,0-3.027-3.026A3.025,3.025,0,0,0,104.565,6.051Z" transform="translate(-101.403)" fill="#b5b5b5"/>
</svg>
