<svg id="bookmark" xmlns="http://www.w3.org/2000/svg" width="18.567" height="31.829" viewBox="0 0 18.567 31.829">
  <defs>
    <style>
      .cls-1 {
        fill: #686868;
      }
    </style>
  </defs>
  <g id="Group_20" data-name="Group 20" transform="translate(0)">
    <path id="Path_243" data-name="Path 243" class="cls-1" d="M122.582,0H109.32a2.655,2.655,0,0,0-2.652,2.652V31.166a.663.663,0,0,0,1.067.526l8.216-6.32,8.216,6.32a.663.663,0,0,0,1.067-.526V2.652A2.655,2.655,0,0,0,122.582,0Zm1.326,29.819-7.553-5.81a.663.663,0,0,0-.808,0l-7.553,5.81V2.652a1.328,1.328,0,0,1,1.326-1.326h13.262a1.327,1.327,0,0,1,1.326,1.326V29.819Z" transform="translate(-106.668)"/>
  </g>
</svg>
